<svg width="637" height="536" viewBox="0 0 637 536" fill="none" xmlns="http://www.w3.org/2000/svg">
<path d="M637 471.029H0V471.388H637V471.029Z" fill="#FED801"/>
<path d="M136.114 484.682H92.2886V485.041H136.114V484.682Z" fill="#FED801"/>
<path d="M379.932 487.243H366.835V487.602H379.932V487.243Z" fill="#FED801"/>
<path d="M174.105 489.804H149.44V490.163H174.105V489.804Z" fill="#FED801"/>
<path d="M534.812 488.955H502.096V489.314H534.812V488.955Z" fill="#FED801"/>
<path d="M479.789 483.847H457.443V484.207H479.789V483.847Z" fill="#FED801"/>
<path d="M348.426 483.272H229.078V483.632H348.426V483.272Z" fill="#FED801"/>
<path d="M301.938 406.863H55.941C54.0139 406.859 52.1668 405.992 50.8054 404.452C49.4439 402.911 48.6792 400.824 48.6792 398.648V8.14301C48.696 5.97925 49.4681 3.91034 50.8277 2.38567C52.1874 0.860998 54.0249 0.00370663 55.941 0H301.938C303.867 0 305.717 0.865501 307.082 2.4061C308.446 3.9467 309.212 6.0362 309.212 8.21494V398.648C309.212 400.827 308.446 402.916 307.082 404.457C305.717 405.997 303.867 406.863 301.938 406.863ZM55.941 0.28774C54.0984 0.291551 52.3323 1.12084 51.0306 2.59357C49.7288 4.06631 48.9977 6.06215 48.9977 8.14301V398.648C48.9977 400.729 49.7288 402.725 51.0306 404.197C52.3323 405.67 54.0984 406.499 55.941 406.503H301.938C303.782 406.499 305.549 405.67 306.853 404.198C308.156 402.726 308.89 400.73 308.894 398.648V8.14301C308.89 6.06083 308.156 4.06502 306.853 2.59269C305.549 1.12037 303.782 0.291543 301.938 0.28774H55.941Z" fill="#FED801"/>
<path d="M577.517 406.863H331.507C329.579 406.859 327.731 405.992 326.367 404.452C325.004 402.913 324.236 400.825 324.233 398.648V8.14301C324.253 5.97794 325.028 3.90904 326.39 2.38477C327.751 0.860496 329.59 0.00366621 331.507 0H577.517C579.431 0.00748768 581.265 0.866452 582.622 2.39072C583.979 3.91498 584.749 5.98173 584.766 8.14301V398.648C584.766 400.822 584.003 402.907 582.644 404.447C581.286 405.986 579.442 406.855 577.517 406.863ZM331.507 0.28774C329.664 0.291543 327.896 1.12037 326.593 2.59269C325.289 4.06502 324.555 6.06083 324.551 8.14301V398.648C324.555 400.73 325.289 402.726 326.593 404.198C327.896 405.67 329.664 406.499 331.507 406.503H577.517C579.361 406.499 581.128 405.67 582.432 404.198C583.736 402.726 584.469 400.73 584.473 398.648V8.14301C584.469 6.06083 583.736 4.06502 582.432 2.59269C581.128 1.12037 579.361 0.291543 577.517 0.28774H331.507Z" fill="#FED801"/>
<path d="M438.027 330.339C437.326 330.339 436.625 330.339 435.912 330.411C431.476 330.772 427.165 332.237 423.289 334.7C419.413 337.163 416.067 340.563 413.491 344.658C410.915 348.752 409.172 353.439 408.388 358.383C407.604 363.327 407.797 368.405 408.954 373.255C412.245 387.747 413.834 402.664 413.681 417.624V461.188C413.681 462.714 414.218 464.178 415.173 465.257C416.129 466.336 417.425 466.943 418.777 466.943H541.221V330.339H438.027Z" fill="#F0F0F0"/>
<path d="M571.3 364.393C571.301 355.552 568.257 347.058 562.813 340.706C557.368 334.354 549.95 330.641 542.126 330.353C534.301 330.066 526.685 333.225 520.886 339.164C515.087 345.103 511.561 353.355 511.052 362.177C510.828 365.905 511.155 369.649 512.021 373.255C515.312 387.747 516.901 402.664 516.747 417.624V461.188C516.747 462.714 517.284 464.178 518.24 465.257C519.195 466.336 520.492 466.943 521.843 466.943H560.509C561.861 466.943 563.157 466.336 564.112 465.257C565.068 464.178 565.605 462.714 565.605 461.188V415.063C565.493 401.035 567.062 387.053 570.268 373.499C570.975 370.53 571.322 367.467 571.3 364.393Z" fill="#FAFAFA"/>
<path d="M499.586 383.988H284.267V466.9H499.586V383.988Z" fill="#F0F0F0"/>
<path d="M216.262 284.66H423.121C429.167 284.675 434.961 287.398 439.231 292.232C443.502 297.065 445.9 303.614 445.9 310.441V402.734H193.432V310.441C193.432 303.604 195.837 297.046 200.118 292.211C204.4 287.376 210.207 284.66 216.262 284.66Z" fill="#FED801"/>
<path d="M243.895 284.66H452.958C455.811 284.66 458.635 285.295 461.271 286.527C463.906 287.76 466.301 289.567 468.318 291.845C470.335 294.122 471.935 296.827 473.026 299.803C474.118 302.779 474.68 305.969 474.68 309.19V402.705H222.173V309.19C222.173 302.684 224.462 296.445 228.535 291.845C232.609 287.244 238.134 284.66 243.895 284.66Z" fill="#FAFAFA"/>
<path d="M291.466 376.42H498.134C499.891 376.42 501.576 377.208 502.818 378.611C504.061 380.014 504.759 381.917 504.759 383.901V402.705C504.759 404.689 504.061 406.592 502.818 407.995C501.576 409.398 499.891 410.186 498.134 410.186H291.466C290.942 410.186 290.44 409.951 290.069 409.533C289.699 409.115 289.491 408.548 289.491 407.956V378.65C289.491 378.059 289.699 377.491 290.069 377.073C290.44 376.655 290.942 376.42 291.466 376.42Z" fill="#FED801"/>
<path d="M182.59 330.339C181.889 330.339 181.188 330.339 180.475 330.411C176.036 330.764 171.721 332.223 167.84 334.682C163.959 337.141 160.607 340.539 158.026 344.632C155.444 348.726 153.697 353.414 152.908 358.36C152.12 363.306 152.311 368.387 153.466 373.24C156.757 387.732 158.347 402.65 158.193 417.61V461.173C158.193 462.7 158.73 464.163 159.685 465.243C160.641 466.322 161.937 466.928 163.289 466.928H285.733V330.339H182.59Z" fill="#F0F0F0"/>
<path d="M315.863 364.393C315.864 355.552 312.82 347.058 307.376 340.706C301.932 334.354 294.513 330.641 286.689 330.353C278.865 330.066 271.248 333.225 265.449 339.164C259.651 345.103 256.124 353.355 255.616 362.177C255.391 365.905 255.718 369.649 256.584 373.255C259.875 387.747 261.464 402.664 261.31 417.624V461.188C261.31 462.714 261.847 464.178 262.803 465.257C263.759 466.336 265.055 466.943 266.406 466.943H305.072C306.424 466.943 307.72 466.336 308.676 465.257C309.631 464.178 310.168 462.714 310.168 461.188V415.063C310.057 401.035 311.625 387.053 314.831 373.499C315.538 370.53 315.885 367.467 315.863 364.393Z" fill="#FAFAFA"/>
<path d="M538.991 471.043H184.73C183.757 471.043 182.824 470.606 182.135 469.829C181.447 469.052 181.061 467.998 181.061 466.899H542.724C542.724 467.45 542.627 467.994 542.439 468.502C542.25 469.009 541.974 469.469 541.627 469.855C541.279 470.241 540.867 470.544 540.415 470.748C539.962 470.952 539.478 471.052 538.991 471.043Z" fill="#E0E0E0"/>
<path d="M370.798 82.4803H152.752V202.381H370.798V82.4803Z" fill="#E0E0E0"/>
<path d="M381.27 82.4803H160.04V202.381H381.27V82.4803Z" fill="#F5F5F5"/>
<path d="M372.9 192.943V91.9326L168.41 91.9326V192.943H372.9Z" fill="white"/>
<path d="M352.745 151.451V133.396C352.745 124.012 346.009 116.405 337.699 116.405L203.611 116.405C195.301 116.405 188.565 124.012 188.565 133.396V151.451C188.565 160.835 195.301 168.442 203.611 168.442H337.699C346.009 168.442 352.745 160.835 352.745 151.451Z" fill="#F5F5F5"/>
<path d="M474.922 155.221H422.981V215.991H474.922V155.221Z" fill="#E0E0E0"/>
<path d="M480.222 155.221H429.593V215.991H480.222V155.221Z" fill="#F5F5F5"/>
<path d="M475.979 211.215V160.012H433.835V211.215H475.979Z" fill="white"/>
<path d="M454.907 172.672L443.377 195.216H466.437L454.907 172.672Z" fill="#F5F5F5"/>
<path d="M544.138 115.383H492.197V176.154H544.138V115.383Z" fill="#E0E0E0"/>
<path d="M549.451 115.383H498.822V176.154H549.451V115.383Z" fill="#F5F5F5"/>
<path d="M545.208 171.377V120.174H503.065V171.377H545.208Z" fill="white"/>
<path d="M529.283 154.904L534.29 145.121C534.811 144.099 535.085 142.941 535.083 141.762C535.082 140.583 534.806 139.425 534.284 138.404C533.761 137.384 533.009 136.537 532.105 135.948C531.2 135.359 530.174 135.05 529.13 135.05H519.129C518.085 135.05 517.06 135.359 516.155 135.948C515.25 136.537 514.499 137.384 513.976 138.404C513.453 139.425 513.177 140.583 513.176 141.762C513.175 142.941 513.449 144.099 513.97 145.121L518.976 154.904C519.499 155.926 520.25 156.775 521.154 157.365C522.059 157.955 523.085 158.265 524.13 158.265C525.174 158.265 526.201 157.955 527.105 157.365C528.01 156.775 528.761 155.926 529.283 154.904Z" fill="#F5F5F5"/>
<path d="M73.4077 363.99H44.6536V464.655H73.4077V363.99Z" fill="#FED801"/>
<path d="M191.941 464.655H50.1699V471.029H191.941V464.655Z" fill="#FED801"/>
<path d="M73.4078 464.655H197.47V363.99H73.4078L73.4078 464.655Z" fill="#FAFAFA"/>
<path d="M84.7085 409.395H186.17V376.377H84.7085V409.395Z" fill="#F0F0F0"/>
<path d="M84.7085 452.254H186.17V419.236H84.7085V452.254Z" fill="#F0F0F0"/>
<path d="M147.631 395.152H123.247C122.715 395.148 122.206 394.907 121.832 394.481C121.457 394.055 121.247 393.479 121.247 392.879C121.25 392.281 121.462 391.708 121.836 391.286C122.21 390.863 122.717 390.624 123.247 390.62H147.631C148.161 390.624 148.667 390.863 149.042 391.286C149.416 391.708 149.628 392.281 149.631 392.879C149.631 393.479 149.421 394.055 149.046 394.481C148.671 394.907 148.163 395.148 147.631 395.152Z" fill="#FAFAFA"/>
<path d="M147.631 438.011H123.247C122.716 438.011 122.208 437.773 121.832 437.349C121.457 436.925 121.247 436.351 121.247 435.752C121.247 435.153 121.457 434.578 121.832 434.155C122.208 433.731 122.716 433.493 123.247 433.493H147.631C148.162 433.493 148.67 433.731 149.045 434.155C149.421 434.578 149.631 435.153 149.631 435.752C149.631 436.351 149.421 436.925 149.045 437.349C148.67 437.773 148.162 438.011 147.631 438.011Z" fill="#FAFAFA"/>
<path d="M111.933 290.142H95.3715C95.8428 308.269 88.5173 318.513 88.5173 339.848C88.5173 359.041 92.6706 362.637 103.665 362.637C114.66 362.637 118.813 359.041 118.813 339.848C118.788 318.513 111.449 308.269 111.933 290.142Z" fill="#FAFAFA"/>
<path d="M97.6265 361.947H109.653V363.098C109.653 363.334 109.57 363.561 109.422 363.728C109.274 363.896 109.073 363.99 108.863 363.99H98.4163C98.2069 363.99 98.0059 363.896 97.8578 363.728C97.7097 363.561 97.6265 363.334 97.6265 363.098V361.947Z" fill="#F3F7FF"/>
<path d="M85.3963 296.745H84.1223V324.267H85.3963V296.745Z" fill="#E0E0E0"/>
<path d="M129.961 305.406H77.3064L86.3391 244.463H120.941L129.961 305.406Z" fill="#EBEBEB"/>
<path d="M318.5 536C454.923 536 565.516 528.708 565.516 519.714C565.516 510.719 454.923 503.428 318.5 503.428C182.077 503.428 71.4844 510.719 71.4844 519.714C71.4844 528.708 182.077 536 318.5 536Z" fill="#F5F5F5"/>
<path d="M308.754 477.1C307.556 430.155 306.027 204.266 308.423 180.729L313.2 174.845C313.2 174.845 313.085 181.592 312.971 199.561C312.474 279.984 310.627 465.101 311.034 477.057L308.754 477.1Z" fill="#006BFF"/>
<path opacity="0.6" d="M308.754 477.1C307.556 430.155 306.027 204.266 308.423 180.729L313.2 174.845C313.2 174.845 313.085 181.592 312.971 199.561C312.474 279.984 310.627 465.101 311.034 477.057L308.754 477.1Z" fill="white"/>
<path d="M328.259 343.56C340.005 330.31 353.532 319.239 368.339 310.758C379.333 304.687 350.503 344.337 339.215 359.112C327.927 373.888 314.041 390.217 309.582 404.014C308.69 375.902 314.347 359.199 328.259 343.56Z" fill="#006BFF"/>
<path opacity="0.6" d="M328.259 343.56C340.005 330.31 353.532 319.239 368.339 310.758C379.333 304.687 350.503 344.337 339.215 359.112C327.927 373.888 314.041 390.217 309.582 404.014C308.69 375.902 314.347 359.199 328.259 343.56Z" fill="white"/>
<path d="M309.467 223.559C300.88 180.772 303.53 156.17 313.2 129.799C322.245 105.14 329.303 94.1194 339.814 84.7823C342.528 82.3796 336.425 116.851 327.074 142.546C320.475 160.673 317.2 184.268 312.639 197.849C309.467 207.172 309.467 223.559 309.467 223.559Z" fill="#006BFF"/>
<path opacity="0.6" d="M309.467 223.559C300.88 180.772 303.53 156.17 313.2 129.799C322.245 105.14 329.303 94.1194 339.814 84.7823C342.528 82.3796 336.425 116.851 327.074 142.546C320.475 160.673 317.2 184.268 312.639 197.849C309.467 207.172 309.467 223.559 309.467 223.559Z" fill="white"/>
<path d="M309.926 317.318C308.983 291.71 307.849 266.964 325.087 234.435C329.278 226.508 366.364 159.623 379.168 155.595C385.449 153.638 374.289 205.388 357.141 236.277C344.273 259.425 338.336 265.554 324.259 292.573C318.717 303.219 309.926 317.318 309.926 317.318Z" fill="#006BFF"/>
<path opacity="0.6" d="M309.926 317.318C308.983 291.71 307.849 266.964 325.087 234.435C329.278 226.508 366.364 159.623 379.168 155.595C385.449 153.638 374.289 205.388 357.141 236.277C344.273 259.425 338.336 265.554 324.259 292.573C318.717 303.219 309.926 317.318 309.926 317.318Z" fill="white"/>
<path d="M287.784 211.56C272.649 195.073 257.807 184.225 246.812 178.743C235.818 173.262 264.763 214.279 278.662 232.09C292.562 249.901 305.302 265.353 310.754 281.207C309.187 247.24 302.932 228.062 287.784 211.56Z" fill="#006BFF"/>
<path opacity="0.6" d="M287.784 211.56C272.649 195.073 257.807 184.225 246.812 178.743C235.818 173.262 264.763 214.279 278.662 232.09C292.562 249.901 305.302 265.353 310.754 281.207C309.187 247.24 302.932 228.062 287.784 211.56Z" fill="white"/>
<path d="M310.767 365.889C308.308 346.596 302.702 324.569 294.103 309.319C285.503 294.069 272.267 270.82 261.31 264.533C258.686 263.022 273.171 310.139 280.191 323.174C285.937 333.948 292.924 343.812 300.97 352.509C302.83 354.681 310.767 365.889 310.767 365.889Z" fill="#006BFF"/>
<path opacity="0.6" d="M310.767 365.889C308.308 346.596 302.702 324.569 294.103 309.319C285.503 294.069 272.267 270.82 261.31 264.533C258.686 263.022 273.171 310.139 280.191 323.174C285.937 333.948 292.924 343.812 300.97 352.509C302.83 354.681 310.767 365.889 310.767 365.889Z" fill="white"/>
<path d="M329.176 489.271H290.65L287.745 442.399H332.081L329.176 489.271Z" fill="#006BFF"/>
<path d="M334.948 450.297H284.879L283.44 438.082H336.387L334.948 450.297Z" fill="#006BFF"/>
<g opacity="0.4">
<path d="M329.176 489.271H290.65L287.745 442.399H332.081L329.176 489.271Z" fill="black"/>
<path d="M334.948 450.297H284.879L283.44 438.082H336.387L334.948 450.297Z" fill="black"/>
</g>
<path d="M370.836 314.096C358.988 316.498 320.335 289.336 307.251 271.453C316.642 262.279 325.242 252.119 332.934 241.111C324.45 252.088 310.818 261.828 302.728 267.007C299.071 263.439 296.931 261.253 296.931 261.253C296.931 261.253 330.055 248.721 347.662 204.654C361.077 171.118 380.569 153.12 401.17 170.356C441.224 181.434 398.762 300.299 370.836 314.096Z" fill="#263238"/>
<path d="M382.773 241.701C382.455 242.233 382.264 242.55 382.009 242.924L381.308 243.988C380.824 244.679 380.34 245.326 379.843 245.974C378.837 247.268 377.818 248.506 376.747 249.685C374.591 252.027 372.292 254.195 369.868 256.174C367.434 258.124 364.88 259.874 362.224 261.411C360.873 262.145 359.536 262.849 358.147 263.497L356.07 264.418L355.523 264.662C355.191 264.777 354.911 264.892 354.542 264.993C353.71 265.233 352.848 265.306 351.994 265.209C350.94 265.085 349.927 264.68 349.038 264.029C348.288 263.449 347.644 262.711 347.14 261.857C346.487 260.714 346.025 259.447 345.776 258.116C345.427 256.225 345.277 254.293 345.331 252.361C345.424 249.034 345.748 245.719 346.299 242.449C346.821 239.269 347.433 236.162 348.121 233.083C348.809 230.004 349.598 226.983 350.528 223.933L355.306 225.242C354.962 228.263 354.58 231.328 354.325 234.378C354.07 237.428 353.752 240.449 353.599 243.456C353.419 246.353 353.398 249.26 353.535 252.16C353.583 253.353 353.754 254.536 354.045 255.685C354.159 256.102 354.325 256.375 354.274 256.217C354.167 256.004 354.013 255.826 353.828 255.699C353.527 255.456 353.176 255.303 352.809 255.253C352.64 255.223 352.468 255.223 352.299 255.253L352.707 255.037L354.414 254.102C355.561 253.484 356.656 252.764 357.765 252.088C359.941 250.63 362.046 249.04 364.071 247.326C366.066 245.575 367.96 243.682 369.74 241.658C370.645 240.679 371.498 239.643 372.288 238.593C372.683 238.061 373.091 237.528 373.46 236.996L374.021 236.205L374.48 235.543L382.773 241.701Z" fill="#E4897B"/>
<path d="M354.873 226.566L358.988 218.236L348.872 218.926C348.872 218.926 348.235 224.336 351.013 227.645L354.873 226.566Z" fill="#E4897B"/>
<path d="M385.385 227.875C375.397 228.321 367.804 239.039 367.804 239.039L380.544 257.167C380.544 257.167 390.099 246.29 390.965 240.32C391.895 234.09 391.398 227.601 385.385 227.875Z" fill="#006BFF"/>
<path opacity="0.3" d="M385.385 227.875C375.397 228.321 367.804 239.039 367.804 239.039L380.544 257.167C380.544 257.167 390.099 246.29 390.965 240.32C391.895 234.09 391.398 227.601 385.385 227.875Z" fill="black"/>
<path d="M357.102 213.229L349.688 215.315L348.872 218.926L358.988 218.236L357.102 213.229Z" fill="#E4897B"/>
<path d="M356.402 203.216L357.714 203.992L357.115 214.481L354.185 214.711L356.402 203.216Z" fill="#E4897B"/>
<path d="M354.172 202.813L352.885 203.158L351.662 215.732L354.554 214.898L354.172 202.813Z" fill="#E4897B"/>
<path d="M376.123 231.285C376.123 231.285 372.212 234.608 398.189 292.717L435.708 279.294C430.243 262.274 427.236 251.628 424.624 213.603C419.04 214.258 413.505 215.369 408.062 216.926C402.255 218.487 396.554 220.516 391.003 222.998C383.894 226.393 376.123 231.285 376.123 231.285Z" fill="#006BFF"/>
<path opacity="0.3" d="M376.123 231.285C376.123 231.285 372.212 234.608 398.189 292.717L435.708 279.294C430.243 262.274 427.236 251.628 424.624 213.603C419.04 214.258 413.505 215.369 408.062 216.926C402.255 218.487 396.554 220.516 391.003 222.998C383.894 226.393 376.123 231.285 376.123 231.285Z" fill="black"/>
<path d="M463.851 507.758L454.487 508.78L444.741 483.603L454.105 482.581L463.851 507.758Z" fill="#E4897B"/>
<path d="M444.741 483.617L449.76 496.594H459.532L454.117 482.581L444.741 483.617Z" fill="#CE6F64"/>
<path d="M548.342 455.793L543.004 464.943L522.544 453.908L527.895 444.772L548.342 455.793Z" fill="#E4897B"/>
<path d="M527.894 444.772L522.556 453.908L533.105 459.591L538.443 450.455L527.894 444.772Z" fill="#CE6F64"/>
<path d="M398.188 292.717C398.188 292.717 396.303 380.089 405.832 411.711C415.731 444.6 444.893 492.825 444.893 492.825L463.073 491.832C463.073 491.832 436.854 431.234 433.899 405.064C429.847 368.982 425.694 282.89 425.694 282.89L398.188 292.717Z" fill="#006BFF"/>
<path opacity="0.6" d="M398.188 292.717C398.188 292.717 396.303 380.089 405.832 411.711C415.731 444.6 444.893 492.825 444.893 492.825L463.073 491.832C463.073 491.832 436.854 431.234 433.899 405.064C429.847 368.982 425.694 282.89 425.694 282.89L398.188 292.717Z" fill="black"/>
<path opacity="0.3" d="M428.803 339.158L415.426 304.629C415.426 304.629 416.968 344.438 429.797 354.681C429.453 349.502 429.122 344.28 428.803 339.158Z" fill="black"/>
<path d="M408.113 289.178C408.113 289.178 433.593 358.911 450.436 397.31C464.067 428.314 529.169 460.166 529.169 460.166L535.997 447.218C535.997 447.218 486.197 411.539 476.782 390.505C446.652 323.188 453.073 293.925 435.746 279.294L408.113 289.178Z" fill="#006BFF"/>
<path opacity="0.6" d="M408.113 289.178C408.113 289.178 433.593 358.911 450.436 397.31C464.067 428.314 529.169 460.166 529.169 460.166L535.997 447.218C535.997 447.218 486.197 411.539 476.782 390.505C446.652 323.188 453.073 293.925 435.746 279.294L408.113 289.178Z" fill="black"/>
<path d="M540.749 463.95L541.45 451.75C541.461 451.538 541.539 451.337 541.67 451.184C541.801 451.031 541.976 450.936 542.163 450.916L550.852 450.153C551.07 450.143 551.288 450.184 551.491 450.275C551.694 450.366 551.878 450.504 552.031 450.68C552.184 450.857 552.302 451.068 552.377 451.299C552.453 451.53 552.484 451.777 552.47 452.023C552.151 456.34 551.82 458.354 551.502 463.749C551.323 467.072 551.336 474.453 551.069 479.028C550.801 483.603 546.775 483.574 546.52 481.632C545.374 473 543.221 468.928 541.246 465.892C540.878 465.334 540.701 464.644 540.749 463.95Z" fill="#263238"/>
<path d="M453.238 505.514H464.704C464.912 505.517 465.114 505.596 465.279 505.738C465.444 505.881 465.564 506.08 465.622 506.305L468.17 516.578C468.235 516.821 468.247 517.077 468.207 517.327C468.166 517.576 468.074 517.812 467.937 518.013C467.8 518.214 467.622 518.375 467.419 518.483C467.216 518.592 466.993 518.643 466.768 518.635C462.742 518.563 460.78 518.304 455.723 518.304C452.614 518.304 444.562 518.664 440.269 518.664C435.976 518.664 435.173 513.859 436.931 513.427C444.728 511.485 449.225 508.794 451.62 506.233C452.06 505.772 452.638 505.515 453.238 505.514Z" fill="#263238"/>
<path d="M400.291 195.849C400.953 202.439 403.056 214.164 408.05 216.926C408.05 216.926 408.317 223.746 398.125 227.4C386.914 231.4 391.004 223.084 391.004 223.084C396.66 219.243 395.068 214.178 392.647 209.747L400.291 195.849Z" fill="#E4897B"/>
<path d="M381.321 228.177C384.098 226.566 387.627 224.623 391.004 223.026C396.55 220.537 402.246 218.499 408.05 216.926C411.337 215.948 414.649 215.214 417.439 214.711C418.038 216.797 419.987 231.86 400.062 237.428C382.608 242.319 380.404 231.428 381.321 228.177Z" fill="#E4897B"/>
<path d="M390.277 223.444C390.108 223.443 389.944 223.371 389.819 223.242C389.702 223.102 389.639 222.916 389.64 222.724C389.639 222.537 389.703 222.356 389.819 222.221C389.941 222.091 390.103 222.019 390.271 222.019C390.439 222.019 390.6 222.091 390.723 222.221C390.842 222.354 390.91 222.535 390.914 222.724C390.911 222.918 390.843 223.103 390.723 223.242C390.603 223.372 390.443 223.445 390.277 223.444Z" fill="#F0F0F0"/>
<path d="M394.685 232.033C394.515 232.011 394.359 231.914 394.252 231.763C394.144 231.612 394.094 231.419 394.112 231.227C394.131 231.038 394.216 230.866 394.347 230.747C394.478 230.629 394.645 230.574 394.813 230.594C394.896 230.603 394.978 230.631 395.052 230.675C395.126 230.72 395.192 230.781 395.245 230.855C395.299 230.928 395.339 231.013 395.363 231.104C395.387 231.195 395.395 231.291 395.386 231.385C395.367 231.562 395.293 231.725 395.175 231.844C395.058 231.963 394.907 232.03 394.749 232.033H394.685ZM396.66 231.342C396.642 231.152 396.69 230.961 396.795 230.81C396.9 230.66 397.052 230.562 397.22 230.536C397.388 230.516 397.555 230.571 397.686 230.69C397.818 230.809 397.902 230.981 397.921 231.169C397.934 231.264 397.929 231.361 397.907 231.454C397.885 231.546 397.847 231.633 397.795 231.709C397.742 231.784 397.677 231.847 397.602 231.892C397.527 231.938 397.445 231.966 397.361 231.975C397.194 231.992 397.028 231.935 396.898 231.817C396.767 231.699 396.682 231.529 396.66 231.342ZM399.208 230.91C399.165 230.727 399.188 230.532 399.271 230.368C399.355 230.204 399.492 230.083 399.654 230.033C399.735 230.007 399.82 230 399.904 230.012C399.987 230.025 400.068 230.056 400.14 230.104C400.213 230.153 400.276 230.217 400.326 230.294C400.376 230.371 400.412 230.458 400.431 230.551C400.474 230.734 400.451 230.929 400.368 231.093C400.284 231.257 400.147 231.378 399.985 231.428H399.819C399.677 231.435 399.537 231.387 399.422 231.293C399.306 231.199 399.222 231.065 399.182 230.91H399.208ZM392.035 231.083C391.962 231.037 391.898 230.975 391.847 230.9C391.796 230.825 391.759 230.74 391.737 230.649C391.716 230.557 391.711 230.462 391.723 230.369C391.735 230.275 391.763 230.186 391.806 230.105C391.893 229.94 392.034 229.821 392.199 229.773C392.363 229.725 392.538 229.751 392.685 229.846C392.757 229.895 392.82 229.959 392.87 230.036C392.92 230.112 392.957 230.199 392.977 230.291C392.997 230.383 393 230.479 392.988 230.573C392.975 230.667 392.945 230.757 392.902 230.839C392.845 230.946 392.765 231.034 392.669 231.095C392.573 231.155 392.464 231.186 392.354 231.184C392.233 231.19 392.113 231.155 392.01 231.083H392.035ZM401.641 230.076C401.607 229.989 401.589 229.896 401.588 229.801C401.586 229.706 401.601 229.612 401.632 229.523C401.663 229.435 401.709 229.355 401.767 229.287C401.826 229.218 401.895 229.164 401.972 229.126C402.049 229.088 402.132 229.068 402.216 229.066C402.3 229.064 402.384 229.081 402.462 229.116C402.54 229.151 402.611 229.203 402.672 229.269C402.732 229.335 402.78 229.413 402.813 229.501C402.878 229.676 402.88 229.874 402.818 230.051C402.756 230.228 402.636 230.371 402.482 230.45C402.398 230.472 402.311 230.472 402.227 230.45C402.104 230.461 401.981 230.432 401.872 230.366C401.764 230.299 401.675 230.199 401.616 230.076H401.641ZM403.858 228.752C403.81 228.674 403.776 228.586 403.758 228.493C403.74 228.4 403.739 228.303 403.754 228.21C403.77 228.116 403.801 228.027 403.848 227.947C403.894 227.867 403.954 227.799 404.024 227.745C404.163 227.64 404.333 227.6 404.497 227.635C404.662 227.67 404.807 227.777 404.903 227.932C404.951 228.009 404.986 228.095 405.004 228.186C405.023 228.278 405.025 228.373 405.011 228.465C404.997 228.557 404.966 228.646 404.921 228.725C404.877 228.804 404.818 228.872 404.75 228.925C404.641 229.009 404.512 229.054 404.38 229.055C404.278 229.056 404.177 229.03 404.086 228.977C403.995 228.924 403.916 228.847 403.858 228.752ZM390.073 228.752C390.037 228.667 390.016 228.573 390.011 228.478C390.007 228.383 390.019 228.288 390.048 228.198C390.076 228.109 390.12 228.026 390.177 227.956C390.234 227.885 390.303 227.829 390.379 227.788C390.453 227.747 390.534 227.723 390.617 227.717C390.7 227.711 390.783 227.724 390.861 227.755C390.939 227.786 391.011 227.834 391.073 227.896C391.135 227.959 391.184 228.035 391.22 228.119C391.257 228.204 391.279 228.297 391.284 228.391C391.289 228.486 391.278 228.58 391.251 228.67C391.223 228.76 391.181 228.842 391.125 228.913C391.07 228.984 391.002 229.042 390.927 229.083C390.843 229.127 390.752 229.152 390.659 229.155C390.538 229.158 390.418 229.122 390.314 229.051C390.21 228.979 390.127 228.876 390.073 228.752ZM405.909 227.084C405.85 227.018 405.803 226.94 405.77 226.853C405.738 226.767 405.722 226.674 405.722 226.58C405.722 226.486 405.738 226.393 405.77 226.307C405.803 226.22 405.85 226.142 405.909 226.076C405.966 226.008 406.035 225.953 406.112 225.915C406.189 225.878 406.271 225.858 406.355 225.858C406.439 225.858 406.521 225.878 406.598 225.915C406.675 225.953 406.744 226.008 406.801 226.076C406.861 226.143 406.908 226.223 406.94 226.311C406.973 226.398 406.989 226.492 406.989 226.587C406.989 226.682 406.973 226.776 406.94 226.864C406.908 226.951 406.861 227.031 406.801 227.098C406.741 227.171 406.668 227.229 406.587 227.269C406.506 227.309 406.418 227.329 406.33 227.328C406.245 227.311 406.165 227.276 406.093 227.224C406.021 227.173 405.958 227.105 405.909 227.026V227.084ZM389.424 225.645C389.418 225.55 389.43 225.456 389.457 225.366C389.484 225.277 389.527 225.194 389.583 225.123C389.638 225.052 389.706 224.995 389.781 224.953C389.857 224.912 389.939 224.888 390.022 224.882C390.193 224.874 390.359 224.942 390.485 225.072C390.611 225.201 390.688 225.381 390.698 225.573C390.701 225.667 390.688 225.762 390.659 225.85C390.63 225.939 390.586 226.021 390.529 226.09C390.472 226.16 390.404 226.216 390.328 226.255C390.252 226.295 390.17 226.317 390.086 226.321C390.002 226.325 389.919 226.31 389.84 226.277C389.762 226.245 389.69 226.195 389.628 226.131C389.566 226.067 389.517 225.989 389.482 225.904C389.447 225.818 389.427 225.725 389.424 225.63V225.645ZM407.553 224.839C407.48 224.79 407.417 224.726 407.367 224.649C407.317 224.573 407.281 224.486 407.261 224.394C407.241 224.302 407.237 224.206 407.25 224.112C407.263 224.018 407.292 223.928 407.336 223.846C407.428 223.687 407.57 223.574 407.734 223.531C407.898 223.488 408.071 223.519 408.215 223.616C408.358 223.717 408.461 223.878 408.502 224.063C408.542 224.248 408.517 224.444 408.432 224.609C408.373 224.713 408.292 224.799 408.196 224.859C408.101 224.92 407.993 224.952 407.884 224.954C407.765 224.947 407.65 224.902 407.553 224.825V224.839ZM408.827 222.307C408.748 222.275 408.676 222.226 408.615 222.162C408.553 222.098 408.504 222.021 408.47 221.935C408.435 221.849 408.416 221.756 408.414 221.662C408.412 221.568 408.427 221.474 408.457 221.386C408.485 221.298 408.529 221.216 408.586 221.147C408.642 221.078 408.711 221.022 408.787 220.983C408.863 220.944 408.945 220.923 409.028 220.921C409.112 220.918 409.195 220.935 409.272 220.969C409.351 221.003 409.424 221.053 409.485 221.119C409.547 221.184 409.596 221.262 409.63 221.349C409.665 221.436 409.683 221.53 409.685 221.626C409.687 221.721 409.673 221.815 409.642 221.904C409.597 222.042 409.515 222.16 409.408 222.243C409.3 222.325 409.173 222.368 409.043 222.365C408.95 222.37 408.857 222.345 408.776 222.293L408.827 222.307ZM409.629 219.588C409.464 219.543 409.321 219.429 409.228 219.268C409.136 219.108 409.102 218.913 409.132 218.725C409.15 218.632 409.185 218.544 409.233 218.466C409.281 218.389 409.343 218.322 409.414 218.271C409.485 218.221 409.564 218.186 409.647 218.17C409.73 218.154 409.815 218.157 409.897 218.178C409.978 218.197 410.056 218.234 410.125 218.287C410.194 218.34 410.252 218.408 410.297 218.487C410.342 218.566 410.373 218.655 410.387 218.747C410.402 218.84 410.4 218.935 410.381 219.027C410.349 219.188 410.271 219.333 410.157 219.437C410.044 219.541 409.903 219.6 409.757 219.602H409.629V219.588Z" fill="#F0F0F0"/>
<path d="M410.088 216.682C410.004 216.686 409.919 216.67 409.84 216.635C409.761 216.601 409.69 216.548 409.63 216.48C409.57 216.413 409.523 216.332 409.492 216.242C409.462 216.153 409.448 216.058 409.451 215.962C409.45 215.775 409.514 215.594 409.63 215.459C409.689 215.393 409.758 215.34 409.833 215.301C409.952 215.25 410.08 215.239 410.204 215.266C410.328 215.294 410.442 215.361 410.534 215.459C410.653 215.593 410.721 215.773 410.725 215.962C410.72 216.156 410.652 216.34 410.534 216.48C410.474 216.541 410.405 216.59 410.33 216.624C410.254 216.663 410.172 216.682 410.088 216.682Z" fill="#F0F0F0"/>
<path d="M397.169 201.504L392.647 209.675C393.231 210.7 393.73 211.784 394.137 212.912C396.367 211.69 399.233 208.078 398.698 205.215C398.389 203.885 397.871 202.628 397.169 201.504Z" fill="#CE6F64"/>
<path d="M397.641 181.275C400.839 191.519 402.393 195.778 399.845 203.043C396.023 213.963 384.175 216.178 378.327 207.215C373.066 199.158 368.708 183.75 375.868 175.636C377.44 173.835 379.393 172.518 381.543 171.811C383.692 171.103 385.966 171.028 388.148 171.594C390.331 172.159 392.349 173.345 394.01 175.04C395.672 176.735 396.922 178.881 397.641 181.275Z" fill="#E4897B"/>
<path d="M384.417 170.37C382.416 173.852 390.557 193.994 402.495 189.98C408.47 187.965 406.457 183.462 402.94 179.463C398.7 174.718 393.192 171.684 387.27 170.831L384.417 170.37Z" fill="#263238"/>
<path d="M384.876 170.946C381.359 170.557 369.677 172.989 370.186 186.397C370.186 186.397 375.04 181.477 388.57 180.642L384.876 170.946Z" fill="#263238"/>
<path d="M402.393 189.548C402.661 190.545 402.751 191.593 402.659 192.63C402.567 193.666 402.295 194.673 401.858 195.591C400.686 198.036 398.329 197.317 397.182 195.029C396.15 192.958 395.526 189.188 397.412 187.505C397.833 187.151 398.326 186.92 398.845 186.833C399.365 186.747 399.896 186.808 400.39 187.011C400.884 187.213 401.325 187.551 401.675 187.994C402.025 188.437 402.271 188.971 402.393 189.548Z" fill="#E4897B"/>
<path d="M435.606 276.603L438.358 279.797C438.574 280.042 438.358 280.459 437.925 280.617L398.545 294.688C398.201 294.803 397.87 294.688 397.781 294.486L396.38 290.803C396.278 290.559 396.52 290.228 396.889 290.098L434.905 276.517C435.019 276.462 435.143 276.441 435.266 276.456C435.389 276.471 435.506 276.522 435.606 276.603Z" fill="#006BFF"/>
<path d="M385.27 190.411C385.576 191.231 385.436 192.066 384.977 192.296C384.519 192.526 383.869 192.037 383.563 191.231C383.257 190.426 383.397 189.577 383.869 189.347C384.34 189.116 384.964 189.591 385.27 190.411Z" fill="#263238"/>
<path d="M377.104 194.31C377.409 195.116 377.282 195.965 376.811 196.195C376.339 196.425 375.702 195.936 375.397 195.13C375.091 194.324 375.231 193.476 375.702 193.245C376.174 193.015 376.823 193.49 377.104 194.31Z" fill="#263238"/>
<path d="M375.958 193.188L374.009 193.461C374.009 193.461 375.474 194.555 375.958 193.188Z" fill="#263238"/>
<path d="M379.805 194.67C379.858 196.835 379.653 198.998 379.194 201.101C379.671 201.221 380.166 201.222 380.644 201.103C381.122 200.984 381.57 200.747 381.958 200.41L379.805 194.67Z" fill="#DE5753"/>
<path d="M385.602 202.424C385.557 202.425 385.514 202.41 385.478 202.381C385.441 202.353 385.413 202.313 385.398 202.266C385.385 202.235 385.378 202.201 385.377 202.167C385.375 202.133 385.38 202.098 385.391 202.066C385.402 202.034 385.418 202.005 385.439 201.98C385.46 201.955 385.485 201.935 385.512 201.921C386.418 201.515 387.226 200.874 387.87 200.049C388.514 199.224 388.977 198.238 389.22 197.173C389.224 197.139 389.235 197.107 389.251 197.078C389.267 197.049 389.289 197.024 389.314 197.005C389.339 196.986 389.368 196.973 389.397 196.968C389.427 196.962 389.458 196.963 389.487 196.972C389.518 196.977 389.547 196.989 389.573 197.007C389.599 197.025 389.621 197.049 389.639 197.077C389.657 197.105 389.67 197.137 389.676 197.171C389.683 197.205 389.684 197.24 389.678 197.274C389.422 198.424 388.926 199.488 388.233 200.379C387.539 201.269 386.668 201.961 385.691 202.396L385.602 202.424Z" fill="#263238"/>
<path d="M386.43 186.311C386.349 186.314 386.269 186.289 386.201 186.239C385.71 185.898 385.155 185.694 384.582 185.644C384.008 185.594 383.431 185.699 382.901 185.951C382.846 185.982 382.787 186.001 382.726 186.007C382.666 186.012 382.604 186.004 382.547 185.982C382.489 185.961 382.435 185.927 382.389 185.882C382.342 185.837 382.304 185.782 382.277 185.721C382.249 185.66 382.232 185.593 382.228 185.524C382.223 185.455 382.23 185.386 382.249 185.321C382.268 185.255 382.298 185.195 382.338 185.143C382.378 185.09 382.426 185.047 382.48 185.016C383.149 184.689 383.878 184.548 384.606 184.606C385.333 184.664 386.037 184.918 386.659 185.347C386.764 185.416 386.839 185.529 386.87 185.661C386.902 185.793 386.885 185.934 386.825 186.052C386.788 186.134 386.731 186.201 386.661 186.247C386.591 186.293 386.511 186.315 386.43 186.311Z" fill="#263238"/>
<path d="M371.664 191.879H371.588C371.528 191.867 371.471 191.841 371.421 191.804C371.37 191.767 371.326 191.719 371.292 191.663C371.257 191.607 371.233 191.544 371.221 191.477C371.208 191.41 371.207 191.342 371.218 191.274C371.34 190.456 371.635 189.683 372.079 189.021C372.522 188.36 373.101 187.83 373.766 187.476C373.822 187.442 373.884 187.422 373.948 187.416C374.011 187.41 374.075 187.42 374.136 187.444C374.196 187.468 374.251 187.505 374.297 187.555C374.344 187.604 374.381 187.664 374.406 187.73C374.431 187.796 374.443 187.868 374.442 187.94C374.441 188.012 374.427 188.083 374.4 188.148C374.374 188.214 374.335 188.272 374.287 188.32C374.24 188.368 374.184 188.404 374.123 188.426C373.608 188.721 373.163 189.151 372.824 189.678C372.485 190.206 372.262 190.817 372.174 191.461C372.149 191.59 372.084 191.703 371.99 191.78C371.896 191.857 371.78 191.892 371.664 191.879Z" fill="#263238"/>
<path d="M431.886 223.4C432.803 224.623 433.924 226.004 434.969 227.314C436.014 228.623 437.148 229.918 438.269 231.184C440.498 233.745 442.791 236.234 445.199 238.55C447.607 240.866 450.041 243.125 452.589 245.139C453.213 245.671 453.863 246.117 454.525 246.578C455.187 247.038 455.799 247.542 456.474 248.017C457.149 248.491 457.837 248.952 458.436 249.311L459.252 249.786L460.143 250.189C461.43 250.716 462.756 251.111 464.105 251.369C465.561 251.624 467.029 251.783 468.501 251.843C471.604 251.923 474.709 251.74 477.788 251.297C480.97 250.872 484.13 250.257 487.254 249.455C490.401 248.721 493.624 247.758 496.631 246.765L498.453 251.915C495.354 253.543 492.182 254.984 488.948 256.231C485.691 257.477 482.379 258.528 479.024 259.382C475.577 260.266 472.069 260.81 468.539 261.008C464.744 261.247 460.941 260.76 457.29 259.569L455.85 258.994L454.423 258.274C453.531 257.8 452.818 257.339 452.015 256.836C451.213 256.332 450.448 255.886 449.697 255.397C448.945 254.908 448.155 254.404 447.429 253.858C444.473 251.755 441.636 249.449 438.931 246.952C436.243 244.477 433.67 241.859 431.211 239.125C429.988 237.744 428.79 236.334 427.618 234.896C426.433 233.457 425.338 232.018 424.153 230.364L431.886 223.4Z" fill="#E4897B"/>
<path d="M540.737 470.252C540.614 470.265 540.49 470.265 540.367 470.252C540.229 470.231 540.099 470.168 539.991 470.069C539.883 469.97 539.802 469.839 539.756 469.691C539.31 468.381 541.399 465.202 541.641 464.842C541.667 464.804 541.703 464.775 541.744 464.759C541.785 464.744 541.829 464.743 541.87 464.756C541.915 464.764 541.956 464.788 541.988 464.824C542.02 464.86 542.041 464.907 542.049 464.957C542.265 466.396 542.495 468.957 541.603 469.921C541.485 470.038 541.348 470.128 541.199 470.184C541.05 470.241 540.893 470.264 540.737 470.252ZM541.679 465.619C540.877 466.914 539.947 468.77 540.176 469.46C540.176 469.547 540.265 469.647 540.456 469.691C540.598 469.74 540.749 469.747 540.894 469.712C541.039 469.677 541.173 469.6 541.284 469.489C541.768 469.014 541.909 467.576 541.679 465.619Z" fill="#006BFF"/>
<path d="M538.431 467.576C538.338 467.591 538.243 467.591 538.15 467.576C537.976 467.518 537.823 467.396 537.717 467.229C537.611 467.062 537.557 466.86 537.564 466.655C537.551 466.455 537.577 466.255 537.641 466.068C537.704 465.881 537.805 465.713 537.934 465.576C538.928 464.468 541.756 464.655 541.832 464.655C541.872 464.662 541.909 464.678 541.942 464.703C541.975 464.728 542.003 464.761 542.023 464.799C542.045 464.838 542.056 464.883 542.056 464.929C542.056 464.974 542.045 465.019 542.023 465.058C541.13 466.354 539.856 467.247 538.431 467.576ZM541.284 465.13C540.225 465.03 539.165 465.307 538.252 465.921C538.173 466.008 538.111 466.114 538.072 466.231C538.032 466.348 538.016 466.473 538.023 466.597C538.023 466.928 538.163 467.015 538.265 467.043C538.928 467.245 540.571 466.123 541.361 465.13H541.284Z" fill="#006BFF"/>
<path d="M448.143 507.658C447.358 507.722 446.575 507.511 445.9 507.053C445.723 506.911 445.577 506.724 445.475 506.507C445.373 506.289 445.318 506.048 445.314 505.802C445.298 505.667 445.316 505.529 445.366 505.404C445.415 505.28 445.494 505.173 445.595 505.097C446.652 504.306 450.563 506.305 451.34 506.723C451.384 506.744 451.42 506.781 451.443 506.828C451.466 506.875 451.474 506.929 451.468 506.982C451.462 507.036 451.441 507.086 451.41 507.127C451.378 507.168 451.336 507.198 451.289 507.212C450.257 507.485 449.202 507.635 448.143 507.658ZM446.308 505.413C446.153 505.404 445.998 505.444 445.862 505.528C445.827 505.554 445.799 505.591 445.783 505.635C445.767 505.679 445.764 505.727 445.773 505.773C445.772 505.942 445.808 506.109 445.877 506.259C445.945 506.41 446.045 506.539 446.168 506.636C447.072 507.413 449.238 507.125 450.487 506.866C449.17 506.138 447.76 505.648 446.308 505.413Z" fill="#006BFF"/>
<path d="M451.238 507.212H451.149C449.875 506.607 447.238 504.248 447.327 503.011C447.327 502.752 447.518 502.406 448.117 502.335C450.397 502.004 451.365 506.651 451.416 506.91C451.424 506.948 451.424 506.988 451.416 507.026C451.408 507.065 451.392 507.101 451.37 507.131C451.348 507.162 451.32 507.186 451.288 507.203C451.257 507.219 451.222 507.227 451.187 507.226L451.238 507.212ZM448.372 502.824H448.219C447.977 502.824 447.849 502.924 447.837 503.054C447.747 503.773 449.556 505.644 450.881 506.464C450.576 505.341 449.722 502.824 448.372 502.824Z" fill="#006BFF"/>
<path d="M498.988 244.736L496.236 237.054L491.624 246.894C491.624 246.894 494.452 252.318 498.465 251.915L499.09 249.916C499.611 248.232 499.575 246.392 498.988 244.736Z" fill="#E4897B"/>
<path d="M384.085 189.289L382.149 189.562C382.149 189.562 383.614 190.656 384.085 189.289Z" fill="#263238"/>
<path d="M464.36 492.436L442.664 493.731L439.53 486.941L463.074 486.063L464.36 492.436Z" fill="#006BFF"/>
<path opacity="0.7" d="M464.36 492.436L442.664 493.731L439.53 486.941L463.074 486.063L464.36 492.436Z" fill="white"/>
<path d="M537.564 445.521L528.812 461.735L524.2 460.656L532.405 441.622L537.564 445.521Z" fill="#006BFF"/>
<path opacity="0.7" d="M537.564 445.521L528.812 461.735L524.2 460.656L532.405 441.622L537.564 445.521Z" fill="white"/>
<path d="M431.886 283.236L432.905 282.876C433.109 282.804 433.224 282.632 433.173 282.488L431.275 277.668C431.275 277.524 431.007 277.481 430.803 277.553L429.784 277.913C429.58 277.913 429.465 278.157 429.516 278.301L431.376 283.063C431.427 283.25 431.644 283.308 431.886 283.236Z" fill="#006BFF"/>
<path d="M401.514 294.069L402.533 293.709C402.737 293.709 402.864 293.465 402.813 293.321L400.953 288.559C400.89 288.415 400.686 288.372 400.482 288.444L399.463 288.804C399.259 288.804 399.144 289.048 399.195 289.192L401.055 293.954C401.106 294.084 401.31 294.141 401.514 294.069Z" fill="#006BFF"/>
<path d="M416.687 288.66L417.706 288.286C417.897 288.286 418.025 288.041 417.974 287.897L416.114 283.149C416.114 283.006 415.846 282.948 415.642 283.02L414.623 283.38C414.419 283.452 414.305 283.639 414.356 283.768L416.216 288.53C416.267 288.674 416.483 288.732 416.687 288.66Z" fill="#006BFF"/>
<path opacity="0.6" d="M431.886 283.236L432.905 282.876C433.109 282.804 433.224 282.632 433.173 282.488L431.275 277.668C431.275 277.524 431.007 277.481 430.803 277.553L429.784 277.913C429.58 277.913 429.465 278.157 429.516 278.301L431.376 283.063C431.427 283.25 431.644 283.308 431.886 283.236Z" fill="black"/>
<path opacity="0.6" d="M401.514 294.069L402.533 293.709C402.737 293.709 402.864 293.465 402.813 293.321L400.953 288.559C400.89 288.415 400.686 288.372 400.482 288.444L399.463 288.804C399.259 288.804 399.144 289.048 399.195 289.192L401.055 293.954C401.106 294.084 401.31 294.141 401.514 294.069Z" fill="black"/>
<path opacity="0.6" d="M416.687 288.66L417.706 288.286C417.897 288.286 418.025 288.041 417.974 287.897L416.114 283.149C416.114 283.006 415.846 282.948 415.642 283.02L414.623 283.38C414.419 283.452 414.305 283.639 414.356 283.768L416.216 288.53C416.267 288.674 416.483 288.732 416.687 288.66Z" fill="black"/>
<path d="M424.662 213.603C428.777 213.603 437.402 226.551 437.402 226.551L426.102 243.557C426.102 243.557 418.891 232.939 418.929 226.882C418.98 220.595 419.949 213.661 424.662 213.603Z" fill="#006BFF"/>
<path opacity="0.3" d="M424.662 213.603C428.777 213.603 437.402 226.551 437.402 226.551L426.102 243.557C426.102 243.557 418.891 232.939 418.929 226.882C418.98 220.595 419.949 213.661 424.662 213.603Z" fill="black"/>
<path d="M492.452 236.651L492.35 244.391C492.351 244.747 492.448 245.093 492.63 245.384L495.114 249.311L496.236 237.054L494.962 235.543C494.758 235.318 494.502 235.165 494.223 235.1C493.944 235.036 493.655 235.064 493.39 235.181C493.125 235.298 492.895 235.499 492.729 235.76C492.562 236.021 492.466 236.33 492.452 236.651Z" fill="#E4897B"/>
<path d="M273.49 126.49V474.654H463.188V126.49H273.49ZM446.754 460.699H278.777V140.431H446.728L446.754 460.699Z" fill="#006BFF"/>
<path opacity="0.6" d="M273.49 126.49V474.654H463.188V126.49H273.49ZM446.754 460.699H278.777V140.431H446.728L446.754 460.699Z" fill="white"/>
<path d="M278.777 140.431H277.006V460.699H278.777V140.431Z" fill="white"/>
<path d="M278.777 140.431H277.006V460.699H278.777V140.431Z" fill="#F0F0F0"/>
<path d="M483.075 44.988H140.688C137.735 44.9955 134.905 46.3193 132.812 48.6715C130.72 51.0236 129.535 54.2138 129.515 57.5478V506.061C129.525 509.402 130.706 512.603 132.799 514.965C134.893 517.326 137.729 518.656 140.688 518.664H483.075C486.033 518.656 488.868 517.326 490.959 514.964C493.051 512.602 494.229 509.401 494.235 506.061V57.5478C494.219 54.2151 493.036 51.0249 490.946 48.6724C488.855 46.3198 486.026 44.9955 483.075 44.988ZM278.776 140.431H446.728V460.699H278.776V140.431Z" fill="#006BFF"/>
<path opacity="0.5" d="M483.075 44.988H140.688C137.735 44.9955 134.905 46.3193 132.812 48.6715C130.72 51.0236 129.535 54.2138 129.515 57.5478V506.061C129.525 509.402 130.706 512.603 132.799 514.965C134.893 517.326 137.729 518.656 140.688 518.664H483.075C486.033 518.656 488.868 517.326 490.959 514.964C493.051 512.602 494.229 509.401 494.235 506.061V57.5478C494.219 54.2151 493.036 51.0249 490.946 48.6724C488.855 46.3198 486.026 44.9955 483.075 44.988ZM278.776 140.431H446.728V460.699H278.776V140.431Z" fill="black"/>
<path d="M480.107 44.988H137.72C134.767 44.9955 131.937 46.3193 129.844 48.6715C127.752 51.0236 126.567 54.2138 126.547 57.5478V506.061C126.557 509.402 127.738 512.603 129.831 514.965C131.925 517.326 134.761 518.656 137.72 518.664H480.107C483.064 518.652 485.897 517.321 487.987 514.96C490.078 512.599 491.257 509.4 491.267 506.061V57.5478C491.247 54.2163 490.064 51.0283 487.974 48.6765C485.884 46.3248 483.057 44.9993 480.107 44.988ZM278.815 140.431H446.728V460.699H278.777L278.815 140.431Z" fill="#006BFF"/>
<path opacity="0.2" d="M480.107 44.988H137.72C134.767 44.9955 131.937 46.3193 129.844 48.6715C127.752 51.0236 126.567 54.2138 126.547 57.5478V506.061C126.557 509.402 127.738 512.603 129.831 514.965C131.925 517.326 134.761 518.656 137.72 518.664H480.107C483.064 518.652 485.897 517.321 487.987 514.96C490.078 512.599 491.257 509.4 491.267 506.061V57.5478C491.247 54.2163 490.064 51.0283 487.974 48.6765C485.884 46.3248 483.057 44.9993 480.107 44.988ZM278.815 140.431H446.728V460.699H278.777L278.815 140.431Z" fill="black"/>
<path d="M126.547 77.5888V506.061C126.557 509.402 127.738 512.603 129.831 514.965C131.925 517.326 134.761 518.656 137.72 518.664H480.107C483.064 518.652 485.897 517.321 487.987 514.96C490.078 512.599 491.257 509.4 491.267 506.061V77.5888H126.547ZM278.777 140.431H446.728V460.699H278.777V140.431Z" fill="#006BFF"/>
<path opacity="0.6" d="M126.547 77.5888V506.061C126.557 509.402 127.738 512.603 129.831 514.965C131.925 517.326 134.761 518.656 137.72 518.664H480.107C483.064 518.652 485.897 517.321 487.987 514.96C490.078 512.599 491.257 509.4 491.267 506.061V77.5888H126.547ZM278.777 140.431H446.728V460.699H278.777V140.431Z" fill="white"/>
<path d="M128.674 94.3496V501.903H489.216V94.3496H128.674ZM446.792 460.699H278.777V140.431H446.728L446.792 460.699Z" fill="white"/>
<path opacity="0.76" d="M466.768 68.079C470.047 68.079 472.705 65.0774 472.705 61.3747C472.705 57.672 470.047 54.6704 466.768 54.6704C463.489 54.6704 460.831 57.672 460.831 61.3747C460.831 65.0774 463.489 68.079 466.768 68.079Z" fill="#006BFF"/>
<path opacity="0.76" d="M445.734 68.079C449.013 68.079 451.671 65.0774 451.671 61.3747C451.671 57.672 449.013 54.6704 445.734 54.6704C442.455 54.6704 439.797 57.672 439.797 61.3747C439.797 65.0774 442.455 68.079 445.734 68.079Z" fill="#006BFF"/>
<path opacity="0.76" d="M418.764 61.3747C418.764 62.7007 419.112 63.9969 419.764 65.0994C420.417 66.2019 421.344 67.0613 422.429 67.5687C423.513 68.0761 424.707 68.2089 425.859 67.9502C427.01 67.6915 428.068 67.053 428.898 66.1154C429.729 65.1778 430.294 63.9832 430.523 62.6827C430.752 61.3822 430.635 60.0341 430.185 58.8091C429.736 57.584 428.975 56.537 427.999 55.8003C427.023 55.0636 425.875 54.6704 424.7 54.6704C423.126 54.6704 421.616 55.3767 420.503 56.634C419.389 57.8913 418.764 59.5966 418.764 61.3747Z" fill="#006BFF"/>
<path d="M126.559 78.4232L491.267 78.4232V76.74L126.559 76.74V78.4232Z" fill="#006BFF"/>
<path d="M498.694 126.49H497.42V116.419H498.694V126.49ZM498.694 107.658H497.42V74.8121H498.694V107.658Z" fill="#006BFF"/>
<path opacity="0.4" d="M498.694 126.49H497.42V116.419H498.694V126.49ZM498.694 107.658H497.42V74.8121H498.694V107.658Z" fill="black"/>
<path d="M188.59 229.875H224.504V209.719H188.59V229.875Z" fill="#006BFF"/>
<path opacity="0.6" d="M188.59 229.875H224.504V209.719H188.59V229.875Z" fill="white"/>
<path d="M162.932 362.939H229.384V342.783H162.932V362.939Z" fill="#006BFF"/>
<path opacity="0.6" d="M162.932 362.939H229.384V342.783H162.932V362.939Z" fill="white"/>
<path d="M103.194 130.072L240.62 130.072V109.916L103.194 109.916V130.072Z" fill="#006BFF"/>
<path opacity="0.6" d="M103.194 130.072L240.62 130.072V109.916L103.194 109.916V130.072Z" fill="white"/>
<path d="M103.194 163.335L214.236 163.335V143.179H103.194V163.335Z" fill="#006BFF"/>
<path opacity="0.6" d="M103.194 163.335L214.236 163.335V143.179H103.194V163.335Z" fill="white"/>
<path d="M103.194 196.598L229.384 196.598V176.441L103.194 176.441V196.598Z" fill="#006BFF"/>
<path opacity="0.6" d="M103.194 196.598L229.384 196.598V176.441L103.194 176.441V196.598Z" fill="white"/>
<path d="M103.194 229.875H173.672V209.719H103.194V229.875Z" fill="#006BFF"/>
<path opacity="0.6" d="M103.194 229.875H173.672V209.719H103.194V229.875Z" fill="white"/>
<path d="M103.194 263.137H229.384V242.981L103.194 242.981V263.137Z" fill="#006BFF"/>
<path opacity="0.6" d="M103.194 263.137H229.384V242.981L103.194 242.981V263.137Z" fill="white"/>
<path d="M103.194 296.4H240.62V276.244H103.194V296.4Z" fill="#006BFF"/>
<path opacity="0.6" d="M103.194 296.4H240.62V276.244H103.194V296.4Z" fill="white"/>
<path d="M103.194 329.677H200.069V309.521H103.194V329.677Z" fill="#006BFF"/>
<path opacity="0.6" d="M103.194 329.677H200.069V309.521H103.194V329.677Z" fill="white"/>
<path d="M103.194 362.939H148.026V342.783H103.194V362.939Z" fill="#006BFF"/>
<path opacity="0.6" d="M103.194 362.939H148.026V342.783H103.194V362.939Z" fill="white"/>
<path d="M159.424 431.459C162.205 412.73 151.015 395.001 134.43 391.86C117.846 388.72 102.146 401.356 99.3651 420.085C96.5838 438.813 107.774 456.542 124.358 459.683C140.943 462.824 156.642 450.187 159.424 431.459Z" fill="#006BFF"/>
<path opacity="0.6" d="M159.424 431.459C162.205 412.73 151.015 395.001 134.43 391.86C117.846 388.72 102.146 401.356 99.3651 420.085C96.5838 438.813 107.774 456.542 124.358 459.683C140.943 462.824 156.642 450.187 159.424 431.459Z" fill="white"/>
<path d="M132.496 419.797C125.26 417.293 120.775 408.402 120.775 408.402C120.775 408.402 118.495 408.258 118.38 410.589C118.336 412.161 118.58 413.727 119.098 415.188C119.615 416.649 120.394 417.973 121.387 419.077L117.909 418.861C116.668 418.786 115.425 418.936 114.227 419.307L113.067 419.653C112.112 419.953 111.297 420.662 110.795 421.628C110.294 422.595 110.145 423.744 110.379 424.832L112.112 432.472C112.599 434.778 113.833 436.795 115.57 438.126C117.308 439.457 119.424 440.006 121.501 439.665C125.043 439.075 130.559 438.226 131.515 437.967L134.063 437.737L134.917 420.602L132.496 419.797Z" fill="white"/>
<path d="M143.835 417.423H134.089C133.329 417.423 132.713 418.118 132.713 418.977V438.428C132.713 439.286 133.329 439.982 134.089 439.982H143.835C144.595 439.982 145.211 439.286 145.211 438.428V418.977C145.211 418.118 144.595 417.423 143.835 417.423Z" fill="#006BFF"/>
<path d="M228.127 450.088C240.018 436.66 240.018 414.888 228.127 401.46C216.236 388.032 196.957 388.032 185.066 401.46C173.175 414.888 173.175 436.66 185.066 450.088C196.957 463.516 216.236 463.516 228.127 450.088Z" fill="#006BFF"/>
<path opacity="0.6" d="M228.127 450.088C240.018 436.66 240.018 414.888 228.127 401.46C216.236 388.032 196.957 388.032 185.066 401.46C173.175 414.888 173.175 436.66 185.066 450.088C196.957 463.516 216.236 463.516 228.127 450.088Z" fill="white"/>
<path d="M221.765 413.481C220.769 412.355 219.586 411.463 218.284 410.854C216.982 410.245 215.587 409.931 214.178 409.931C212.769 409.931 211.374 410.245 210.072 410.854C208.77 411.463 207.588 412.355 206.591 413.481C204.579 411.209 201.85 409.932 199.005 409.932C196.159 409.932 193.43 411.209 191.418 413.481C189.406 415.753 188.276 418.835 188.276 422.048C188.276 425.262 189.406 428.343 191.418 430.616L206.591 447.751L221.765 430.616C223.771 428.34 224.898 425.26 224.898 422.048C224.898 418.837 223.771 415.756 221.765 413.481Z" fill="#006BFF"/>
<path d="M264.674 126.49V474.654H459.061V126.49H264.674ZM446.728 460.699H278.777V140.431H446.728V460.699Z" fill="#006BFF"/>
<path opacity="0.8" d="M264.674 126.49V474.654H459.061V126.49H264.674ZM446.728 460.699H278.777V140.431H446.728V460.699Z" fill="white"/>
</svg>
