<svg width="501" height="500" viewBox="0 0 501 500" fill="none" xmlns="http://www.w3.org/2000/svg">
<g clip-path="url(#clip0_25_817)">
<path d="M29.9412 380.686H406.274C413.255 380.679 418.913 375.429 418.921 368.951V84.6178C418.913 78.1396 413.255 72.8898 406.274 72.8823H29.9412C22.9594 72.8898 17.3016 78.1396 17.2935 84.6178V368.951C17.3016 375.429 22.9594 380.679 29.9412 380.686Z" fill="#E6E6E6"/>
<path d="M66.5066 372.77H397.74C404.722 372.763 410.38 367.513 410.388 361.035V92.54C410.38 86.0617 404.722 80.8119 397.74 80.8044H38.4724C31.4905 80.8119 25.8327 86.0617 25.8246 92.54V335.022C25.8499 355.86 44.0491 372.747 66.5066 372.77Z" fill="#006BFF"/>
<path d="M157.529 141.516H308.786C310.587 141.516 312.048 140.161 312.048 138.489C312.048 136.817 310.587 135.462 308.786 135.462H157.529C155.727 135.462 154.267 136.817 154.267 138.489C154.267 140.161 155.727 141.516 157.529 141.516Z" fill="#FED801"/>
<path d="M80.9601 173.808H308.786C310.587 173.808 312.048 172.453 312.048 170.781C312.048 169.109 310.587 167.754 308.786 167.754H80.9601C79.1586 167.754 77.6982 169.109 77.6982 170.781C77.6982 172.453 79.1586 173.808 80.9601 173.808Z" fill="#E6E6E6"/>
<path d="M80.9601 206.1H308.786C310.587 206.1 312.048 204.745 312.048 203.073C312.048 201.402 310.587 200.046 308.786 200.046H80.9601C79.1586 200.046 77.6982 201.402 77.6982 203.073C77.6982 204.745 79.1586 206.1 80.9601 206.1Z" fill="#E6E6E6"/>
<path d="M80.9601 238.392H308.786C310.587 238.392 312.048 237.037 312.048 235.365C312.048 233.694 310.587 232.339 308.786 232.339H80.9601C79.1586 232.339 77.6982 233.694 77.6982 235.365C77.6982 237.037 79.1586 238.392 80.9601 238.392Z" fill="#E6E6E6"/>
<path d="M80.9601 270.684H308.786C310.587 270.684 312.048 269.329 312.048 267.657C312.048 265.986 310.587 264.631 308.786 264.631H80.9601C79.1586 264.631 77.6982 265.986 77.6982 267.657C77.6982 269.329 79.1586 270.684 80.9601 270.684Z" fill="#E6E6E6"/>
<path d="M91.2052 322.143C100.327 322.143 107.722 315.282 107.722 306.818C107.722 298.354 100.327 291.492 91.2052 291.492C82.0833 291.492 74.6886 298.354 74.6886 306.818C74.6887 315.282 82.0834 322.143 91.2052 322.143Z" fill="#FED801"/>
<path d="M81.9134 306.09L86.5958 299.748C87.0276 299.16 87.8915 299.008 88.5253 299.409C89.1591 299.809 89.3228 300.611 88.891 301.199L88.8869 301.205L85.8586 305.306H97.7223C98.6221 305.303 99.3537 305.978 99.3564 306.813C99.3591 307.648 98.6318 308.327 97.732 308.329H85.7096L88.8869 312.632C89.3176 313.221 89.1524 314.023 88.5179 314.422C87.8872 314.819 87.0293 314.671 86.5958 314.089L81.9134 307.747C81.6033 307.232 81.6033 306.605 81.9134 306.09Z" fill="#006BFF"/>
<path d="M1.89322 30.9516H434.319C435.247 30.9332 435.982 30.2208 435.963 29.3604C435.943 28.5259 435.219 27.8536 434.319 27.8358H1.89322C0.965973 27.8542 0.230286 28.5666 0.250153 29.427C0.269379 30.2615 0.993866 30.9337 1.89322 30.9516Z" fill="#CACACA"/>
<path d="M380.204 338.067C377.703 336.126 377.372 332.672 379.464 330.352C379.687 330.105 379.933 329.876 380.2 329.669L383.781 300.957L395.151 303.4L388.832 330.616C390.767 333.071 390.19 336.517 387.544 338.312C385.33 339.814 382.296 339.713 380.204 338.067Z" fill="#FFB6B6"/>
<path d="M381.379 305.639L394.542 313.259C394.542 313.259 395.343 317.725 396.248 306.501C396.343 305.33 395.462 303.289 395.559 302.087C395.668 300.73 399.856 300.113 399.966 298.74C400.044 297.763 398.834 296.894 398.912 295.92C399.03 294.444 399.148 292.976 399.263 291.532C399.36 290.324 400.802 289.558 400.895 288.392C400.989 287.217 399.733 285.641 399.822 284.527C400.485 276.172 398.191 255.153 398.191 254.725C398.368 253.652 398.851 252.642 399.59 251.8L398.887 249.851L399.352 246.192C399.962 241.385 398.873 236.524 396.248 232.34L392.905 230.309L377.48 254.383C383.971 275.215 388.208 283.398 381.379 305.639Z" fill="#FED801"/>
<path d="M391.65 485.139H383.687L379.897 456.64H391.65V485.139Z" fill="#FFB6B6"/>
<path d="M394.248 480.078L381.527 479.374V484.431L369.432 492.182C367.885 493.173 367.496 495.141 368.565 496.576C369.2 497.431 370.248 497.941 371.366 497.941H386.512L389.123 492.938L390.142 497.941H395.852L394.248 480.078Z" fill="#2F2E41"/>
<path d="M346.921 485.139H338.958L335.169 456.64H346.921V485.139Z" fill="#FFB6B6"/>
<path d="M349.52 480.078L336.798 479.374V484.431L324.703 492.182C323.156 493.173 322.768 495.141 323.836 496.576C324.472 497.431 325.519 497.941 326.638 497.941H341.784L344.394 492.938L345.413 497.941H351.124L349.52 480.078Z" fill="#2F2E41"/>
<path d="M395.03 460.563H394.999L393.467 392.693C395.48 389.09 395.416 384.792 393.296 381.242L393.077 380.874L393.645 378.429C394.375 375.287 394.04 372.013 392.686 369.056L391.257 325.831C396.361 295.138 372.037 275.121 372.037 275.121H335.599L327.776 300.06C322.604 346.811 323.543 413.901 331.749 458.039L331.526 458.144C330.644 458.6 330.304 459.618 330.754 460.457C331.133 461.476 332.093 462.093 332.899 461.835L352.143 461.214C353.024 460.758 353.364 459.74 352.914 458.902C352.535 457.882 351.575 457.265 350.769 457.523L349.461 458.137L350.811 455.587C352.467 452.459 352.147 448.741 349.976 445.897L350.213 440.284C352.259 438.061 352.939 435.022 352.016 432.227L350.718 428.296L352.251 391.89L351.941 383.723L352.579 374.457L355.529 332.78L366.694 384.031L378.099 461.079C377.54 461.546 377.296 462.255 377.457 462.936C377.699 463.85 378.592 464.487 379.606 464.468H395.085C396.25 464.467 397.193 463.59 397.192 462.51C397.192 462.334 397.166 462.16 397.116 461.991C396.848 461.133 395.993 460.548 395.03 460.563Z" fill="#2F2E41"/>
<path d="M306.48 326.911C304.423 324.564 304.805 321.115 307.334 319.206C307.604 319.002 307.892 318.821 308.196 318.665L317.592 291.108L328.254 295.511L316.477 321.117C317.874 323.868 316.602 327.149 313.637 328.445C311.156 329.529 308.197 328.895 306.48 326.911Z" fill="#FFB6B6"/>
<path d="M345.14 239.305C345.14 239.305 334.425 274.49 334.91 278.044C335.911 285.374 385.152 307.904 388.813 297.878L388.354 294.582C390.204 291.149 378.917 277.524 378.37 275.742C377.673 273.463 380.825 265.981 380.825 265.981C380.825 265.981 378.647 259.15 378.995 254.922C379.349 250.693 380.4 251.345 384.255 248.737C388.109 246.135 394.42 234.101 394.42 234.101C394.42 234.101 391.616 222.39 391.616 220.111C391.616 217.833 380.097 213.951 378.698 212.653C378.089 211.899 377.577 211.082 377.171 210.219C376.887 209.692 377.067 208.472 376.764 207.868C376.571 207.473 375.894 207.719 375.694 207.312C375.501 206.917 375.669 206.463 375.475 206.074C375.224 205.559 374.618 205.111 374.379 204.626C373.284 202.401 372.349 200.589 372.059 200.589C371.363 200.589 348.918 203.52 348.918 203.52C347.696 205.273 346.288 206.908 344.715 208.4C342.259 210.673 330.766 216.206 330.766 216.206L345.14 239.305Z" fill="#FED801"/>
<path d="M314.833 298.499C316.586 300.125 325.262 307.595 325.617 305.639C325.965 303.689 326.154 303.456 327.56 302.81C328.965 302.158 328.965 301.835 329.313 299.556C329.661 297.278 332.819 294.999 332.465 294.024C332.117 293.049 332.442 294.289 332.442 293.308C332.442 292.333 333.492 288.757 334.898 288.105C336.296 287.453 338.404 286.807 337.347 285.18C336.296 283.553 347.242 234.747 347.242 234.747L337.425 216.858L330.766 216.206C330.766 216.206 328.743 217.28 328.109 226.965C328.076 227.455 327.5 228.355 327.475 228.891C327.455 229.336 327.985 229.41 327.971 229.887C327.968 229.989 327.965 230.092 327.962 230.196C327.948 230.67 326.567 231.02 326.546 231.478C326.509 232.297 325.966 237.518 325.908 238.286C325.842 239.151 325.764 239.984 325.674 240.786C324.705 249.513 324.358 250.251 323.758 253.036C322.829 257.348 318.976 282.53 318.976 282.53C318.976 282.53 316.172 283.176 316.172 285.455C316.172 287.734 313.08 292.314 314.478 294.916C315.884 297.524 313.079 296.872 314.833 298.499Z" fill="#FED801"/>
<path d="M362.554 199.921C353.37 199.921 345.924 193.013 345.924 184.491C345.924 175.969 353.37 169.06 362.554 169.06C371.738 169.06 379.184 175.969 379.184 184.491C379.184 193.013 371.738 199.921 362.554 199.921Z" fill="#FFB8B8"/>
<path d="M398.39 216.919C401.909 215.762 405.428 214.603 408.947 213.441C408.34 212.497 407.568 211.653 406.662 210.945C403.311 208.349 398.686 207.88 394.432 207.004C390.172 206.129 385.547 204.333 383.99 200.555C382.372 196.627 384.718 192.386 386.08 188.382C388.091 182.767 387.847 176.666 385.392 171.205C382.85 165.738 377.708 161.681 371.484 160.233C365.322 158.963 358.358 161.034 354.57 165.713C349.518 164.307 344.13 166.621 342.017 171.105C341.042 173.165 341.193 175.534 342.421 177.473C343.736 179.318 346.547 180.263 348.664 179.237L347.437 176.347C351.233 177.542 353.7 183.91 353.188 187.6C352.682 191.285 350.363 194.512 348.01 197.521C345.657 200.53 343.149 203.57 342.138 207.167C340.682 212.34 342.651 217.995 346.291 222.142C349.931 226.29 355.062 229.105 360.374 231.175C364.351 232.726 368.483 233.908 372.711 234.703C371.956 233.34 371.208 231.976 370.453 230.612L379.412 235.641C381.145 235.798 382.891 235.892 384.637 235.923C389.72 236.004 394.904 235.51 399.556 233.627C404.214 231.738 408.307 228.316 409.992 223.869C410.532 222.43 410.788 220.913 410.747 219.39C406.628 218.564 402.509 217.741 398.39 216.919Z" fill="#2F2E41"/>
<path d="M237.686 499.116H268.529L268.661 498.893C269.056 498.229 269.436 497.526 269.792 496.804C272.969 490.493 274.312 483.275 275.497 476.907L276.389 472.106C276.689 470.493 275.523 468.96 273.784 468.682C272.933 468.546 272.059 468.735 271.361 469.207C266.674 472.372 261.985 475.533 257.294 478.692C255.518 479.891 253.489 481.279 251.547 482.779C251.359 481.934 251.163 481.087 250.967 480.252C250.592 478.651 248.89 477.636 247.165 477.984C246.32 478.154 245.586 478.634 245.13 479.315L241.521 484.695C238.89 488.623 236.567 492.494 237.04 496.67C237.038 496.72 237.042 496.771 237.052 496.821C237.147 497.507 237.322 498.181 237.576 498.831L237.686 499.116Z" fill="#006BFF"/>
<path d="M206.73 499.735L499.812 500C500.423 499.997 500.916 499.535 500.912 498.968C500.909 498.405 500.418 497.949 499.812 497.946L206.73 497.681C206.119 497.684 205.626 498.147 205.629 498.714C205.632 499.276 206.123 499.732 206.73 499.735Z" fill="#CACACA"/>
<path d="M417.376 14.91C413.036 14.91 409.517 11.5722 409.517 7.45498C409.517 3.33771 413.036 0 417.376 0C421.717 0 425.235 3.33771 425.235 7.45498C425.235 11.5722 421.717 14.91 417.376 14.91Z" fill="#006BFF"/>
<path d="M390.226 14.91C385.886 14.91 382.367 11.5722 382.367 7.45498C382.367 3.33771 385.886 0 390.226 0C394.567 0 398.085 3.33771 398.085 7.45498C398.085 11.5722 394.567 14.91 390.226 14.91Z" fill="#006BFF"/>
<path d="M363.076 14.91C358.735 14.91 355.217 11.5722 355.217 7.45498C355.217 3.33771 358.735 0 363.076 0C367.416 0 370.935 3.33771 370.935 7.45498C370.935 11.5722 367.416 14.91 363.076 14.91Z" fill="#006BFF"/>
<path d="M332.117 13.3472C332.359 13.3472 332.6 13.2604 332.782 13.0878L338.085 8.05775C338.438 7.72258 338.438 7.18699 338.085 6.85182L332.782 1.82221C332.422 1.482 331.833 1.47652 331.468 1.80874C331.1 2.14181 331.094 2.68792 331.453 3.02814L336.12 7.45478L331.453 11.8818C331.094 12.2221 331.101 12.7682 331.468 13.1012C331.648 13.2655 331.883 13.3472 332.117 13.3472Z" fill="#006BFF"/>
<path d="M323.206 13.3472C323.441 13.3472 323.676 13.2655 323.856 13.1013C324.223 12.7682 324.23 12.2225 323.871 11.8819L319.204 7.45479L323.871 3.02815C324.23 2.68793 324.223 2.14181 323.856 1.80875C323.49 1.47527 322.901 1.48159 322.542 1.82222L317.239 6.85183C316.886 7.18699 316.886 7.72259 317.239 8.05776L322.542 13.0878C322.724 13.2604 322.965 13.3472 323.206 13.3472Z" fill="#006BFF"/>
<path d="M45.7823 0.863113H55.6428C56.7673 0.863113 57.6781 1.70819 57.6781 2.75163V11.9097C57.6781 12.9531 56.7673 13.7982 55.6428 13.7982H45.7823C44.6577 13.7982 43.7377 12.9531 43.7377 11.9097V2.75163C43.7377 1.70819 44.6577 0.863113 45.7823 0.863113Z" fill="#006BFF"/>
<path d="M69.9457 0.863113H79.8062C80.9308 0.863113 81.8416 1.70819 81.8416 2.75163V11.9097C81.8416 12.9531 80.9308 13.7982 79.8062 13.7982H69.9457C68.8212 13.7982 67.9011 12.9531 67.9011 11.9097V2.75163C67.9011 1.70819 68.8212 0.863113 69.9457 0.863113Z" fill="#006BFF"/>
<path d="M23.0128 1.29428H32.8734C33.9979 1.29428 34.9087 2.13936 34.9087 3.1828V12.3408C34.9087 13.3843 33.9979 14.2294 32.8734 14.2294H23.0128C21.8883 14.2294 20.9682 13.3843 20.9682 12.3408V3.1828C20.9682 2.13936 21.8883 1.29428 23.0128 1.29428Z" fill="#006BFF"/>
<path d="M171.638 4.77811H250.458C251.833 4.77811 252.939 5.81292 252.939 7.08059C252.939 8.34825 251.833 9.38301 250.458 9.38301H171.638C170.272 9.38301 169.157 8.3482 169.157 7.08059C169.157 5.81297 170.272 4.77811 171.638 4.77811Z" fill="#006BFF"/>
</g>
<defs>
<clipPath id="clip0_25_817">
<rect width="500.663" height="500" fill="white" transform="matrix(-1 0 0 1 500.912 0)"/>
</clipPath>
</defs>
</svg>
