<svg width="625" height="480" viewBox="0 0 625 480" fill="none" xmlns="http://www.w3.org/2000/svg">
<path d="M625 421.843H0V422.165H625V421.843Z" fill="#FED801"/>
<path d="M144.162 434.103H113.075V434.425H144.162V434.103Z" fill="#FED801"/>
<path d="M224.787 430.613H190.412V430.935H224.787V430.613Z" fill="#FED801"/>
<path d="M132.225 446.066H59.5874V446.389H132.225V446.066Z" fill="#FED801"/>
<path d="M562.375 443.903H535.375V444.225H562.375V443.903Z" fill="#FED801"/>
<path d="M303.4 433.098H268.487V433.42H303.4V433.098Z" fill="#FED801"/>
<path d="M463.613 438.468H375.838V438.791H463.613V438.468Z" fill="#FED801"/>
<path d="M296.25 364.407H54.8877C52.9969 364.403 51.1846 363.627 49.8488 362.248C48.513 360.87 47.7627 359.001 47.7627 357.053V7.50429C47.7792 5.56747 48.5367 3.71554 49.8707 2.35078C51.2048 0.986014 53.0077 0.218635 54.8877 0.215317H296.25C298.143 0.215317 299.959 0.990045 301.297 2.36907C302.636 3.74809 303.388 5.61845 303.388 7.56868V357.053C303.388 359.004 302.636 360.874 301.297 362.253C299.959 363.632 298.143 364.407 296.25 364.407ZM54.8877 0.472879C53.0798 0.47629 51.347 1.2186 50.0698 2.53688C48.7925 3.85515 48.0752 5.64168 48.0752 7.50429V357.053C48.0752 358.916 48.7925 360.702 50.0698 362.021C51.347 363.339 53.0798 364.081 54.8877 364.085H296.25C298.059 364.081 299.793 363.339 301.073 362.021C302.352 360.704 303.072 358.917 303.075 357.053V7.50429C303.072 5.64049 302.352 3.854 301.073 2.53609C299.793 1.21818 298.059 0.476283 296.25 0.472879H54.8877Z" fill="#FED801"/>
<path d="M566.638 364.407H325.262C323.371 364.403 321.557 363.627 320.219 362.249C318.881 360.871 318.128 359.002 318.125 357.053V7.50429C318.145 5.56629 318.905 3.71438 320.241 2.34997C321.577 0.985564 323.381 0.218598 325.262 0.215317H566.638C568.515 0.222019 570.315 0.990896 571.646 2.3553C572.978 3.7197 573.734 5.56969 573.75 7.50429V357.053C573.75 358.999 573.001 360.866 571.668 362.244C570.335 363.622 568.526 364.4 566.638 364.407ZM325.262 0.472879C323.453 0.476283 321.719 1.21818 320.44 2.53609C319.161 3.854 318.441 5.64049 318.438 7.50429V357.053C318.441 358.917 319.161 360.704 320.44 362.021C321.719 363.339 323.453 364.081 325.262 364.085H566.638C568.447 364.081 570.181 363.339 571.46 362.021C572.739 360.704 573.459 358.917 573.463 357.053V7.50429C573.459 5.64049 572.739 3.854 571.46 2.53609C570.181 1.21818 568.447 0.476283 566.638 0.472879H325.262Z" fill="#FED801"/>
<path d="M401.275 12.604H39.812C33.875 12.604 29.062 17.5625 29.062 23.6791V253.024C29.062 259.141 33.875 264.099 39.812 264.099H401.275C407.212 264.099 412.025 259.141 412.025 253.024V23.6791C412.025 17.5625 407.212 12.604 401.275 12.604Z" fill="#FED801"/>
<path d="M412.025 25.3275H29.062V228.054H412.025V25.3275Z" fill="#FAFAFA"/>
<path d="M289.088 102.132C289.094 99.6239 290.065 97.2203 291.786 95.4467C293.508 93.6731 295.841 92.6737 298.275 92.6669H584.525C586.96 92.6737 589.293 93.6731 591.015 95.4467C592.736 97.2203 593.706 99.6239 593.713 102.132V132.602H289.088V102.132Z" fill="#E6E6E6"/>
<path d="M363.387 119.801C367.225 119.801 370.337 116.595 370.337 112.641C370.337 108.686 367.225 105.481 363.387 105.481C359.549 105.481 356.437 108.686 356.437 112.641C356.437 116.595 359.549 119.801 363.387 119.801Z" fill="white"/>
<path d="M338.763 119.801C342.601 119.801 345.713 116.595 345.713 112.641C345.713 108.686 342.601 105.481 338.763 105.481C334.925 105.481 331.813 108.686 331.813 112.641C331.813 116.595 334.925 119.801 338.763 119.801Z" fill="white"/>
<path d="M314.15 119.801C317.988 119.801 321.1 116.595 321.1 112.641C321.1 108.686 317.988 105.481 314.15 105.481C310.311 105.481 307.2 108.686 307.2 112.641C307.2 116.595 310.311 119.801 314.15 119.801Z" fill="white"/>
<path d="M584.487 296.668H298.237C295.803 296.661 293.47 295.662 291.748 293.888C290.026 292.115 289.056 289.711 289.05 287.203V132.666H593.675V287.203C593.668 289.711 592.698 292.115 590.977 293.888C589.255 295.662 586.922 296.661 584.487 296.668Z" fill="#F5F5F5"/>
<path d="M248.187 154.842C248.194 152.334 249.164 149.93 250.885 148.157C252.607 146.383 254.94 145.384 257.375 145.377H543.625C546.059 145.384 548.392 146.383 550.114 148.157C551.835 149.93 552.805 152.334 552.812 154.842V185.312H248.187V154.842Z" fill="#F0F0F0"/>
<path d="M322.475 172.511C326.313 172.511 329.425 169.305 329.425 165.351C329.425 161.396 326.313 158.19 322.475 158.19C318.637 158.19 315.525 161.396 315.525 165.351C315.525 169.305 318.637 172.511 322.475 172.511Z" fill="#E6E6E6"/>
<path d="M297.85 172.511C301.689 172.511 304.8 169.305 304.8 165.351C304.8 161.396 301.689 158.19 297.85 158.19C294.012 158.19 290.9 161.396 290.9 165.351C290.9 169.305 294.012 172.511 297.85 172.511Z" fill="#E6E6E6"/>
<path d="M273.238 172.511C277.076 172.511 280.188 169.305 280.188 165.351C280.188 161.396 277.076 158.19 273.238 158.19C269.399 158.19 266.288 161.396 266.288 165.351C266.288 169.305 269.399 172.511 273.238 172.511Z" fill="#E6E6E6"/>
<path d="M543.575 349.378H257.325C254.89 349.371 252.557 348.372 250.835 346.598C249.114 344.824 248.144 342.421 248.137 339.913V185.376H552.762V339.913C552.756 342.421 551.786 344.824 550.064 346.598C548.342 348.372 546.009 349.371 543.575 349.378Z" fill="#FAFAFA"/>
<path d="M207.274 207.552C207.281 205.044 208.251 202.64 209.973 200.866C211.694 199.093 214.027 198.093 216.462 198.087H502.712C505.147 198.093 507.48 199.093 509.201 200.866C510.923 202.64 511.893 205.044 511.899 207.552V238.021H207.274V207.552Z" fill="#FAFAFA"/>
<path d="M281.562 225.221C285.401 225.221 288.512 222.015 288.512 218.06C288.512 214.106 285.401 210.9 281.562 210.9C277.724 210.9 274.612 214.106 274.612 218.06C274.612 222.015 277.724 225.221 281.562 225.221Z" fill="#F0F0F0"/>
<path d="M256.937 225.221C260.776 225.221 263.887 222.015 263.887 218.06C263.887 214.106 260.776 210.9 256.937 210.9C253.099 210.9 249.987 214.106 249.987 218.06C249.987 222.015 253.099 225.221 256.937 225.221Z" fill="#F0F0F0"/>
<path d="M232.325 225.221C236.163 225.221 239.275 222.015 239.275 218.06C239.275 214.106 236.163 210.9 232.325 210.9C228.487 210.9 225.375 214.106 225.375 218.06C225.375 222.015 228.487 225.221 232.325 225.221Z" fill="#F0F0F0"/>
<path d="M502.663 402.088H216.413C213.978 402.081 211.645 401.082 209.923 399.308C208.202 397.534 207.232 395.131 207.225 392.622V238.086H511.85V392.622C511.844 395.131 510.873 397.534 509.152 399.308C507.43 401.082 505.097 402.081 502.663 402.088Z" fill="#E6E6E6"/>
<path d="M312.5 480C446.353 480 554.862 473.473 554.862 465.422C554.862 457.371 446.353 450.844 312.5 450.844C178.647 450.844 70.1372 457.371 70.1372 465.422C70.1372 473.473 178.647 480 312.5 480Z" fill="#F5F5F5"/>
<path d="M238.95 35.6299H227.913V36.9177H238.95V35.6299Z" fill="#006BFF"/>
<path d="M214.8 35.6299H187.712V36.9177H214.8V35.6299Z" fill="#006BFF"/>
<path d="M112.913 40.1373H512.088C516.066 40.1373 519.881 41.7654 522.694 44.6635C525.507 47.5617 527.088 51.4924 527.088 55.5909V410.665H97.9126V55.5909C97.9126 51.4924 99.4929 47.5617 102.306 44.6635C105.119 41.7654 108.934 40.1373 112.913 40.1373Z" fill="#006BFF"/>
<path opacity="0.8" d="M527.075 63.3178H97.9126V404.663H527.075V63.3178Z" fill="white"/>
<path opacity="0.4" d="M527.075 63.3178H97.9126V138.358H527.075V63.3178Z" fill="#006BFF"/>
<path opacity="0.4" d="M518.224 70.4908H500.312V88.9451H518.224V70.4908Z" fill="#006BFF"/>
<path opacity="0.4" d="M491.65 70.4908H473.737V88.9451H491.65V70.4908Z" fill="#006BFF"/>
<path opacity="0.4" d="M465.075 70.4908H447.162V88.9451H465.075V70.4908Z" fill="#006BFF"/>
<path opacity="0.4" d="M179.113 392.352H161.2V394.206H179.113V392.352Z" fill="#006BFF"/>
<path opacity="0.4" d="M152.538 392.352H134.625V394.206H152.538V392.352Z" fill="#006BFF"/>
<path opacity="0.4" d="M125.963 392.352H108.05V394.206H125.963V392.352Z" fill="#006BFF"/>
<path d="M269.612 106.073H264.15L263.387 108.726H258.475L264.325 92.6669H269.587L275.437 108.726H270.437L269.612 106.073ZM268.612 102.609L266.9 96.8007L265.187 102.583L268.612 102.609Z" fill="white"/>
<path d="M276.7 92.6669H281.075V98.2302C281.484 97.778 281.982 97.4221 282.537 97.1871C283.117 96.9455 283.737 96.823 284.362 96.8265C285.005 96.8112 285.643 96.9404 286.232 97.205C286.822 97.4697 287.348 97.8635 287.775 98.359C288.746 99.5952 289.228 101.164 289.125 102.75C289.148 103.898 288.94 105.038 288.512 106.099C288.161 106.982 287.566 107.739 286.8 108.275C286.08 108.749 285.241 108.995 284.387 108.983C283.662 108.992 282.946 108.819 282.3 108.481C281.692 108.1 281.164 107.596 280.75 107V108.726H276.7V92.6669ZM281.037 102.879C280.977 103.648 281.17 104.415 281.587 105.056C281.754 105.268 281.966 105.439 282.206 105.555C282.446 105.671 282.709 105.729 282.975 105.725C283.219 105.719 283.458 105.656 283.675 105.54C283.892 105.424 284.08 105.258 284.225 105.056C284.634 104.393 284.818 103.61 284.75 102.828C284.802 102.114 284.621 101.402 284.237 100.806C284.09 100.607 283.901 100.446 283.685 100.334C283.468 100.223 283.229 100.164 282.987 100.162C282.714 100.152 282.442 100.207 282.192 100.323C281.943 100.439 281.723 100.613 281.55 100.832C281.15 101.43 280.968 102.156 281.037 102.879Z" fill="white"/>
<path d="M290.663 102.944C290.64 102.126 290.784 101.313 291.086 100.557C291.387 99.8002 291.839 99.1173 292.413 98.5521C293.048 97.9547 293.791 97.4924 294.6 97.1919C295.408 96.8913 296.267 96.7584 297.125 96.8007C298.07 96.7323 299.018 96.8791 299.902 97.2308C300.786 97.5824 301.583 98.1303 302.238 98.8354C303.198 100.033 303.695 101.553 303.635 103.104C303.575 104.656 302.962 106.13 301.913 107.245C301.264 107.841 300.507 108.3 299.685 108.593C298.864 108.887 297.994 109.011 297.125 108.958C295.543 109.031 293.986 108.53 292.725 107.541C292.062 106.989 291.531 106.288 291.173 105.49C290.815 104.693 290.641 103.822 290.663 102.944ZM295 102.944C294.941 103.762 295.158 104.576 295.613 105.249C295.803 105.477 296.039 105.661 296.304 105.786C296.57 105.912 296.858 105.977 297.15 105.977C297.443 105.977 297.731 105.912 297.997 105.786C298.262 105.661 298.498 105.477 298.688 105.249C299.145 104.558 299.357 103.725 299.288 102.892C299.362 102.108 299.172 101.321 298.75 100.664C298.57 100.433 298.342 100.248 298.082 100.121C297.822 99.9935 297.538 99.9284 297.25 99.93C296.952 99.922 296.655 99.9852 296.384 100.115C296.113 100.244 295.875 100.437 295.688 100.677C295.21 101.322 294.966 102.12 295 102.931V102.944Z" fill="white"/>
<path d="M317.612 108.726H313.575V106.846C313.085 107.521 312.464 108.082 311.75 108.494C311.046 108.846 310.269 109.014 309.487 108.983C308.972 109.014 308.457 108.932 307.974 108.743C307.492 108.555 307.053 108.263 306.687 107.889C305.941 106.935 305.579 105.723 305.675 104.502V97.0969H310V103.536C309.948 104.086 310.085 104.638 310.387 105.094C310.528 105.252 310.701 105.375 310.893 105.455C311.085 105.535 311.293 105.57 311.5 105.558C311.74 105.561 311.978 105.507 312.195 105.399C312.412 105.292 312.602 105.135 312.75 104.94C313.152 104.284 313.328 103.509 313.25 102.737V97.1484H317.575L317.612 108.726Z" fill="white"/>
<path d="M325.463 92.6669V97.0969H327.838V100.355H325.463V104.528C325.432 104.865 325.479 105.204 325.6 105.519C325.679 105.644 325.789 105.744 325.919 105.808C326.05 105.871 326.195 105.896 326.338 105.88C326.795 105.855 327.246 105.759 327.675 105.596L328 108.674C327.016 108.906 326.01 109.027 325 109.035C324.187 109.088 323.374 108.942 322.625 108.61C322.113 108.33 321.71 107.874 321.488 107.322C321.194 106.414 321.071 105.457 321.125 104.502V100.407H319.525V97.1484H321.125V95.0107L325.463 92.6669Z" fill="white"/>
<path d="M347.587 92.6668H352.387V102.235C352.395 103.151 352.251 104.061 351.962 104.927C351.679 105.756 351.218 106.509 350.612 107.129C350.065 107.692 349.409 108.131 348.687 108.417C347.6 108.791 346.458 108.969 345.312 108.945C344.476 108.943 343.641 108.887 342.812 108.777C342.035 108.705 341.276 108.487 340.575 108.133C339.936 107.788 339.371 107.315 338.912 106.743C338.448 106.21 338.099 105.582 337.887 104.901C337.615 104.022 337.467 103.106 337.45 102.184V92.6153H342.25V102.416C342.229 102.788 342.281 103.16 342.401 103.512C342.521 103.863 342.708 104.186 342.95 104.463C343.212 104.716 343.52 104.911 343.858 105.038C344.195 105.164 344.554 105.218 344.912 105.197C345.268 105.222 345.625 105.171 345.96 105.046C346.296 104.922 346.603 104.728 346.862 104.476C347.11 104.2 347.301 103.875 347.423 103.521C347.546 103.167 347.597 102.791 347.575 102.416L347.587 92.6668Z" fill="white"/>
<path d="M354.525 105.493L358.825 105.081C358.946 105.527 359.205 105.92 359.562 106.202C359.936 106.444 360.371 106.565 360.812 106.549C361.292 106.583 361.768 106.446 362.162 106.163C362.277 106.086 362.371 105.981 362.437 105.858C362.502 105.734 362.537 105.596 362.537 105.455C362.535 105.295 362.488 105.139 362.401 105.007C362.315 104.874 362.193 104.77 362.05 104.708C361.446 104.487 360.822 104.332 360.187 104.244C359.127 104.086 358.082 103.836 357.062 103.497C356.474 103.263 355.962 102.861 355.587 102.338C355.181 101.802 354.965 101.138 354.975 100.458C354.964 99.7436 355.194 99.0474 355.625 98.4877C356.094 97.8971 356.713 97.4515 357.412 97.1999C358.401 96.8943 359.431 96.7552 360.462 96.7878C361.468 96.7514 362.473 96.8598 363.45 97.1098C364.053 97.302 364.602 97.6422 365.05 98.1014C365.525 98.6192 365.892 99.2332 366.125 99.9043L362.012 100.316C361.939 99.9858 361.753 99.6933 361.487 99.4922C361.115 99.2483 360.679 99.127 360.237 99.1445C359.864 99.1135 359.491 99.2084 359.175 99.4149C359.072 99.4888 358.988 99.587 358.929 99.7012C358.87 99.8154 358.839 99.9425 358.837 100.072C358.838 100.21 358.878 100.346 358.954 100.461C359.03 100.575 359.137 100.664 359.262 100.716C359.86 100.928 360.482 101.058 361.112 101.102C362.209 101.188 363.29 101.426 364.325 101.81C364.973 102.068 365.534 102.515 365.937 103.098C366.298 103.635 366.49 104.274 366.487 104.927C366.478 105.624 366.274 106.303 365.9 106.884C365.44 107.571 364.792 108.1 364.037 108.404C362.93 108.82 361.753 109.008 360.575 108.958C359.055 109.084 357.532 108.771 356.175 108.056C355.323 107.455 354.731 106.536 354.525 105.493Z" fill="white"/>
<path d="M186.476 283.687C220.993 283.687 248.976 254.858 248.976 219.297C248.976 183.735 220.993 154.906 186.476 154.906C151.958 154.906 123.976 183.735 123.976 219.297C123.976 254.858 151.958 283.687 186.476 283.687Z" fill="#006BFF"/>
<path d="M228.344 262.43C251.468 238.606 251.468 199.981 228.345 176.158C205.221 152.335 167.729 152.335 144.605 176.158C121.481 199.981 121.481 238.606 144.605 262.43C167.729 286.253 205.221 286.253 228.344 262.43Z" fill="white"/>
<mask id="mask0_30_2173" style="mask-type:luminance" maskUnits="userSpaceOnUse" x="127" y="158" width="119" height="123">
<path d="M228.344 262.43C251.468 238.606 251.468 199.981 228.345 176.158C205.221 152.335 167.729 152.335 144.605 176.158C121.481 199.981 121.481 238.606 144.605 262.43C167.729 286.253 205.221 286.253 228.344 262.43Z" fill="white"/>
</mask>
<g mask="url(#mask0_30_2173)">
<path d="M189.5 232.02L194.5 221.306C194.5 221.306 220.6 229.805 224.5 231.776C224.4 225.053 227.725 212.458 228.088 205.556C229.075 204.59 231.463 202.156 232.7 202.246C236.45 211.261 235.638 242.168 228.263 242.722C216.475 243.495 189.5 232.02 189.5 232.02Z" fill="#B55B52"/>
<path d="M186.25 230.346C189.262 237.622 214 244.1 214 244.1L219 228.44C219 228.44 209.575 221.074 199.787 218.691C189.775 216.232 182.925 222.362 186.25 230.346Z" fill="#006BFF"/>
<path opacity="0.2" d="M186.688 231.196C189.625 235.768 200.55 239.914 207.663 242.22C202.925 232.741 196.538 227.513 186.688 231.196Z" fill="black"/>
<path d="M228.063 206.921L224.075 201.654L231.45 197.417C232.902 199.678 233.648 202.343 233.588 205.054L228.063 206.921Z" fill="#B55B52"/>
<path d="M222.988 194.365L230.175 193.167L231.45 197.417L224.075 201.654L222.988 194.365Z" fill="#B55B52"/>
<path d="M200.388 219.219C200.388 219.219 210.463 244.203 202.563 290.757H163.188C162.725 283.957 166.088 250.835 158.963 218.794C163.697 217.844 168.486 217.216 173.3 216.914C179.383 216.553 185.48 216.553 191.563 216.914C197.938 217.52 200.388 219.219 200.388 219.219Z" fill="#006BFF"/>
<path opacity="0.2" d="M168.475 226.689C169.325 231.969 168.013 244.576 163.475 259.141C163.25 246.661 161.962 234.224 159.625 221.975C162.5 221.615 167.675 221.718 168.475 226.689Z" fill="black"/>
<path d="M175.262 199.323C176.512 205.376 177.312 212.883 173.3 216.914C173.3 216.914 175.8 223.057 186.725 223.057C196.725 223.057 191.562 216.914 191.562 216.914C184.975 215.305 185.112 206.96 186.15 202.246L175.262 199.323Z" fill="#B55B52"/>
<path d="M187.237 222.568L189.612 225.272C189.693 225.365 189.749 225.478 189.775 225.6C189.801 225.722 189.797 225.848 189.762 225.968L189 228.35C188.957 228.481 188.877 228.595 188.77 228.678C188.663 228.76 188.534 228.808 188.4 228.814L185.9 228.942C185.779 228.95 185.659 228.924 185.551 228.868C185.443 228.811 185.352 228.726 185.287 228.62L183.75 226.315C183.66 226.191 183.611 226.039 183.611 225.884C183.611 225.728 183.66 225.577 183.75 225.452L186.25 222.568C186.381 222.433 186.559 222.358 186.744 222.358C186.929 222.358 187.106 222.433 187.237 222.568Z" fill="white"/>
<path d="M186.725 221.975C185.513 224.067 184.841 226.443 184.775 228.878C184.775 228.878 171.025 223.907 171.437 216.618C171.437 216.618 173.35 215.433 174.562 214.467C174.562 214.467 175.137 219.065 186.725 221.975Z" fill="#263238"/>
<path d="M186.725 221.975C188.023 223.935 188.975 226.114 189.538 228.414C189.538 228.414 195.638 224.087 193.6 216.889C192.455 216.416 191.276 216.033 190.075 215.742C190.075 215.742 191 220.43 186.725 221.975Z" fill="#263238"/>
<path d="M187.837 228.44C187.837 228.44 191.749 258.06 191.837 263.211C191.784 268.087 191.038 272.929 189.624 277.583C189.624 277.583 186.937 272.341 186.474 262.992C186.012 253.642 186.575 233.682 186.375 228.427L187.837 228.44Z" fill="white"/>
<path opacity="0.2" d="M186.15 202.259C185.345 205.535 185.44 208.977 186.425 212.201C185.408 212.039 184.418 211.727 183.487 211.274C179.737 209.471 177.85 206.65 175.862 202.465C175.687 201.383 175.487 200.34 175.275 199.323L186.15 202.259Z" fill="black"/>
<path d="M196.512 198.009C196.068 198.913 195.451 199.714 194.7 200.367C193.948 201.02 193.077 201.51 192.137 201.808C189.637 202.568 188.275 200.211 188.9 197.7C189.475 195.434 191.4 192.317 194.025 192.639C194.588 192.727 195.122 192.955 195.58 193.305C196.038 193.655 196.406 194.114 196.651 194.644C196.897 195.174 197.013 195.758 196.988 196.345C196.964 196.931 196.801 197.503 196.512 198.009Z" fill="#B55B52"/>
<path opacity="0.2" d="M196.512 198.009C196.068 198.913 195.451 199.714 194.7 200.367C193.948 201.02 193.077 201.51 192.137 201.808C189.637 202.568 188.275 200.211 188.9 197.7C189.475 195.434 191.4 192.317 194.025 192.639C194.588 192.727 195.122 192.955 195.58 193.305C196.038 193.655 196.406 194.114 196.651 194.644C196.897 195.174 197.013 195.758 196.988 196.345C196.964 196.931 196.801 197.503 196.512 198.009Z" fill="black"/>
<path d="M189.262 192.768C191.762 195.125 196.325 182.195 191.212 178.602C186.1 175.009 184.312 179.89 184.4 182.865C184.487 185.84 185.487 189.278 189.262 192.768Z" fill="#263238"/>
<path d="M172.188 190.592C173.363 198.782 173.65 203.637 177.988 207.591C184.5 213.527 193.913 209.072 195.1 200.727C196.175 193.206 194.075 181.062 186.088 178.319C184.339 177.706 182.465 177.574 180.651 177.934C178.837 178.294 177.145 179.135 175.743 180.374C174.34 181.612 173.274 183.206 172.651 184.997C172.028 186.789 171.868 188.717 172.188 190.592Z" fill="#B55B52"/>
<path d="M171.688 197.546C173.063 198.46 174.95 200.933 177.788 196.554C177.788 195.421 175 193.515 174.788 190.836C174.538 187.72 173.875 184.397 171.425 183.303C165.838 180.727 164.813 185.672 165.363 188.634C165.913 191.596 167.425 194.674 171.688 197.546Z" fill="#263238"/>
<path d="M170.937 186.187C184.125 184.075 191.912 183.612 195.875 178.525C199.837 173.438 193.75 167.141 187.125 166.419C186.65 169.072 179.937 176.052 169.625 179.079C169.051 179.241 168.534 179.571 168.137 180.028C167.74 180.485 167.479 181.05 167.385 181.656C167.292 182.262 167.369 182.882 167.609 183.444C167.849 184.005 168.24 184.484 168.737 184.822C170 185.659 170.937 186.187 170.937 186.187Z" fill="#263238"/>
<path d="M169.4 199.915C170.602 201.597 172.399 202.721 174.4 203.045C177.013 203.457 177.95 200.945 176.9 198.55C175.963 196.387 173.475 193.579 171 194.262C168.525 194.944 167.938 197.842 169.4 199.915Z" fill="#B55B52"/>
<path d="M184.324 192.098C184.324 192.768 184.774 193.296 185.187 193.257C185.599 193.219 185.899 192.665 185.849 191.969C185.799 191.274 185.412 190.785 184.987 190.81C184.562 190.836 184.274 191.377 184.324 192.098Z" fill="#263238"/>
<path d="M191.575 191.545C191.638 192.214 192.025 192.729 192.438 192.704C192.85 192.678 193.15 192.111 193.1 191.416C193.05 190.72 192.65 190.218 192.238 190.257C191.825 190.295 191.525 190.875 191.575 191.545Z" fill="#263238"/>
<path d="M189.3 192.098C190.238 194.095 191.432 195.953 192.85 197.623C192.438 197.98 191.954 198.238 191.432 198.379C190.911 198.519 190.366 198.538 189.837 198.434L189.3 192.098Z" fill="#A02724"/>
<path d="M188.125 200.353C188.149 200.352 188.173 200.345 188.194 200.334C188.216 200.322 188.235 200.306 188.25 200.287C188.265 200.267 188.277 200.245 188.283 200.221C188.289 200.197 188.291 200.172 188.288 200.147C188.286 200.122 188.279 200.097 188.269 200.074C188.258 200.051 188.242 200.031 188.224 200.014C188.205 199.997 188.184 199.985 188.16 199.976C188.137 199.968 188.112 199.965 188.087 199.967C187.283 200.037 186.474 199.911 185.725 199.6C184.976 199.289 184.308 198.802 183.775 198.177C183.76 198.156 183.742 198.139 183.721 198.126C183.699 198.113 183.676 198.105 183.652 198.101C183.627 198.098 183.602 198.099 183.578 198.105C183.555 198.112 183.532 198.123 183.512 198.138C183.493 198.153 183.476 198.172 183.464 198.194C183.451 198.216 183.443 198.24 183.439 198.265C183.436 198.29 183.437 198.316 183.443 198.341C183.449 198.365 183.46 198.388 183.475 198.409C184.042 199.093 184.761 199.627 185.57 199.965C186.379 200.303 187.255 200.437 188.125 200.353Z" fill="#263238"/>
<path d="M181.937 189.754C181.995 189.753 182.051 189.737 182.102 189.708C182.152 189.679 182.194 189.637 182.225 189.587C182.463 189.166 182.797 188.81 183.197 188.549C183.598 188.289 184.053 188.133 184.525 188.093C184.575 188.095 184.624 188.086 184.671 188.067C184.717 188.049 184.759 188.02 184.794 187.984C184.829 187.948 184.857 187.905 184.875 187.857C184.893 187.809 184.902 187.758 184.9 187.707C184.9 187.601 184.859 187.499 184.786 187.425C184.714 187.35 184.615 187.308 184.512 187.308C183.916 187.343 183.336 187.53 182.826 187.851C182.316 188.172 181.891 188.618 181.587 189.149C181.56 189.193 181.542 189.242 181.534 189.293C181.525 189.344 181.527 189.397 181.539 189.447C181.55 189.497 181.572 189.545 181.601 189.587C181.631 189.629 181.669 189.664 181.712 189.69C181.744 189.716 181.78 189.735 181.819 189.746C181.857 189.757 181.898 189.76 181.937 189.754Z" fill="#263238"/>
<path d="M194.613 188.634L194.763 188.57C194.806 188.541 194.843 188.504 194.871 188.46C194.9 188.416 194.919 188.367 194.929 188.315C194.938 188.263 194.937 188.21 194.926 188.158C194.914 188.107 194.893 188.058 194.863 188.016C194.539 187.488 194.098 187.047 193.576 186.729C193.055 186.411 192.467 186.225 191.863 186.187C191.812 186.187 191.762 186.198 191.716 186.218C191.67 186.238 191.628 186.268 191.593 186.305C191.558 186.342 191.53 186.386 191.512 186.435C191.494 186.483 191.486 186.535 191.488 186.586C191.491 186.69 191.533 186.788 191.605 186.86C191.678 186.933 191.774 186.973 191.875 186.973C192.354 187.009 192.819 187.163 193.229 187.42C193.64 187.678 193.986 188.032 194.238 188.454C194.28 188.514 194.337 188.563 194.402 188.594C194.468 188.626 194.54 188.639 194.613 188.634Z" fill="#263238"/>
<path d="M154.438 229.779L164.563 235.909C164.563 235.909 151.788 261.666 153.175 265.683C155.063 271.092 157.925 282.979 161.275 288.864C160.95 290.152 159.075 293.281 157.975 293.861C149.925 288.297 141.113 270.075 141.138 264.872C141.25 253.063 154.438 229.779 154.438 229.779Z" fill="#B55B52"/>
<path d="M158.962 218.794C151.387 219.928 143.325 247.126 143.325 247.126L161.25 253.011C164.445 246.836 167.214 240.437 169.537 233.862C172.862 223.817 167.087 217.571 158.962 218.794Z" fill="#006BFF"/>
</g>
<path d="M438.525 392.275C473.043 392.275 501.025 363.446 501.025 327.884C501.025 292.323 473.043 263.494 438.525 263.494C404.007 263.494 376.025 292.323 376.025 327.884C376.025 363.446 404.007 392.275 438.525 392.275Z" fill="#006BFF"/>
<path d="M438.525 388.888C471.227 388.888 497.737 361.576 497.737 327.884C497.737 294.193 471.227 266.881 438.525 266.881C405.823 266.881 379.312 294.193 379.312 327.884C379.312 361.576 405.823 388.888 438.525 388.888Z" fill="white"/>
<mask id="mask1_30_2173" style="mask-type:luminance" maskUnits="userSpaceOnUse" x="379" y="266" width="119" height="123">
<path d="M438.525 388.888C471.227 388.888 497.737 361.576 497.737 327.884C497.737 294.193 471.227 266.881 438.525 266.881C405.823 266.881 379.312 294.193 379.312 327.884C379.312 361.576 405.823 388.888 438.525 388.888Z" fill="white"/>
</mask>
<g mask="url(#mask1_30_2173)">
<path d="M435.8 281.524C426.912 280.699 421.375 294.788 423.225 316.294C434.475 322.875 447.362 316.294 457.675 321.587C467.212 306.558 464.675 272.663 435.8 281.524Z" fill="#263238"/>
<path d="M421.925 343.776C420.648 348.662 418.85 353.387 416.563 357.865C415.332 360.315 413.793 362.588 411.988 364.626C411.459 365.211 410.886 365.754 410.275 366.248C409.317 367.1 408.171 367.697 406.938 367.987C405.988 368.187 405.005 368.143 404.075 367.858C403.249 367.599 402.486 367.159 401.838 366.57C401.022 365.814 400.36 364.899 399.888 363.879C399.27 362.51 398.813 361.07 398.525 359.59C398.256 358.315 398.055 357.025 397.925 355.727C397.65 353.151 397.525 350.756 397.488 348.309C397.419 343.471 397.632 338.633 398.125 333.821L402.725 333.911C403.125 338.547 403.588 343.235 404.175 347.794C404.488 350.073 404.838 352.34 405.288 354.503C405.513 355.572 405.775 356.628 406.05 357.594C406.275 358.43 406.599 359.234 407.013 359.989C407.15 360.221 407.325 360.35 407.113 360.105C406.897 359.914 406.646 359.769 406.375 359.68C405.999 359.561 405.601 359.534 405.213 359.603C404.65 359.706 404.613 359.874 404.838 359.603C405.101 359.327 405.347 359.035 405.575 358.727C406.715 357.123 407.683 355.396 408.463 353.576C409.374 351.591 410.183 349.558 410.888 347.485C411.638 345.411 412.338 343.184 412.95 341.175L421.925 343.776Z" fill="#FFB573"/>
<path d="M415.75 331.374C412 332.366 409.375 348.258 409.375 348.258L423.713 358.302C423.713 358.302 429.613 339.462 426.725 335.212C423.838 330.962 421.25 329.893 415.75 331.374Z" fill="#263238"/>
<path opacity="0.2" d="M416.087 334.929L413.2 350.949L419.012 355.006L416.087 334.929Z" fill="black"/>
<path d="M402.925 335.238L404.825 325.36L397.2 327.64C397.2 327.64 396.45 334.478 399.525 336.732L402.925 335.238Z" fill="#FFB573"/>
<path d="M404.063 321.02L397.763 323.712L397.2 327.64L404.825 325.36L404.063 321.02Z" fill="#FFB573"/>
<path d="M415.75 331.374C415.75 331.374 411.412 332.958 420.1 387.948H457.037C456.425 372.494 456.4 362.9 463.587 331.104C458.414 330.009 453.172 329.299 447.9 328.979C442.315 328.567 436.709 328.567 431.125 328.979C423.925 329.662 415.75 331.374 415.75 331.374Z" fill="#263238"/>
<path opacity="0.2" d="M460.55 343.699C457.2 344.549 454.1 348.322 454.475 355.289C454.684 358.441 455.754 361.468 457.562 364.02C458.15 358.689 459.137 352.494 460.712 344.587L460.55 343.699Z" fill="black"/>
<path d="M433.075 341.175C433.075 341.175 439.125 346.326 439.125 351.773C444.125 347.974 450.938 337.607 451.625 331.027C451.649 330.76 451.62 330.491 451.541 330.236C451.461 329.981 451.332 329.745 451.161 329.543C450.991 329.341 450.782 329.177 450.548 329.06C450.314 328.943 450.06 328.876 449.8 328.863C449.347 328.832 448.896 328.772 448.45 328.683C448.262 328.642 448.067 328.646 447.881 328.695C447.694 328.744 447.521 328.837 447.375 328.966L433.075 341.175Z" fill="#FAFAFA"/>
<path d="M433.075 341.175C431.426 342.432 430.04 344.019 428.998 345.839C427.957 347.66 427.281 349.678 427.012 351.773C421.912 347.91 424.025 336.023 426.862 330.409C427.085 329.97 427.409 329.596 427.806 329.317C428.203 329.039 428.66 328.865 429.137 328.812C429.875 328.722 430.45 328.619 430.825 328.541C430.892 328.526 430.962 328.526 431.03 328.541C431.097 328.555 431.161 328.584 431.218 328.625C431.274 328.666 431.322 328.719 431.357 328.78C431.393 328.841 431.416 328.909 431.425 328.979L433.075 341.175Z" fill="#FAFAFA"/>
<path d="M446.249 309.52C445.199 315.084 444.137 325.27 447.912 328.979C443.818 334.032 438.776 338.181 433.087 341.175C425.587 335.006 431.137 328.979 431.137 328.979C437.162 327.498 436.999 322.901 435.949 318.574L446.249 309.52Z" fill="#FFB573"/>
<path opacity="0.2" d="M442.037 313.216L435.95 318.574C436.204 319.579 436.376 320.604 436.462 321.639C438.762 321.304 442.375 319.282 442.875 316.706C442.882 315.489 442.594 314.29 442.037 313.216Z" fill="black"/>
<path d="M455.288 300.583C452.788 309.52 451.925 313.358 446.475 317.003C438.288 322.463 428.175 317.35 428.025 307.82C427.888 299.244 432 286.069 441.388 284.434C443.456 284.064 445.582 284.244 447.563 284.958C449.545 285.673 451.316 286.897 452.709 288.515C454.101 290.133 455.07 292.092 455.521 294.204C455.972 296.316 455.892 298.512 455.288 300.583Z" fill="#FFB573"/>
<path d="M448.625 292.251C450.15 301.175 450.738 304.627 453.8 306.932C456.863 309.237 459.712 298.651 457.45 294.582C455.187 290.512 448.625 292.251 448.625 292.251Z" fill="#263238"/>
<path d="M434.225 283.88C432.388 286.121 436.163 290.809 439.825 292.341C439.6 291.849 439.436 291.33 439.338 290.796C441.982 292.658 444.955 293.971 448.088 294.659C447.735 294.198 447.498 293.654 447.4 293.075C447.4 292.637 456.425 298.793 457.738 294.363C459.05 289.933 454.575 284.138 447.738 282.283C441.913 280.777 436.488 281.111 434.225 283.88Z" fill="#263238"/>
<path d="M440.737 299.785C440.587 300.519 440.075 301.072 439.6 300.918C439.125 300.763 438.887 300.132 439.05 299.385C439.212 298.638 439.712 298.098 440.187 298.252C440.662 298.407 440.9 298.986 440.737 299.785Z" fill="#263238"/>
<path d="M432.649 297.93C432.487 298.664 431.974 299.218 431.512 299.063C431.049 298.909 430.787 298.278 430.949 297.531C431.112 296.784 431.612 296.243 432.087 296.398C432.562 296.552 432.799 297.183 432.649 297.93Z" fill="#263238"/>
<path d="M432.287 296.488L430.675 295.573C430.675 295.573 431.25 297.157 432.287 296.488Z" fill="#263238"/>
<path d="M434.85 299.823C433.851 301.358 432.652 302.745 431.288 303.944C431.599 304.306 431.986 304.59 432.418 304.778C432.851 304.965 433.319 305.05 433.788 305.026L434.85 299.823Z" fill="#ED893E"/>
<path d="M437.012 308.812C436.651 308.783 436.292 308.732 435.937 308.658C435.882 308.642 435.834 308.606 435.804 308.556C435.774 308.505 435.763 308.445 435.775 308.387C435.78 308.358 435.792 308.33 435.809 308.306C435.825 308.282 435.846 308.261 435.871 308.245C435.895 308.23 435.923 308.219 435.951 308.215C435.98 308.21 436.009 308.212 436.037 308.22C436.923 308.442 437.847 308.447 438.735 308.235C439.623 308.022 440.45 307.598 441.15 306.996C441.192 306.955 441.248 306.931 441.306 306.931C441.364 306.931 441.42 306.955 441.462 306.996C441.499 307.039 441.519 307.094 441.519 307.151C441.519 307.208 441.499 307.263 441.462 307.305C440.854 307.847 440.147 308.259 439.383 308.517C438.62 308.776 437.814 308.876 437.012 308.812Z" fill="#263238"/>
<path d="M455.862 309.507C454.882 310.991 453.372 312.014 451.662 312.354C449.387 312.791 448.449 310.641 449.262 308.49C449.987 306.597 452.037 304.099 454.262 304.627C454.746 304.749 455.193 304.995 455.56 305.343C455.927 305.69 456.204 306.128 456.363 306.614C456.523 307.101 456.56 307.621 456.473 308.127C456.385 308.633 456.175 309.108 455.862 309.507Z" fill="#FFB573"/>
<path d="M444.712 298.162C444.622 298.152 444.537 298.111 444.472 298.045C444.406 297.98 444.363 297.894 444.35 297.801C444.135 297.111 443.785 296.473 443.32 295.928C442.856 295.383 442.287 294.942 441.65 294.633C441.59 294.615 441.535 294.583 441.488 294.54C441.441 294.498 441.404 294.445 441.378 294.387C441.353 294.328 441.34 294.264 441.34 294.2C441.34 294.136 441.354 294.072 441.38 294.014C441.406 293.955 441.444 293.903 441.491 293.861C441.539 293.819 441.594 293.788 441.654 293.77C441.714 293.752 441.777 293.747 441.839 293.756C441.901 293.765 441.96 293.787 442.012 293.822C442.779 294.195 443.459 294.732 444.007 295.399C444.555 296.065 444.957 296.845 445.187 297.685C445.206 297.8 445.181 297.917 445.119 298.013C445.056 298.108 444.96 298.176 444.85 298.201L444.712 298.162Z" fill="#263238"/>
<path d="M431.05 292.019C430.974 292.021 430.898 292.004 430.831 291.968C430.763 291.932 430.705 291.878 430.663 291.813C430.601 291.714 430.579 291.593 430.602 291.478C430.626 291.362 430.692 291.261 430.788 291.195C431.351 290.795 431.998 290.539 432.677 290.45C433.355 290.36 434.045 290.439 434.688 290.68C434.741 290.702 434.79 290.736 434.83 290.778C434.871 290.82 434.903 290.871 434.924 290.926C434.945 290.982 434.955 291.041 434.953 291.1C434.951 291.16 434.937 291.218 434.913 291.272C434.89 291.325 434.857 291.372 434.816 291.411C434.775 291.451 434.728 291.481 434.675 291.502C434.623 291.522 434.567 291.532 434.512 291.53C434.456 291.528 434.401 291.515 434.35 291.491C433.837 291.313 433.291 291.261 432.754 291.34C432.218 291.418 431.708 291.624 431.263 291.942C431.2 291.986 431.126 292.013 431.05 292.019Z" fill="#263238"/>
<path d="M440.375 298.342L438.775 297.428C438.775 297.428 439.35 298.986 440.375 298.342Z" fill="#263238"/>
<path d="M457.6 385.72L458.538 389.12C458.675 389.39 458.363 389.661 457.938 389.661H419.913C419.575 389.661 419.3 389.48 419.288 389.274L418.95 385.861C418.95 385.63 419.213 385.424 419.575 385.424H457C457.117 385.414 457.234 385.437 457.339 385.489C457.444 385.541 457.534 385.62 457.6 385.72Z" fill="#006BFF"/>
<path opacity="0.2" d="M457.6 385.72L458.538 389.12C458.675 389.39 458.363 389.661 457.938 389.661H419.913C419.575 389.661 419.3 389.48 419.288 389.274L418.95 385.861C418.95 385.63 419.213 385.424 419.575 385.424H457C457.117 385.414 457.234 385.437 457.339 385.489C457.444 385.541 457.534 385.62 457.6 385.72Z" fill="black"/>
<path d="M452.5 390.021H453.5C453.7 390.021 453.85 389.918 453.838 389.789L453.363 385.359C453.363 385.23 453.175 385.127 452.975 385.127H451.975C451.775 385.127 451.625 385.23 451.638 385.359L452.113 389.789C452.075 389.918 452.25 390.021 452.5 390.021Z" fill="#006BFF"/>
<path opacity="0.4" d="M452.5 390.021H453.5C453.7 390.021 453.85 389.918 453.838 389.789L453.363 385.359C453.363 385.23 453.175 385.127 452.975 385.127H451.975C451.775 385.127 451.625 385.23 451.638 385.359L452.113 389.789C452.075 389.918 452.25 390.021 452.5 390.021Z" fill="black"/>
<path d="M422.725 390.021H423.725C423.925 390.021 424.088 389.918 424.075 389.789L423.6 385.359C423.6 385.23 423.413 385.127 423.213 385.127H422.213C422.013 385.127 421.863 385.23 421.875 385.359L422.338 389.789C422.35 389.918 422.5 390.021 422.725 390.021Z" fill="#006BFF"/>
<path opacity="0.4" d="M422.725 390.021H423.725C423.925 390.021 424.088 389.918 424.075 389.789L423.6 385.359C423.6 385.23 423.413 385.127 423.213 385.127H422.213C422.013 385.127 421.863 385.23 421.875 385.359L422.338 389.789C422.35 389.918 422.5 390.021 422.725 390.021Z" fill="black"/>
<path d="M437.5 390.021H438.5C438.7 390.021 438.85 389.918 438.838 389.789L438.375 385.359C438.375 385.23 438.188 385.127 437.988 385.127H436.988C436.788 385.127 436.625 385.23 436.638 385.359L437.113 389.789C437.15 389.918 437.325 390.021 437.5 390.021Z" fill="#006BFF"/>
<path opacity="0.4" d="M437.5 390.021H438.5C438.7 390.021 438.85 389.918 438.838 389.789L438.375 385.359C438.375 385.23 438.188 385.127 437.988 385.127H436.988C436.788 385.127 436.625 385.23 436.638 385.359L437.113 389.789C437.15 389.918 437.325 390.021 437.5 390.021Z" fill="black"/>
<path d="M467.9 342.398C468.312 345.618 468.637 348.837 469.012 352.057L469.962 361.728C470.3 364.948 470.537 368.167 470.812 371.399L471.25 376.254L471.35 377.465C471.35 377.594 471.35 378.096 471.412 378.444C471.431 378.817 471.431 379.191 471.412 379.564C471.261 380.948 470.836 382.285 470.162 383.492C469.077 385.355 467.64 386.975 465.937 388.257C464.508 389.364 462.995 390.35 461.412 391.206C458.453 392.773 455.382 394.103 452.225 395.185C446.111 397.298 439.84 398.891 433.475 399.95L432.45 395.327C435.362 394.335 438.337 393.318 441.2 392.185C444.062 391.051 446.962 389.931 449.725 388.63C452.447 387.402 455.087 385.987 457.625 384.393C458.788 383.657 459.896 382.83 460.937 381.921C461.749 381.242 462.424 380.407 462.925 379.461C463.034 379.254 463.098 379.026 463.112 378.791L462.9 377.259L462.237 372.443C461.8 369.236 461.312 366.004 460.987 362.81L459.8 353.164C459.462 349.932 459.062 346.725 458.775 343.493L467.9 342.398Z" fill="#FFB573"/>
<path d="M463.587 331.104C467.337 332.263 471.737 345.399 471.737 345.399L458.75 359.14C458.75 359.14 452.1 344.974 453.662 340.093C455.312 334.955 459.362 329.79 463.587 331.104Z" fill="#263238"/>
</g>
<path d="M433.112 213.141H268.987C267.549 213.141 266.169 212.552 265.151 211.504C264.134 210.456 263.563 209.034 263.563 207.552C263.562 206.819 263.703 206.092 263.976 205.415C264.248 204.738 264.648 204.122 265.152 203.604C265.656 203.086 266.254 202.676 266.912 202.397C267.57 202.117 268.276 201.974 268.987 201.976H433.112C434.548 201.976 435.925 202.563 436.94 203.609C437.955 204.655 438.525 206.073 438.525 207.552C438.527 208.285 438.388 209.012 438.117 209.69C437.845 210.368 437.447 210.984 436.944 211.503C436.441 212.022 435.844 212.434 435.187 212.715C434.529 212.996 433.824 213.141 433.112 213.141Z" fill="white"/>
<path d="M395 236.618H268.987C268.276 236.619 267.57 236.476 266.912 236.197C266.254 235.917 265.656 235.507 265.152 234.989C264.648 234.471 264.248 233.856 263.976 233.178C263.703 232.501 263.562 231.775 263.563 231.042C263.563 229.559 264.134 228.138 265.151 227.089C266.169 226.041 267.549 225.452 268.987 225.452H395C396.439 225.452 397.819 226.041 398.836 227.089C399.853 228.138 400.425 229.559 400.425 231.042C400.425 231.775 400.285 232.501 400.012 233.178C399.739 233.856 399.339 234.471 398.835 234.989C398.331 235.507 397.733 235.917 397.075 236.197C396.417 236.476 395.712 236.619 395 236.618Z" fill="white"/>
<path d="M293.4 321.729H356.012C357.451 321.729 358.831 321.14 359.848 320.092C360.866 319.044 361.437 317.622 361.437 316.14C361.437 315.406 361.297 314.68 361.024 314.003C360.751 313.325 360.352 312.71 359.848 312.192C359.344 311.674 358.746 311.264 358.087 310.984C357.429 310.705 356.724 310.562 356.012 310.563H293.4C291.964 310.563 290.588 311.151 289.573 312.197C288.558 313.242 287.987 314.661 287.987 316.14C287.986 316.873 288.124 317.6 288.396 318.278C288.667 318.956 289.065 319.572 289.568 320.091C290.071 320.61 290.668 321.022 291.326 321.303C291.983 321.584 292.688 321.729 293.4 321.729Z" fill="white"/>
<path d="M223.826 321.729H267.026C267.737 321.729 268.442 321.584 269.1 321.303C269.757 321.022 270.354 320.61 270.857 320.091C271.36 319.572 271.758 318.956 272.03 318.278C272.301 317.6 272.44 316.873 272.438 316.14C272.438 314.661 271.868 313.242 270.853 312.197C269.838 311.151 268.461 310.563 267.026 310.563H223.826C222.39 310.563 221.013 311.151 219.998 312.197C218.983 313.242 218.413 314.661 218.413 316.14C218.411 316.873 218.55 317.6 218.822 318.278C219.093 318.956 219.491 319.572 219.994 320.091C220.497 320.61 221.094 321.022 221.751 321.303C222.409 321.584 223.114 321.729 223.826 321.729Z" fill="white"/>
<path d="M191.888 345.205H356.013C356.724 345.207 357.43 345.064 358.088 344.785C358.746 344.505 359.344 344.095 359.848 343.577C360.352 343.059 360.752 342.444 361.024 341.766C361.297 341.089 361.438 340.363 361.438 339.629C361.438 338.147 360.866 336.725 359.849 335.677C358.831 334.629 357.451 334.04 356.013 334.04H191.888C191.176 334.04 190.471 334.185 189.813 334.466C189.156 334.747 188.559 335.159 188.056 335.678C187.553 336.197 187.155 336.813 186.884 337.491C186.612 338.169 186.473 338.896 186.475 339.629C186.475 341.108 187.045 342.526 188.06 343.572C189.075 344.618 190.452 345.205 191.888 345.205Z" fill="white"/>
<path d="M124.788 51.7275C124.788 52.7902 124.482 53.8289 123.908 54.7123C123.335 55.5957 122.52 56.284 121.567 56.6901C120.614 57.0962 119.565 57.2018 118.554 56.9935C117.542 56.7853 116.614 56.2725 115.885 55.5202C115.157 54.7679 114.661 53.8098 114.461 52.7673C114.262 51.7247 114.367 50.6445 114.763 49.6635C115.16 48.6825 115.83 47.8447 116.688 47.2561C117.547 46.6676 118.556 46.3548 119.588 46.3574C120.968 46.3608 122.291 46.9281 123.266 47.9348C124.24 48.9415 124.788 50.3055 124.788 51.7275Z" fill="white"/>
<path d="M137.3 57.0977C140.179 57.0977 142.512 54.6934 142.512 51.7275C142.512 48.7617 140.179 46.3574 137.3 46.3574C134.421 46.3574 132.087 48.7617 132.087 51.7275C132.087 54.6934 134.421 57.0977 137.3 57.0977Z" fill="white"/>
<path d="M155.012 57.0977C157.891 57.0977 160.225 54.6934 160.225 51.7275C160.225 48.7617 157.891 46.3574 155.012 46.3574C152.134 46.3574 149.8 48.7617 149.8 51.7275C149.8 54.6934 152.134 57.0977 155.012 57.0977Z" fill="white"/>
</svg>
