<svg width="699" height="511" viewBox="0 0 699 511" fill="none" xmlns="http://www.w3.org/2000/svg">
<path d="M0 448.291H699V448.634H0V448.291Z" fill="#FAFAFA"/>
<path d="M107.338 463.189H142.051V463.532H107.338V463.189Z" fill="#FED801"/>
<path d="M85.3479 463.011H97.0771V463.353H85.3479V463.011Z" fill="#FED801"/>
<path d="M234.822 465.311H307.504V465.654H234.822V465.311Z" fill="#FED801"/>
<path d="M324.658 469.022H335.492V469.365H324.658V469.022Z" fill="#FED801"/>
<path d="M542.494 458.191H561.171V458.534H542.494V458.191Z" fill="#FED801"/>
<path d="M440.007 458.191H534.735V458.534H440.007V458.191Z" fill="#FED801"/>
<path d="M520.755 466.461H586.657V466.804H520.755V466.461Z" fill="#FED801"/>
<path d="M367.674 387.223H637.614C639.729 387.219 641.755 386.394 643.249 384.928C644.743 383.462 645.583 381.476 645.583 379.404V7.74993C645.564 5.69062 644.717 3.72158 643.225 2.27051C641.733 0.819436 639.717 0.00352771 637.614 0H367.674C365.557 0 363.527 0.823722 362.03 2.28995C360.533 3.75619 359.691 5.74483 359.691 7.81839V379.404C359.691 381.478 360.533 383.467 362.03 384.933C363.527 386.399 365.557 387.223 367.674 387.223ZM637.614 0.27385C639.636 0.277477 641.574 1.06673 643.002 2.46838C644.431 3.87002 645.233 5.76952 645.233 7.74993V379.404C645.233 381.385 644.431 383.284 643.002 384.686C641.574 386.088 639.636 386.877 637.614 386.88H367.674C365.651 386.877 363.711 386.088 362.281 384.687C360.85 383.285 360.045 381.386 360.041 379.404V7.74993C360.045 5.76826 360.85 3.86879 362.281 2.46754C363.711 1.06629 365.651 0.27747 367.674 0.27385H637.614Z" fill="#FED801"/>
<path d="M65.2726 387.223H335.226C337.342 387.219 339.371 386.394 340.867 384.929C342.363 383.463 343.205 381.477 343.209 379.404V7.74993C343.187 5.68937 342.337 3.72035 340.842 2.26965C339.348 0.818958 337.33 0.00348924 335.226 0H65.2726C63.1724 0.00712623 61.1597 0.824627 59.6707 2.27531C58.1817 3.726 57.3364 5.69299 57.318 7.74993V379.404C57.318 381.473 58.1552 383.458 59.6461 384.923C61.1371 386.389 63.1603 387.215 65.2726 387.223ZM335.226 0.27385C337.25 0.27747 339.189 1.06629 340.62 2.46754C342.05 3.86879 342.856 5.76826 342.859 7.74993V379.404C342.856 381.386 342.05 383.285 340.62 384.687C339.189 386.088 337.25 386.877 335.226 386.88H65.2726C63.2493 386.877 61.31 386.088 59.8793 384.687C58.4486 383.285 57.6432 381.386 57.6395 379.404V7.74993C57.6432 5.76826 58.4486 3.86879 59.8793 2.46754C61.31 1.06629 63.2493 0.27747 65.2726 0.27385H335.226Z" fill="#FED801"/>
<path d="M221.233 448.291H171.842V360.495H221.233V448.291Z" fill="#FED801"/>
<path d="M112.916 360.495H171.842V448.291H112.916V360.495Z" fill="#EBEBEB"/>
<g style="mix-blend-mode:multiply" opacity="0.7">
<path d="M221.234 371.901H112.399V367.93H221.234V371.901Z" fill="#FED801"/>
</g>
<path d="M223.959 369.587H171.842V351.294H223.959V369.587Z" fill="#FED801"/>
<path d="M110.19 351.308H171.842V369.601H110.19V351.308Z" fill="#EBEBEB"/>
<path d="M427.704 26.002H593.968V220.298H427.704V26.002Z" fill="#FED801"/>
<path d="M420.085 26.002H590.404V220.298H420.085V26.002Z" fill="#EBEBEB"/>
<path d="M427.704 220.298H593.968V234.141H427.704V220.298Z" fill="#FED801"/>
<path d="M407.419 220.298H577.737V234.141H407.419V220.298Z" fill="#EBEBEB"/>
<path d="M430.738 209.864V36.4356L579.751 36.4356V209.864H430.738Z" fill="#F5F5F5"/>
<path d="M561.465 209.864L498.96 36.4356H469.462L531.953 209.864H561.465Z" fill="#FAFAFA"/>
<path d="M574.83 151.028C575.031 151.024 575.223 150.943 575.364 150.803C575.506 150.662 575.585 150.472 575.585 150.275V43.2134C575.585 43.0173 575.505 42.8293 575.364 42.6906C575.222 42.5519 575.03 42.474 574.83 42.474C574.628 42.474 574.435 42.5515 574.291 42.6897C574.147 42.828 574.065 43.0161 574.061 43.2134V150.275C574.061 150.475 574.142 150.666 574.286 150.807C574.43 150.949 574.626 151.028 574.83 151.028Z" fill="#EBEBEB"/>
<path d="M525.62 209.864L463.116 36.4356H451.61L514.115 209.864H525.62Z" fill="#FAFAFA"/>
<path d="M430.752 209.864V36.4356H432.108V209.864H430.752Z" fill="#FED801"/>
<path d="M417.583 49.7721H583.833L584.811 40.4886H418.561L417.583 49.7721Z" fill="#FED801"/>
<path d="M417.583 56.5773H583.833L584.811 47.2801H418.561L417.583 56.5773Z" fill="#FED801"/>
<path d="M417.583 64.7379H583.833L584.811 55.4408H418.561L417.583 64.7379Z" fill="#FED801"/>
<path d="M417.583 73.8161H583.833L584.811 64.5326H418.561L417.583 73.8161Z" fill="#FED801"/>
<path d="M417.583 84.7016H583.833L584.811 75.4044H418.561L417.583 84.7016Z" fill="#FED801"/>
<path d="M417.583 96.9289H583.833L584.811 87.6454H418.561L417.583 96.9289Z" fill="#FED801"/>
<path d="M125.317 26.002H291.581V220.298H125.317V26.002Z" fill="#FED801"/>
<path d="M117.712 26.002H288.03V220.298H117.712V26.002Z" fill="#EBEBEB"/>
<path d="M125.317 220.298H291.581V234.141H125.317V220.298Z" fill="#FED801"/>
<path d="M105.032 220.298H275.35V234.141H105.032V220.298Z" fill="#EBEBEB"/>
<path d="M128.351 209.864V36.4356L277.363 36.4356V209.864H128.351Z" fill="#F5F5F5"/>
<path d="M259.077 209.864L196.573 36.4356H167.075L229.58 209.864H259.077Z" fill="#FAFAFA"/>
<path d="M272.442 151.028C272.644 151.024 272.836 150.943 272.977 150.803C273.118 150.662 273.197 150.472 273.197 150.275V43.2134C273.197 43.0173 273.118 42.8293 272.976 42.6906C272.834 42.5519 272.642 42.474 272.442 42.474C272.242 42.474 272.05 42.5519 271.908 42.6906C271.767 42.8293 271.687 43.0173 271.687 43.2134V150.275C271.687 150.472 271.766 150.662 271.908 150.803C272.049 150.943 272.241 151.024 272.442 151.028Z" fill="#EBEBEB"/>
<path d="M223.232 209.864L160.728 36.4356H149.236L211.727 209.864H223.232Z" fill="#FAFAFA"/>
<path d="M128.365 209.864V36.4356H129.721V209.864H128.365Z" fill="#FED801"/>
<path d="M115.195 49.7721H281.445L282.438 40.4886H116.174L115.195 49.7721Z" fill="#FED801"/>
<path d="M115.195 56.5773H281.445L282.438 47.2801H116.174L115.195 56.5773Z" fill="#FED801"/>
<path d="M115.195 64.7379H281.445L282.438 55.4408H116.174L115.195 64.7379Z" fill="#FED801"/>
<path d="M115.195 73.8161H281.445L282.438 64.5326H116.174L115.195 73.8161Z" fill="#FED801"/>
<path d="M115.195 84.7016H281.445L282.438 75.4044H116.174L115.195 84.7016Z" fill="#FED801"/>
<path d="M115.195 96.9289H281.445L282.438 87.6454H116.174L115.195 96.9289Z" fill="#FED801"/>
<path d="M254.38 325.141H287.583V448.291H254.38V325.141Z" fill="#FED801"/>
<path d="M260.699 448.291H254.394V433.202H267.312L260.699 448.291Z" fill="#F5F5F5"/>
<path d="M576.591 325.141H609.794V448.291H576.591V325.141Z" fill="#FED801"/>
<path d="M254.38 325.141H582.099V439.994H254.38V325.141Z" fill="#F5F5F5"/>
<path d="M416.129 330.892V412.91H259.273V330.892H416.129Z" fill="#FED801"/>
<path d="M577.206 330.892V412.91H420.351V330.892H577.206Z" fill="#FED801"/>
<path d="M259.287 430.245V421.112H416.143V430.245H259.287Z" fill="#FED801"/>
<path d="M420.365 430.258V421.125H577.22V430.258H420.365Z" fill="#FED801"/>
<path d="M443.543 335.794H553.985C556.437 335.796 558.865 335.311 561.121 334.37C563.377 333.429 565.415 332.05 567.113 330.317H430.36C432.064 332.057 434.112 333.439 436.378 334.381C438.644 335.322 441.082 335.803 443.543 335.794Z" fill="#F5F5F5"/>
<path d="M281.879 335.794H392.321C394.773 335.796 397.2 335.311 399.456 334.37C401.712 333.429 403.75 332.05 405.448 330.317H268.696C270.397 332.061 272.443 333.446 274.71 334.387C276.977 335.329 279.416 335.808 281.879 335.794Z" fill="#F5F5F5"/>
<path d="M575.794 448.291H582.113V433.202H569.196L575.794 448.291Z" fill="#F5F5F5"/>
<g style="mix-blend-mode:multiply" opacity="0.4">
<path d="M341.727 249.531H378.69V325.141H341.727V249.531Z" fill="#FED801"/>
</g>
<path d="M310.678 325.141H373.238L379.124 243.493H316.577L310.678 325.141Z" fill="#FED801"/>
<path d="M303.562 325.141H371.463L377.348 243.493H309.461L303.562 325.141Z" fill="#F5F5F5"/>
<path d="M368.317 322.019L373.755 246.615H312.593L307.141 322.019H368.317Z" fill="#FAFAFA"/>
<path d="M353.512 305.136L356.518 263.498H327.398L324.392 305.136H353.512Z" fill="#F5F5F5"/>
<path d="M476.229 311.736C467.257 311.736 459.984 304.613 459.984 295.826C459.984 287.038 467.257 279.915 476.229 279.915C485.2 279.915 492.474 287.038 492.474 295.826C492.474 304.613 485.2 311.736 476.229 311.736Z" fill="#EBEBEB"/>
<path d="M448.409 319.322C439.437 319.322 432.164 312.198 432.164 303.411C432.164 294.624 439.437 287.501 448.409 287.501C457.38 287.501 464.653 294.624 464.653 303.411C464.653 312.198 457.38 319.322 448.409 319.322Z" fill="#EBEBEB"/>
<path d="M420.766 306.58C415.233 304.348 412.596 298.145 414.875 292.726C417.155 287.308 423.487 284.724 429.02 286.957C434.553 289.189 437.19 295.392 434.911 300.811C432.632 306.229 426.299 308.813 420.766 306.58Z" fill="#EBEBEB"/>
<path d="M449.26 287.907C448.304 282.122 452.316 276.673 458.223 275.736C464.13 274.799 469.694 278.729 470.65 284.514C471.607 290.3 467.594 295.749 461.688 296.686C455.781 297.623 450.217 293.693 449.26 287.907Z" fill="#EBEBEB"/>
<path d="M502.204 300.563C502.204 300.563 500.931 325.141 452.183 325.141C403.435 325.141 402.163 300.563 402.163 300.563H502.204Z" fill="#FED801"/>
<path d="M547.219 316.72C547.219 316.72 563.1 289.91 541.068 268.564C541.068 268.564 535.322 272.234 535.476 277.176C535.63 282.119 541.641 283.352 540.341 287.473C539.041 291.595 533.351 295.689 537.056 299.043C540.76 302.398 536.455 305.465 536.706 309.641C536.958 313.818 547.219 316.72 547.219 316.72Z" fill="#FED801"/>
<path d="M546.017 319.171C546.017 319.171 539.586 288.829 567.364 275.355C567.364 275.355 571.642 280.627 569.965 285.282C568.287 289.938 562.136 289.24 562.038 293.498C561.94 297.756 566.092 303.411 561.423 305.479C556.753 307.546 559.927 311.777 558.347 315.652C556.767 319.527 546.017 319.171 546.017 319.171Z" fill="#FED801"/>
<path d="M570.384 305.136C570.384 305.136 569.853 325.141 549.61 325.141C529.367 325.141 528.835 305.136 528.835 305.136H570.384Z" fill="#EBEBEB"/>
<path d="M349.5 510.126C199.799 510.126 78.4419 503.187 78.4419 494.626C78.4419 486.066 199.799 479.127 349.5 479.127C499.201 479.127 620.558 486.066 620.558 494.626C620.558 503.187 499.201 510.126 349.5 510.126Z" fill="#F5F5F5"/>
<path d="M446.731 297.729C447.56 297.676 448.337 297.316 448.905 296.722C449.472 296.128 449.788 295.345 449.788 294.532C449.788 293.718 449.472 292.935 448.905 292.341C448.337 291.748 447.56 291.388 446.731 291.334C438.734 291.334 431.996 280.12 431.996 266.839C431.942 266.027 431.574 265.266 430.968 264.71C430.362 264.153 429.562 263.844 428.732 263.844C427.901 263.844 427.102 264.153 426.495 264.71C425.889 265.266 425.522 266.027 425.467 266.839C425.467 284.16 434.778 297.729 446.731 297.729Z" fill="#006BFF"/>
<path d="M397.395 297.729C398.224 297.676 399.001 297.316 399.569 296.722C400.137 296.128 400.453 295.345 400.453 294.532C400.453 293.718 400.137 292.935 399.569 292.341C399.001 291.748 398.224 291.388 397.395 291.334C389.399 291.334 382.661 280.12 382.661 266.839C382.606 266.027 382.239 265.266 381.632 264.71C381.026 264.153 380.227 263.844 379.396 263.844C378.566 263.844 377.766 264.153 377.16 264.71C376.554 265.266 376.186 266.027 376.132 266.839C376.062 284.16 385.47 297.729 397.395 297.729Z" fill="#006BFF"/>
<path d="M348.102 297.729C348.931 297.676 349.708 297.316 350.276 296.722C350.844 296.128 351.16 295.345 351.16 294.532C351.16 293.718 350.844 292.935 350.276 292.341C349.708 291.748 348.931 291.388 348.102 291.334C340.119 291.334 333.367 280.12 333.367 266.839C333.367 265.993 333.024 265.181 332.413 264.583C331.802 263.984 330.974 263.648 330.11 263.648C329.246 263.648 328.417 263.984 327.806 264.583C327.196 265.181 326.852 265.993 326.852 266.839C326.81 284.16 336.135 297.729 348.102 297.729Z" fill="#006BFF"/>
<path d="M298.725 297.729C299.171 297.757 299.619 297.696 300.04 297.548C300.462 297.401 300.848 297.17 301.175 296.87C301.501 296.57 301.762 296.208 301.94 295.806C302.118 295.404 302.21 294.97 302.21 294.532C302.21 294.093 302.118 293.66 301.94 293.257C301.762 292.855 301.501 292.493 301.175 292.193C300.848 291.893 300.462 291.663 300.04 291.515C299.619 291.367 299.171 291.306 298.725 291.334C290.742 291.334 283.99 280.12 283.99 266.839C283.99 265.993 283.646 265.181 283.036 264.583C282.425 263.984 281.596 263.648 280.732 263.648C279.868 263.648 279.04 263.984 278.429 264.583C277.818 265.181 277.475 265.993 277.475 266.839C277.475 284.16 286.814 297.729 298.725 297.729Z" fill="#006BFF"/>
<path d="M249.403 297.729C250.232 297.676 251.009 297.316 251.577 296.722C252.145 296.128 252.461 295.345 252.461 294.532C252.461 293.718 252.145 292.935 251.577 292.341C251.009 291.748 250.232 291.388 249.403 291.334C241.407 291.334 234.668 280.12 234.668 266.839C234.614 266.027 234.247 265.266 233.64 264.71C233.034 264.153 232.235 263.844 231.404 263.844C230.573 263.844 229.774 264.153 229.168 264.71C228.561 265.266 228.194 266.027 228.14 266.839C228.14 284.16 237.478 297.729 249.403 297.729Z" fill="#006BFF"/>
<path d="M200.068 297.729C200.896 297.676 201.674 297.316 202.241 296.722C202.809 296.128 203.125 295.345 203.125 294.532C203.125 293.718 202.809 292.935 202.241 292.341C201.674 291.748 200.896 291.388 200.068 291.334C192.085 291.334 185.333 280.12 185.333 266.839C185.278 266.027 184.911 265.266 184.305 264.71C183.699 264.153 182.899 263.844 182.068 263.844C181.238 263.844 180.438 264.153 179.832 264.71C179.226 265.266 178.858 266.027 178.804 266.839C178.804 284.16 188.143 297.729 200.068 297.729Z" fill="#006BFF"/>
<g opacity="0.3">
<path d="M446.731 297.729C447.56 297.676 448.337 297.316 448.905 296.722C449.472 296.128 449.788 295.345 449.788 294.532C449.788 293.718 449.472 292.935 448.905 292.341C448.337 291.748 447.56 291.388 446.731 291.334C438.734 291.334 431.996 280.12 431.996 266.839C431.942 266.027 431.574 265.266 430.968 264.71C430.362 264.153 429.562 263.844 428.732 263.844C427.901 263.844 427.102 264.153 426.495 264.71C425.889 265.266 425.522 266.027 425.467 266.839C425.467 284.16 434.778 297.729 446.731 297.729Z" fill="black"/>
<path d="M397.395 297.729C398.224 297.676 399.001 297.316 399.569 296.722C400.137 296.128 400.453 295.345 400.453 294.532C400.453 293.718 400.137 292.935 399.569 292.341C399.001 291.748 398.224 291.388 397.395 291.334C389.399 291.334 382.661 280.12 382.661 266.839C382.606 266.027 382.239 265.266 381.632 264.71C381.026 264.153 380.227 263.844 379.396 263.844C378.566 263.844 377.766 264.153 377.16 264.71C376.554 265.266 376.186 266.027 376.132 266.839C376.062 284.16 385.47 297.729 397.395 297.729Z" fill="black"/>
<path d="M348.102 297.729C348.931 297.676 349.708 297.316 350.276 296.722C350.844 296.128 351.16 295.345 351.16 294.532C351.16 293.718 350.844 292.935 350.276 292.341C349.708 291.748 348.931 291.388 348.102 291.334C340.119 291.334 333.367 280.12 333.367 266.839C333.367 265.993 333.024 265.181 332.413 264.583C331.802 263.984 330.974 263.648 330.11 263.648C329.246 263.648 328.417 263.984 327.806 264.583C327.196 265.181 326.852 265.993 326.852 266.839C326.81 284.16 336.135 297.729 348.102 297.729Z" fill="black"/>
<path d="M298.725 297.729C299.171 297.757 299.619 297.696 300.04 297.548C300.462 297.401 300.848 297.17 301.175 296.87C301.501 296.57 301.762 296.208 301.94 295.806C302.118 295.404 302.21 294.97 302.21 294.532C302.21 294.093 302.118 293.66 301.94 293.257C301.762 292.855 301.501 292.493 301.175 292.193C300.848 291.893 300.462 291.663 300.04 291.515C299.619 291.367 299.171 291.306 298.725 291.334C290.742 291.334 283.99 280.12 283.99 266.839C283.99 265.993 283.646 265.181 283.036 264.583C282.425 263.984 281.596 263.648 280.732 263.648C279.868 263.648 279.04 263.984 278.429 264.583C277.818 265.181 277.475 265.993 277.475 266.839C277.475 284.16 286.814 297.729 298.725 297.729Z" fill="black"/>
<path d="M249.403 297.729C250.232 297.676 251.009 297.316 251.577 296.722C252.145 296.128 252.461 295.345 252.461 294.532C252.461 293.718 252.145 292.935 251.577 292.341C251.009 291.748 250.232 291.388 249.403 291.334C241.407 291.334 234.668 280.12 234.668 266.839C234.614 266.027 234.247 265.266 233.64 264.71C233.034 264.153 232.235 263.844 231.404 263.844C230.573 263.844 229.774 264.153 229.168 264.71C228.561 265.266 228.194 266.027 228.14 266.839C228.14 284.16 237.478 297.729 249.403 297.729Z" fill="black"/>
<path d="M200.068 297.729C200.896 297.676 201.674 297.316 202.241 296.722C202.809 296.128 203.125 295.345 203.125 294.532C203.125 293.718 202.809 292.935 202.241 292.341C201.674 291.748 200.896 291.388 200.068 291.334C192.085 291.334 185.333 280.12 185.333 266.839C185.278 266.027 184.911 265.266 184.305 264.71C183.699 264.153 182.899 263.844 182.068 263.844C181.238 263.844 180.438 264.153 179.832 264.71C179.226 265.266 178.858 266.027 178.804 266.839C178.804 284.16 188.143 297.729 200.068 297.729Z" fill="black"/>
</g>
<path d="M477.641 270.111H160.043C155.785 270.195 151.704 271.797 148.566 274.618C145.429 277.439 143.45 281.285 143.002 285.433L125.415 479.633C125.201 481.582 125.412 483.553 126.034 485.416C126.655 487.278 127.674 488.991 129.022 490.439C130.37 491.887 132.017 493.039 133.853 493.817C135.689 494.596 137.674 494.984 139.674 494.955H457.286C461.543 494.866 465.62 493.261 468.756 490.441C471.893 487.621 473.873 483.779 474.328 479.633L491.9 285.433C492.117 283.484 491.907 281.512 491.286 279.648C490.665 277.785 489.647 276.071 488.298 274.623C486.95 273.174 485.302 272.022 483.465 271.244C481.628 270.467 479.642 270.08 477.641 270.111Z" fill="#006BFF"/>
<path opacity="0.4" d="M477.641 270.111H160.043C155.785 270.195 151.704 271.797 148.566 274.618C145.429 277.439 143.45 281.285 143.002 285.433L125.415 479.633C125.201 481.582 125.412 483.553 126.034 485.416C126.655 487.278 127.674 488.991 129.022 490.439C130.37 491.887 132.017 493.039 133.853 493.817C135.689 494.596 137.674 494.984 139.674 494.955H457.286C461.543 494.866 465.62 493.261 468.756 490.441C471.893 487.621 473.873 483.779 474.328 479.633L491.9 285.433C492.117 283.484 491.907 281.512 491.286 279.648C490.665 277.785 489.647 276.071 488.298 274.623C486.95 273.174 485.302 272.022 483.465 271.244C481.628 270.467 479.642 270.08 477.641 270.111Z" fill="#FAFAFA"/>
<path d="M162.685 270.111H480.297C484.498 270.16 488.523 271.769 491.56 274.613C494.596 277.458 496.416 281.325 496.653 285.433L505.601 479.633C505.707 481.612 505.4 483.59 504.699 485.449C503.997 487.307 502.916 489.005 501.52 490.44C500.125 491.874 498.446 493.014 496.585 493.791C494.724 494.567 492.721 494.963 490.698 494.955H173.058C168.857 494.906 164.832 493.297 161.796 490.453C158.759 487.609 156.939 483.742 156.702 479.633L147.741 285.433C147.636 283.452 147.945 281.47 148.65 279.61C149.355 277.75 150.441 276.051 151.84 274.616C153.239 273.181 154.923 272.042 156.788 271.267C158.653 270.493 160.66 270.099 162.685 270.111Z" fill="#006BFF"/>
<path opacity="0.2" d="M162.685 270.111H480.297C484.498 270.16 488.523 271.769 491.56 274.613C494.596 277.458 496.416 281.325 496.653 285.433L505.601 479.633C505.707 481.612 505.4 483.59 504.699 485.449C503.997 487.307 502.916 489.005 501.52 490.44C500.125 491.874 498.446 493.014 496.585 493.791C494.724 494.567 492.721 494.963 490.698 494.955H173.058C168.857 494.906 164.832 493.297 161.796 490.453C158.759 487.609 156.939 483.742 156.702 479.633L147.741 285.433C147.636 283.452 147.945 281.47 148.65 279.61C149.355 277.75 150.441 276.051 151.84 274.616C153.239 273.181 154.923 272.042 156.788 271.267C158.653 270.493 160.66 270.099 162.685 270.111Z" fill="#FAFAFA"/>
<path d="M474.467 443.636L467.072 283.256C466.983 281.683 466.286 280.201 465.123 279.113C463.96 278.025 462.417 277.411 460.809 277.396H182.844C182.069 277.391 181.302 277.541 180.588 277.837C179.875 278.134 179.23 278.569 178.695 279.118C178.16 279.667 177.744 280.317 177.475 281.028C177.205 281.74 177.086 282.498 177.126 283.256L184.536 443.636C184.625 445.209 185.321 446.69 186.484 447.779C187.648 448.867 189.19 449.481 190.799 449.496H468.749C469.524 449.501 470.292 449.35 471.005 449.054C471.719 448.758 472.363 448.322 472.898 447.773C473.434 447.225 473.849 446.575 474.119 445.863C474.389 445.152 474.507 444.394 474.467 443.636Z" fill="#006BFF"/>
<path opacity="0.1" d="M474.467 443.636L467.072 283.256C466.983 281.683 466.286 280.201 465.123 279.113C463.96 278.025 462.417 277.411 460.809 277.396H182.844C182.069 277.391 181.302 277.541 180.588 277.837C179.875 278.134 179.23 278.569 178.695 279.118C178.16 279.667 177.744 280.317 177.475 281.028C177.205 281.74 177.086 282.498 177.126 283.256L184.536 443.636C184.625 445.209 185.321 446.69 186.484 447.779C187.648 448.867 189.19 449.481 190.799 449.496H468.749C469.524 449.501 470.292 449.35 471.005 449.054C471.719 448.758 472.363 448.322 472.898 447.773C473.434 447.225 473.849 446.575 474.119 445.863C474.389 445.152 474.507 444.394 474.467 443.636Z" fill="#FAFAFA"/>
<path opacity="0.1" d="M482.31 456.726L474.551 288.308C474.462 286.657 473.732 285.1 472.511 283.958C471.29 282.815 469.669 282.172 467.981 282.161H176.078C175.265 282.154 174.458 282.31 173.709 282.62C172.96 282.931 172.283 283.388 171.721 283.964C171.16 284.54 170.724 285.222 170.442 285.97C170.16 286.717 170.037 287.513 170.081 288.308L177.854 456.726C177.942 458.377 178.669 459.932 179.887 461.077C181.105 462.221 182.722 462.869 184.41 462.887H476.341C477.153 462.892 477.959 462.734 478.707 462.422C479.455 462.11 480.129 461.651 480.689 461.074C481.248 460.496 481.681 459.812 481.96 459.064C482.239 458.316 482.358 457.52 482.31 456.726Z" fill="black"/>
<path d="M489.524 470.309L481.429 294.634C481.321 292.917 480.555 291.302 479.286 290.112C478.016 288.922 476.336 288.244 474.579 288.213H170.081C169.231 288.206 168.389 288.369 167.607 288.693C166.824 289.018 166.118 289.495 165.531 290.097C164.944 290.698 164.49 291.411 164.195 292.192C163.9 292.972 163.772 293.803 163.818 294.634L171.954 470.309C172.063 472.026 172.828 473.641 174.097 474.831C175.367 476.021 177.047 476.699 178.804 476.73H483.261C484.111 476.739 484.954 476.577 485.737 476.253C486.52 475.93 487.228 475.453 487.815 474.85C488.402 474.248 488.857 473.535 489.151 472.753C489.445 471.972 489.572 471.14 489.524 470.309Z" fill="#FAFAFA"/>
<path d="M200.11 298.742C200.683 298.743 201.249 298.629 201.775 298.408C202.301 298.186 202.775 297.861 203.168 297.453C203.561 297.045 203.865 296.563 204.06 296.036C204.255 295.508 204.338 294.948 204.304 294.388C204.251 293.289 203.771 292.252 202.963 291.489C202.154 290.725 201.079 290.293 199.956 290.28C199.384 290.279 198.817 290.393 198.291 290.615C197.765 290.836 197.291 291.161 196.898 291.569C196.505 291.977 196.202 292.459 196.006 292.987C195.811 293.514 195.728 294.075 195.762 294.634C195.816 295.733 196.295 296.77 197.104 297.533C197.912 298.297 198.987 298.729 200.11 298.742Z" fill="#006BFF"/>
<path d="M249.445 298.742C250.018 298.743 250.585 298.629 251.11 298.408C251.636 298.186 252.11 297.861 252.503 297.453C252.896 297.045 253.2 296.563 253.395 296.036C253.591 295.508 253.674 294.948 253.639 294.388C253.586 293.289 253.106 292.252 252.298 291.489C251.49 290.725 250.414 290.293 249.291 290.28C248.719 290.279 248.152 290.393 247.626 290.615C247.1 290.836 246.626 291.161 246.233 291.569C245.84 291.977 245.537 292.459 245.341 292.987C245.146 293.514 245.063 294.075 245.097 294.634C245.147 295.734 245.626 296.773 246.435 297.537C247.244 298.301 248.321 298.733 249.445 298.742Z" fill="#006BFF"/>
<path d="M298.78 298.742C299.353 298.743 299.92 298.629 300.446 298.408C300.972 298.186 301.446 297.861 301.839 297.453C302.232 297.045 302.535 296.563 302.73 296.036C302.926 295.508 303.009 294.948 302.974 294.388C302.918 293.29 302.437 292.255 301.629 291.492C300.822 290.73 299.748 290.296 298.627 290.28C298.054 290.279 297.487 290.393 296.961 290.615C296.435 290.836 295.961 291.161 295.568 291.569C295.175 291.977 294.872 292.459 294.677 292.987C294.481 293.514 294.398 294.075 294.433 294.634C294.483 295.734 294.961 296.773 295.77 297.537C296.579 298.301 297.657 298.733 298.78 298.742Z" fill="#006BFF"/>
<path d="M348.102 298.742C348.674 298.743 349.241 298.629 349.767 298.408C350.293 298.186 350.767 297.861 351.16 297.453C351.553 297.045 351.856 296.563 352.052 296.036C352.247 295.508 352.33 294.948 352.296 294.388C352.236 293.289 351.752 292.254 350.942 291.491C350.132 290.729 349.057 290.296 347.934 290.28C347.361 290.279 346.795 290.393 346.269 290.615C345.743 290.836 345.269 291.161 344.876 291.569C344.483 291.977 344.179 292.459 343.984 292.987C343.789 293.514 343.706 294.075 343.74 294.634C343.79 295.736 344.271 296.777 345.083 297.542C345.895 298.306 346.976 298.736 348.102 298.742Z" fill="#006BFF"/>
<path d="M397.437 298.742C398.01 298.743 398.577 298.629 399.103 298.408C399.629 298.186 400.103 297.861 400.496 297.453C400.889 297.045 401.192 296.563 401.387 296.036C401.583 295.508 401.666 294.948 401.631 294.388C401.578 293.289 401.098 292.252 400.29 291.489C399.482 290.725 398.406 290.293 397.284 290.28C396.711 290.279 396.144 290.393 395.618 290.615C395.092 290.836 394.618 291.161 394.225 291.569C393.832 291.977 393.529 292.459 393.334 292.987C393.138 293.514 393.055 294.075 393.09 294.634C393.143 295.733 393.623 296.77 394.431 297.533C395.239 298.297 396.315 298.729 397.437 298.742Z" fill="#006BFF"/>
<path d="M446.773 298.742C447.345 298.743 447.912 298.629 448.438 298.408C448.964 298.186 449.438 297.861 449.831 297.453C450.224 297.045 450.527 296.563 450.723 296.036C450.918 295.508 451.001 294.948 450.967 294.388C450.913 293.289 450.434 292.252 449.625 291.489C448.817 290.725 447.742 290.293 446.619 290.28C446.046 290.279 445.48 290.393 444.954 290.615C444.428 290.836 443.954 291.161 443.561 291.569C443.168 291.977 442.864 292.459 442.669 292.987C442.474 293.514 442.391 294.075 442.425 294.634C442.475 295.734 442.954 296.773 443.763 297.537C444.572 298.301 445.649 298.733 446.773 298.742Z" fill="#006BFF"/>
<g opacity="0.1">
<path d="M200.11 298.742C200.683 298.743 201.249 298.629 201.775 298.408C202.301 298.186 202.775 297.861 203.168 297.453C203.561 297.045 203.865 296.563 204.06 296.036C204.255 295.508 204.338 294.948 204.304 294.388C204.251 293.289 203.771 292.252 202.963 291.489C202.154 290.725 201.079 290.293 199.956 290.28C199.384 290.279 198.817 290.393 198.291 290.615C197.765 290.836 197.291 291.161 196.898 291.569C196.505 291.977 196.202 292.459 196.006 292.987C195.811 293.514 195.728 294.075 195.762 294.634C195.816 295.733 196.295 296.77 197.104 297.533C197.912 298.297 198.987 298.729 200.11 298.742Z" fill="#FAFAFA"/>
<path d="M249.445 298.742C250.018 298.743 250.585 298.629 251.11 298.408C251.636 298.186 252.11 297.861 252.503 297.453C252.896 297.045 253.2 296.563 253.395 296.036C253.591 295.508 253.674 294.948 253.639 294.388C253.586 293.289 253.106 292.252 252.298 291.489C251.49 290.725 250.414 290.293 249.291 290.28C248.719 290.279 248.152 290.393 247.626 290.615C247.1 290.836 246.626 291.161 246.233 291.569C245.84 291.977 245.537 292.459 245.341 292.987C245.146 293.514 245.063 294.075 245.097 294.634C245.147 295.734 245.626 296.773 246.435 297.537C247.244 298.301 248.321 298.733 249.445 298.742Z" fill="#FAFAFA"/>
<path d="M298.781 298.742C299.353 298.743 299.92 298.629 300.446 298.408C300.972 298.186 301.446 297.861 301.839 297.453C302.232 297.045 302.535 296.563 302.731 296.036C302.926 295.508 303.009 294.948 302.975 294.388C302.918 293.29 302.437 292.255 301.63 291.492C300.822 290.73 299.749 290.296 298.627 290.28C298.054 290.279 297.487 290.393 296.962 290.615C296.436 290.836 295.962 291.161 295.569 291.569C295.176 291.977 294.872 292.459 294.677 292.987C294.482 293.514 294.398 294.075 294.433 294.634C294.483 295.734 294.962 296.773 295.771 297.537C296.579 298.301 297.657 298.733 298.781 298.742Z" fill="#FAFAFA"/>
<path d="M348.102 298.742C348.674 298.743 349.241 298.629 349.767 298.408C350.293 298.186 350.767 297.861 351.16 297.453C351.553 297.045 351.856 296.563 352.052 296.036C352.247 295.508 352.33 294.948 352.296 294.388C352.236 293.289 351.752 292.254 350.942 291.491C350.132 290.729 349.057 290.296 347.934 290.28C347.361 290.279 346.795 290.393 346.269 290.615C345.743 290.836 345.269 291.161 344.876 291.569C344.483 291.977 344.179 292.459 343.984 292.987C343.789 293.514 343.706 294.075 343.74 294.634C343.79 295.736 344.271 296.777 345.083 297.542C345.895 298.306 346.976 298.736 348.102 298.742Z" fill="#FAFAFA"/>
<path d="M397.437 298.742C398.01 298.743 398.577 298.629 399.103 298.408C399.629 298.186 400.103 297.861 400.496 297.453C400.889 297.045 401.192 296.563 401.387 296.036C401.583 295.508 401.666 294.948 401.631 294.388C401.578 293.289 401.098 292.252 400.29 291.489C399.482 290.725 398.406 290.293 397.284 290.28C396.711 290.279 396.144 290.393 395.618 290.615C395.092 290.836 394.618 291.161 394.225 291.569C393.832 291.977 393.529 292.459 393.334 292.987C393.138 293.514 393.055 294.075 393.09 294.634C393.143 295.733 393.623 296.77 394.431 297.533C395.239 298.297 396.315 298.729 397.437 298.742Z" fill="#FAFAFA"/>
<path d="M446.773 298.742C447.345 298.743 447.912 298.629 448.438 298.408C448.964 298.186 449.438 297.861 449.831 297.453C450.224 297.045 450.527 296.563 450.723 296.036C450.918 295.508 451.001 294.948 450.967 294.388C450.913 293.289 450.434 292.252 449.625 291.489C448.817 290.725 447.742 290.293 446.619 290.28C446.046 290.279 445.48 290.393 444.954 290.615C444.428 290.836 443.954 291.161 443.561 291.569C443.168 291.977 442.864 292.459 442.669 292.987C442.474 293.514 442.391 294.075 442.425 294.634C442.475 295.734 442.954 296.773 443.763 297.537C444.572 298.301 445.649 298.733 446.773 298.742Z" fill="#FAFAFA"/>
</g>
<path d="M434.442 314.05H459.257C459.617 314.053 459.973 313.983 460.304 313.844C460.634 313.705 460.932 313.5 461.177 313.243C461.423 312.986 461.612 312.681 461.731 312.349C461.85 312.016 461.898 311.663 461.871 311.312C461.843 310.594 461.54 309.913 461.021 309.405C460.503 308.898 459.808 308.6 459.075 308.573H434.261C433.901 308.57 433.544 308.641 433.214 308.78C432.883 308.919 432.586 309.123 432.34 309.381C432.094 309.638 431.906 309.943 431.786 310.275C431.667 310.607 431.619 310.96 431.646 311.312C431.674 312.029 431.977 312.71 432.496 313.218C433.014 313.726 433.71 314.023 434.442 314.05Z" fill="#006BFF"/>
<path d="M385.107 314.05H409.921C410.281 314.053 410.638 313.983 410.968 313.844C411.299 313.705 411.596 313.5 411.842 313.243C412.088 312.986 412.276 312.681 412.396 312.349C412.515 312.016 412.563 311.663 412.536 311.312C412.507 310.583 412.194 309.892 411.661 309.382C411.127 308.873 410.415 308.583 409.67 308.573H384.869C384.509 308.571 384.152 308.641 383.821 308.78C383.489 308.918 383.191 309.123 382.944 309.38C382.697 309.637 382.508 309.941 382.387 310.274C382.266 310.606 382.216 310.96 382.241 311.312C382.27 312.041 382.583 312.731 383.116 313.241C383.649 313.751 384.362 314.04 385.107 314.05Z" fill="#006BFF"/>
<path d="M335.772 314.05H360.586C360.946 314.053 361.303 313.983 361.635 313.844C361.966 313.705 362.264 313.501 362.511 313.244C362.758 312.986 362.948 312.682 363.069 312.35C363.19 312.017 363.239 311.664 363.214 311.312C363.186 310.583 362.873 309.892 362.339 309.382C361.806 308.873 361.093 308.583 360.348 308.573H335.52C335.16 308.57 334.804 308.641 334.473 308.78C334.143 308.919 333.845 309.123 333.599 309.381C333.354 309.638 333.165 309.943 333.046 310.275C332.926 310.607 332.879 310.96 332.906 311.312C332.931 312.042 333.243 312.735 333.777 313.245C334.311 313.755 335.026 314.044 335.772 314.05Z" fill="#006BFF"/>
<path d="M286.45 314.05H311.265C311.624 314.053 311.981 313.983 312.312 313.844C312.642 313.705 312.94 313.5 313.185 313.243C313.431 312.986 313.62 312.681 313.739 312.349C313.858 312.016 313.906 311.663 313.879 311.312C313.851 310.594 313.548 309.913 313.029 309.405C312.511 308.898 311.816 308.6 311.083 308.573H286.268C285.909 308.57 285.552 308.641 285.222 308.78C284.891 308.919 284.593 309.123 284.348 309.381C284.102 309.638 283.914 309.943 283.794 310.275C283.675 310.607 283.627 310.96 283.654 311.312C283.682 312.029 283.985 312.71 284.504 313.218C285.022 313.726 285.718 314.023 286.45 314.05Z" fill="#006BFF"/>
<path d="M237.115 314.05H261.929C262.289 314.053 262.646 313.983 262.976 313.844C263.307 313.705 263.604 313.5 263.85 313.243C264.096 312.986 264.284 312.681 264.404 312.349C264.523 312.016 264.571 311.663 264.544 311.312C264.515 310.583 264.202 309.892 263.669 309.382C263.135 308.873 262.423 308.583 261.678 308.573H236.863C236.503 308.57 236.147 308.641 235.816 308.78C235.486 308.919 235.188 309.123 234.943 309.381C234.697 309.638 234.508 309.943 234.389 310.275C234.27 310.607 234.222 310.96 234.249 311.312C234.278 312.041 234.591 312.731 235.124 313.241C235.657 313.751 236.37 314.04 237.115 314.05Z" fill="#006BFF"/>
<path d="M187.779 314.05H212.594C212.954 314.053 213.31 313.983 213.641 313.844C213.971 313.705 214.269 313.5 214.515 313.243C214.76 312.986 214.949 312.681 215.068 312.349C215.188 312.016 215.235 311.663 215.208 311.312C215.179 310.583 214.866 309.892 214.333 309.382C213.8 308.873 213.087 308.583 212.342 308.573H187.542C187.181 308.571 186.824 308.641 186.493 308.78C186.162 308.918 185.863 309.123 185.617 309.38C185.37 309.637 185.18 309.941 185.059 310.274C184.938 310.606 184.888 310.96 184.913 311.312C184.942 312.041 185.255 312.731 185.789 313.241C186.322 313.751 187.034 314.04 187.779 314.05Z" fill="#006BFF"/>
<g opacity="0.3">
<path d="M434.442 314.05H459.257C459.617 314.053 459.973 313.983 460.304 313.844C460.634 313.705 460.932 313.5 461.177 313.243C461.423 312.986 461.612 312.681 461.731 312.349C461.85 312.016 461.898 311.663 461.871 311.312C461.843 310.594 461.54 309.913 461.021 309.405C460.503 308.898 459.808 308.6 459.075 308.573H434.261C433.901 308.57 433.544 308.641 433.214 308.78C432.883 308.919 432.586 309.123 432.34 309.381C432.094 309.638 431.906 309.943 431.786 310.275C431.667 310.607 431.619 310.96 431.646 311.312C431.674 312.029 431.977 312.71 432.496 313.218C433.014 313.726 433.71 314.023 434.442 314.05Z" fill="black"/>
<path d="M385.107 314.05H409.921C410.281 314.053 410.638 313.983 410.968 313.844C411.299 313.705 411.596 313.5 411.842 313.243C412.088 312.986 412.276 312.681 412.396 312.349C412.515 312.016 412.563 311.663 412.536 311.312C412.507 310.583 412.194 309.892 411.661 309.382C411.127 308.873 410.415 308.583 409.67 308.573H384.869C384.509 308.571 384.152 308.641 383.821 308.78C383.489 308.918 383.191 309.123 382.944 309.38C382.697 309.637 382.507 309.941 382.386 310.274C382.265 310.606 382.216 310.96 382.241 311.312C382.27 312.041 382.583 312.731 383.116 313.241C383.649 313.751 384.362 314.04 385.107 314.05Z" fill="black"/>
<path d="M335.772 314.05H360.586C360.946 314.053 361.303 313.983 361.635 313.844C361.966 313.705 362.264 313.501 362.511 313.244C362.758 312.986 362.948 312.682 363.069 312.35C363.19 312.017 363.239 311.664 363.214 311.312C363.186 310.583 362.873 309.892 362.339 309.382C361.806 308.873 361.093 308.583 360.348 308.573H335.52C335.16 308.57 334.804 308.641 334.473 308.78C334.143 308.919 333.845 309.123 333.599 309.381C333.354 309.638 333.165 309.943 333.046 310.275C332.926 310.607 332.879 310.96 332.906 311.312C332.931 312.042 333.243 312.735 333.777 313.245C334.311 313.755 335.026 314.044 335.772 314.05Z" fill="black"/>
<path d="M286.45 314.05H311.265C311.624 314.053 311.981 313.983 312.312 313.844C312.642 313.705 312.94 313.5 313.185 313.243C313.431 312.986 313.62 312.681 313.739 312.349C313.858 312.016 313.906 311.663 313.879 311.312C313.851 310.594 313.548 309.913 313.029 309.405C312.511 308.898 311.816 308.6 311.083 308.573H286.268C285.909 308.57 285.552 308.641 285.222 308.78C284.891 308.919 284.593 309.123 284.348 309.381C284.102 309.638 283.914 309.943 283.794 310.275C283.675 310.607 283.627 310.96 283.654 311.312C283.682 312.029 283.985 312.71 284.504 313.218C285.022 313.726 285.718 314.023 286.45 314.05Z" fill="black"/>
<path d="M237.115 314.05H261.929C262.289 314.053 262.646 313.983 262.976 313.844C263.307 313.705 263.604 313.5 263.85 313.243C264.096 312.986 264.284 312.681 264.404 312.349C264.523 312.016 264.571 311.663 264.544 311.312C264.515 310.583 264.202 309.892 263.669 309.382C263.135 308.873 262.423 308.583 261.678 308.573H236.863C236.503 308.57 236.147 308.641 235.816 308.78C235.486 308.919 235.188 309.123 234.943 309.381C234.697 309.638 234.508 309.943 234.389 310.275C234.27 310.607 234.222 310.96 234.249 311.312C234.278 312.041 234.591 312.731 235.124 313.241C235.657 313.751 236.37 314.04 237.115 314.05Z" fill="black"/>
<path d="M187.779 314.05H212.594C212.954 314.053 213.31 313.983 213.641 313.844C213.971 313.705 214.269 313.5 214.515 313.243C214.76 312.986 214.949 312.681 215.068 312.349C215.188 312.016 215.235 311.663 215.208 311.312C215.179 310.583 214.866 309.892 214.333 309.382C213.8 308.873 213.087 308.583 212.342 308.573H187.542C187.181 308.571 186.824 308.641 186.493 308.78C186.162 308.918 185.863 309.123 185.617 309.38C185.37 309.637 185.18 309.941 185.059 310.274C184.938 310.606 184.888 310.96 184.913 311.312C184.942 312.041 185.255 312.731 185.789 313.241C186.322 313.751 187.034 314.04 187.779 314.05Z" fill="black"/>
</g>
<path d="M433.072 365.767H465.394C466.103 365.769 466.805 365.631 467.457 365.359C468.11 365.087 468.698 364.687 469.188 364.185C469.677 363.683 470.057 363.088 470.303 362.437C470.55 361.786 470.659 361.093 470.623 360.399L469.225 328.742C469.14 327.303 468.501 325.949 467.438 324.953C466.374 323.957 464.964 323.393 463.493 323.375H431.171C430.462 323.372 429.76 323.511 429.108 323.783C428.456 324.055 427.867 324.454 427.377 324.956C426.888 325.459 426.508 326.054 426.262 326.705C426.015 327.355 425.906 328.049 425.943 328.742L427.341 360.399C427.429 361.837 428.068 363.189 429.131 364.185C430.194 365.18 431.602 365.745 433.072 365.767Z" fill="#006BFF"/>
<path d="M383.737 365.767H416.059C416.768 365.771 417.471 365.634 418.124 365.363C418.777 365.091 419.367 364.692 419.857 364.189C420.347 363.686 420.726 363.091 420.972 362.439C421.218 361.787 421.325 361.093 421.287 360.399L419.889 328.742C419.804 327.303 419.166 325.949 418.102 324.953C417.038 323.957 415.629 323.393 414.157 323.375H381.794C381.084 323.372 380.382 323.511 379.729 323.783C379.076 324.055 378.486 324.454 377.995 324.956C377.505 325.458 377.124 326.053 376.876 326.704C376.627 327.354 376.517 328.048 376.551 328.742L378.019 360.399C378.1 361.837 378.736 363.191 379.797 364.187C380.859 365.183 382.267 365.748 383.737 365.767Z" fill="#006BFF"/>
<path d="M334.416 365.767H366.723C367.433 365.769 368.135 365.631 368.788 365.359C369.441 365.087 370.031 364.688 370.522 364.186C371.012 363.684 371.393 363.089 371.641 362.438C371.89 361.787 372 361.093 371.966 360.399L370.568 328.742C370.483 327.303 369.844 325.949 368.781 324.953C367.717 323.957 366.308 323.393 364.836 323.375H332.528C331.819 323.37 331.116 323.508 330.463 323.779C329.809 324.05 329.22 324.449 328.73 324.952C328.24 325.455 327.861 326.051 327.615 326.702C327.369 327.354 327.262 328.048 327.3 328.742L328.698 360.399C328.782 361.836 329.419 363.188 330.48 364.184C331.54 365.179 332.947 365.745 334.416 365.767Z" fill="#006BFF"/>
<path d="M285.08 365.767H317.346C318.056 365.771 318.76 365.634 319.413 365.363C320.067 365.092 320.658 364.692 321.149 364.19C321.64 363.687 322.02 363.092 322.268 362.44C322.516 361.788 322.625 361.094 322.588 360.399L321.19 328.742C321.109 327.305 320.473 325.951 319.412 324.954C318.351 323.958 316.943 323.393 315.473 323.375H283.151C282.442 323.372 281.74 323.511 281.088 323.783C280.435 324.055 279.847 324.454 279.357 324.956C278.868 325.459 278.488 326.054 278.242 326.705C277.995 327.355 277.886 328.049 277.922 328.742L279.32 360.399C279.405 361.843 280.048 363.201 281.118 364.197C282.187 365.194 283.604 365.755 285.08 365.767Z" fill="#006BFF"/>
<path d="M235.745 365.767H268.066C268.775 365.769 269.477 365.631 270.13 365.359C270.782 365.087 271.371 364.687 271.86 364.185C272.349 363.683 272.729 363.088 272.976 362.437C273.222 361.786 273.331 361.093 273.295 360.399L271.897 328.742C271.812 327.303 271.174 325.949 270.11 324.953C269.046 323.957 267.637 323.393 266.165 323.375H233.857C233.147 323.37 232.444 323.508 231.79 323.779C231.136 324.05 230.545 324.449 230.055 324.952C229.564 325.454 229.183 326.049 228.935 326.701C228.688 327.353 228.579 328.048 228.615 328.742L230.013 360.399C230.101 361.837 230.74 363.189 231.803 364.185C232.866 365.18 234.274 365.745 235.745 365.767Z" fill="#006BFF"/>
<path d="M186.423 365.767H218.731C219.44 365.771 220.143 365.634 220.797 365.363C221.45 365.091 222.039 364.692 222.529 364.189C223.019 363.686 223.399 363.091 223.644 362.439C223.89 361.787 223.998 361.093 223.96 360.399L222.562 328.742C222.477 327.303 221.838 325.949 220.774 324.953C219.711 323.957 218.301 323.393 216.83 323.375H184.522C183.812 323.372 183.11 323.511 182.457 323.783C181.804 324.055 181.214 324.454 180.724 324.956C180.233 325.458 179.852 326.053 179.604 326.704C179.356 327.354 179.245 328.048 179.279 328.742L180.747 360.399C180.828 361.83 181.458 363.178 182.51 364.173C183.563 365.169 184.96 365.738 186.423 365.767Z" fill="#006BFF"/>
<g opacity="0.8">
<path d="M433.072 365.767H465.394C466.103 365.769 466.805 365.631 467.457 365.359C468.11 365.087 468.698 364.687 469.188 364.185C469.677 363.683 470.057 363.088 470.303 362.437C470.55 361.786 470.659 361.093 470.623 360.399L469.225 328.742C469.14 327.303 468.501 325.949 467.438 324.953C466.374 323.957 464.964 323.393 463.493 323.375H431.171C430.462 323.372 429.76 323.511 429.108 323.783C428.456 324.055 427.867 324.454 427.377 324.957C426.888 325.459 426.508 326.054 426.262 326.705C426.015 327.355 425.906 328.049 425.943 328.742L427.341 360.399C427.429 361.837 428.068 363.189 429.131 364.185C430.194 365.18 431.602 365.745 433.072 365.767Z" fill="#FAFAFA"/>
<path d="M383.737 365.767H416.059C416.768 365.771 417.471 365.634 418.124 365.363C418.777 365.091 419.367 364.692 419.857 364.189C420.347 363.686 420.726 363.091 420.972 362.439C421.218 361.787 421.325 361.093 421.287 360.399L419.889 328.742C419.804 327.303 419.166 325.949 418.102 324.953C417.038 323.957 415.629 323.393 414.157 323.375H381.794C381.084 323.372 380.382 323.511 379.729 323.783C379.076 324.055 378.486 324.454 377.995 324.956C377.505 325.458 377.124 326.053 376.876 326.704C376.627 327.354 376.517 328.048 376.551 328.742L378.019 360.399C378.1 361.837 378.736 363.191 379.797 364.187C380.859 365.183 382.267 365.748 383.737 365.767Z" fill="#FAFAFA"/>
<path d="M334.416 365.767H366.723C367.433 365.769 368.135 365.631 368.788 365.359C369.441 365.087 370.031 364.688 370.522 364.186C371.012 363.684 371.393 363.089 371.641 362.438C371.89 361.787 372 361.093 371.966 360.399L370.568 328.742C370.483 327.303 369.844 325.949 368.781 324.953C367.717 323.957 366.308 323.393 364.836 323.375H332.528C331.819 323.37 331.116 323.508 330.463 323.779C329.809 324.05 329.22 324.449 328.73 324.952C328.24 325.455 327.861 326.051 327.615 326.702C327.369 327.354 327.262 328.048 327.3 328.742L328.698 360.399C328.782 361.836 329.419 363.188 330.48 364.184C331.54 365.179 332.947 365.745 334.416 365.767Z" fill="#FAFAFA"/>
<path d="M285.08 365.767H317.346C318.056 365.771 318.76 365.634 319.413 365.363C320.067 365.092 320.658 364.692 321.149 364.19C321.64 363.687 322.02 363.092 322.268 362.44C322.516 361.788 322.625 361.094 322.588 360.399L321.19 328.742C321.109 327.305 320.473 325.951 319.412 324.954C318.351 323.958 316.943 323.393 315.473 323.375H283.151C282.442 323.372 281.74 323.511 281.088 323.783C280.435 324.055 279.847 324.454 279.357 324.956C278.868 325.459 278.488 326.054 278.242 326.705C277.995 327.355 277.886 328.049 277.922 328.742L279.32 360.399C279.405 361.843 280.048 363.201 281.118 364.197C282.187 365.194 283.604 365.755 285.08 365.767Z" fill="#FAFAFA"/>
<path d="M235.745 365.767H268.066C268.775 365.769 269.477 365.631 270.13 365.359C270.782 365.087 271.371 364.687 271.86 364.185C272.349 363.683 272.729 363.088 272.976 362.437C273.222 361.786 273.331 361.093 273.295 360.399L271.897 328.742C271.812 327.303 271.174 325.949 270.11 324.953C269.046 323.957 267.637 323.393 266.165 323.375H233.857C233.147 323.37 232.444 323.508 231.79 323.779C231.136 324.05 230.545 324.449 230.055 324.951C229.564 325.454 229.183 326.049 228.935 326.701C228.688 327.353 228.579 328.048 228.615 328.742L230.013 360.399C230.101 361.837 230.74 363.189 231.803 364.185C232.866 365.18 234.274 365.745 235.745 365.767Z" fill="#FAFAFA"/>
<path d="M186.423 365.767H218.731C219.44 365.771 220.143 365.634 220.797 365.363C221.45 365.091 222.039 364.692 222.529 364.189C223.019 363.686 223.399 363.091 223.644 362.439C223.89 361.787 223.998 361.093 223.96 360.399L222.562 328.742C222.477 327.303 221.838 325.949 220.774 324.953C219.711 323.957 218.301 323.393 216.83 323.375H184.522C183.812 323.372 183.11 323.511 182.457 323.783C181.804 324.055 181.214 324.454 180.724 324.956C180.233 325.458 179.852 326.053 179.604 326.704C179.356 327.354 179.245 328.048 179.279 328.742L180.747 360.399C180.828 361.83 181.458 363.178 182.51 364.173C183.563 365.169 184.96 365.738 186.423 365.767Z" fill="#FAFAFA"/>
</g>
<path d="M435.337 414.882H467.659C468.368 414.884 469.07 414.745 469.722 414.474C470.375 414.202 470.963 413.802 471.453 413.3C471.942 412.798 472.322 412.203 472.568 411.552C472.815 410.901 472.924 410.208 472.888 409.514L471.49 377.857C471.402 376.419 470.762 375.067 469.699 374.072C468.636 373.076 467.228 372.511 465.758 372.49H433.38C432.671 372.487 431.969 372.626 431.317 372.898C430.665 373.17 430.076 373.569 429.587 374.071C429.097 374.574 428.718 375.169 428.471 375.819C428.224 376.47 428.116 377.164 428.152 377.857L429.55 409.514C429.638 410.961 430.286 412.321 431.361 413.318C432.435 414.315 433.857 414.874 435.337 414.882Z" fill="#006BFF"/>
<path d="M386.002 414.882H418.324C419.032 414.884 419.734 414.745 420.387 414.473C421.039 414.202 421.628 413.802 422.117 413.3C422.606 412.797 422.986 412.203 423.233 411.552C423.48 410.901 423.588 410.207 423.552 409.514L422.154 377.857C422.069 376.418 421.431 375.064 420.367 374.068C419.303 373.072 417.894 372.508 416.422 372.49H384.114C383.399 372.485 382.69 372.624 382.031 372.898C381.373 373.172 380.779 373.576 380.286 374.084C379.793 374.593 379.412 375.195 379.166 375.853C378.921 376.511 378.816 377.212 378.858 377.912L380.256 409.514C380.338 410.956 380.977 412.314 382.045 413.311C383.112 414.308 384.527 414.87 386.002 414.882Z" fill="#006BFF"/>
<path d="M336.68 414.882H368.988C369.698 414.886 370.401 414.749 371.054 414.478C371.707 414.206 372.297 413.807 372.786 413.304C373.276 412.801 373.656 412.206 373.902 411.554C374.148 410.902 374.255 410.208 374.217 409.514L372.819 377.857C372.734 376.418 372.095 375.064 371.032 374.068C369.968 373.072 368.558 372.508 367.087 372.49H334.779C334.07 372.485 333.367 372.622 332.714 372.894C332.06 373.165 331.471 373.564 330.981 374.067C330.491 374.57 330.112 375.165 329.866 375.817C329.62 376.469 329.512 377.163 329.551 377.857L330.949 409.514C331.033 410.953 331.672 412.307 332.736 413.303C333.799 414.299 335.209 414.863 336.68 414.882Z" fill="#006BFF"/>
<path d="M287.345 414.882H319.653C320.362 414.884 321.065 414.745 321.718 414.474C322.371 414.202 322.96 413.803 323.451 413.301C323.941 412.798 324.322 412.204 324.57 411.553C324.819 410.902 324.929 410.208 324.895 409.514L323.497 377.857C323.416 376.419 322.78 375.065 321.719 374.069C320.657 373.073 319.249 372.508 317.779 372.49H285.457C284.738 372.477 284.023 372.61 283.359 372.881C282.694 373.153 282.094 373.555 281.596 374.065C281.099 374.574 280.714 375.179 280.467 375.841C280.219 376.503 280.115 377.208 280.159 377.912L281.557 409.569C281.656 411.007 282.309 412.356 283.383 413.342C284.457 414.328 285.873 414.878 287.345 414.882Z" fill="#006BFF"/>
<path d="M238.009 414.882H270.331C271.04 414.884 271.742 414.745 272.394 414.473C273.047 414.202 273.635 413.802 274.125 413.3C274.614 412.797 274.994 412.203 275.24 411.552C275.487 410.901 275.596 410.207 275.56 409.514L274.162 377.857C274.087 376.407 273.452 375.04 272.384 374.032C271.317 373.025 269.898 372.454 268.416 372.435H236.094C235.385 372.432 234.683 372.571 234.031 372.843C233.379 373.115 232.79 373.514 232.301 374.017C231.811 374.519 231.432 375.114 231.185 375.765C230.938 376.416 230.829 377.109 230.866 377.802L232.264 409.459C232.338 410.909 232.974 412.277 234.041 413.284C235.108 414.291 236.527 414.862 238.009 414.882Z" fill="#006BFF"/>
<path d="M188.73 414.882H220.996C221.705 414.886 222.408 414.749 223.061 414.478C223.715 414.206 224.304 413.807 224.794 413.304C225.284 412.801 225.663 412.206 225.909 411.554C226.155 410.902 226.263 410.208 226.224 409.514L224.826 377.857C224.742 376.418 224.103 375.064 223.039 374.068C221.976 373.072 220.566 372.508 219.095 372.49H186.787C186.077 372.487 185.375 372.626 184.722 372.898C184.069 373.169 183.479 373.569 182.989 374.071C182.498 374.573 182.117 375.167 181.869 375.818C181.621 376.469 181.51 377.163 181.544 377.857L183.012 409.514C183.094 410.952 183.729 412.306 184.791 413.302C185.852 414.298 187.26 414.863 188.73 414.882Z" fill="#006BFF"/>
<g opacity="0.8">
<path d="M435.337 414.882H467.659C468.368 414.884 469.07 414.746 469.722 414.474C470.375 414.202 470.963 413.802 471.453 413.3C471.942 412.798 472.322 412.203 472.568 411.552C472.815 410.901 472.924 410.208 472.888 409.514L471.49 377.857C471.402 376.419 470.762 375.067 469.699 374.072C468.636 373.076 467.228 372.511 465.758 372.49H433.38C432.671 372.487 431.969 372.626 431.317 372.898C430.665 373.17 430.076 373.569 429.587 374.071C429.097 374.574 428.718 375.169 428.471 375.82C428.224 376.47 428.116 377.164 428.152 377.857L429.55 409.514C429.638 410.961 430.286 412.321 431.361 413.318C432.435 414.315 433.857 414.874 435.337 414.882Z" fill="#FAFAFA"/>
<path d="M386.002 414.882H418.324C419.033 414.884 419.735 414.746 420.387 414.474C421.039 414.202 421.628 413.802 422.117 413.3C422.607 412.798 422.986 412.203 423.233 411.552C423.48 410.901 423.588 410.208 423.552 409.514L422.154 377.857C422.069 376.418 421.431 375.064 420.367 374.068C419.303 373.072 417.894 372.508 416.422 372.49H384.115C383.399 372.485 382.69 372.624 382.031 372.898C381.373 373.172 380.779 373.576 380.286 374.085C379.793 374.593 379.412 375.195 379.167 375.853C378.921 376.512 378.816 377.212 378.858 377.912L380.256 409.514C380.338 410.957 380.977 412.314 382.045 413.311C383.112 414.308 384.527 414.87 386.002 414.882Z" fill="#FAFAFA"/>
<path d="M336.681 414.882H368.988C369.698 414.886 370.401 414.749 371.054 414.478C371.707 414.206 372.297 413.807 372.787 413.304C373.276 412.801 373.656 412.206 373.902 411.554C374.148 410.902 374.255 410.208 374.217 409.514L372.819 377.857C372.734 376.418 372.095 375.064 371.032 374.068C369.968 373.072 368.559 372.508 367.087 372.49H334.779C334.07 372.485 333.367 372.622 332.714 372.894C332.06 373.165 331.471 373.564 330.981 374.067C330.491 374.57 330.112 375.166 329.866 375.817C329.62 376.469 329.513 377.163 329.551 377.857L330.949 409.514C331.034 410.953 331.672 412.307 332.736 413.303C333.799 414.299 335.209 414.863 336.681 414.882Z" fill="#FAFAFA"/>
<path d="M287.345 414.882H319.653C320.362 414.884 321.065 414.745 321.718 414.474C322.371 414.202 322.96 413.803 323.451 413.301C323.941 412.798 324.322 412.204 324.571 411.553C324.819 410.902 324.929 410.208 324.895 409.514L323.497 377.857C323.416 376.419 322.78 375.066 321.719 374.069C320.657 373.073 319.249 372.508 317.779 372.49H285.458C284.738 372.477 284.023 372.61 283.359 372.882C282.694 373.153 282.094 373.556 281.597 374.065C281.099 374.574 280.714 375.179 280.467 375.841C280.219 376.503 280.115 377.208 280.159 377.912L281.557 409.569C281.656 411.007 282.309 412.356 283.383 413.342C284.457 414.328 285.873 414.878 287.345 414.882Z" fill="#FAFAFA"/>
<path d="M238.01 414.882H270.331C271.04 414.884 271.742 414.745 272.395 414.473C273.047 414.202 273.636 413.802 274.125 413.3C274.614 412.797 274.994 412.203 275.241 411.552C275.487 410.901 275.596 410.207 275.56 409.514L274.162 377.857C274.087 376.407 273.452 375.04 272.384 374.032C271.317 373.025 269.898 372.454 268.416 372.435H236.094C235.385 372.432 234.683 372.571 234.031 372.843C233.379 373.115 232.79 373.514 232.301 374.017C231.811 374.519 231.432 375.114 231.185 375.765C230.938 376.416 230.83 377.109 230.866 377.802L232.264 409.459C232.338 410.909 232.974 412.277 234.041 413.284C235.109 414.291 236.528 414.862 238.01 414.882Z" fill="#FAFAFA"/>
<path d="M188.73 414.882H220.996C221.705 414.886 222.408 414.749 223.062 414.478C223.715 414.206 224.304 413.807 224.794 413.304C225.284 412.801 225.664 412.206 225.909 411.554C226.155 410.902 226.263 410.208 226.225 409.514L224.827 377.857C224.742 376.418 224.103 375.064 223.039 374.068C221.976 373.072 220.566 372.508 219.095 372.49H186.787C186.077 372.487 185.375 372.626 184.722 372.898C184.069 373.169 183.479 373.569 182.989 374.071C182.498 374.573 182.117 375.168 181.869 375.818C181.621 376.469 181.51 377.163 181.544 377.857L183.012 409.514C183.094 410.952 183.729 412.306 184.791 413.302C185.852 414.298 187.26 414.863 188.73 414.882Z" fill="#FAFAFA"/>
</g>
<path d="M437.574 463.983H469.924C470.633 463.987 471.336 463.85 471.989 463.579C472.643 463.307 473.232 462.908 473.722 462.405C474.212 461.903 474.591 461.307 474.837 460.655C475.083 460.003 475.19 459.309 475.152 458.615L473.754 426.972C473.669 425.533 473.031 424.179 471.967 423.183C470.904 422.187 469.494 421.623 468.022 421.605H435.701C434.991 421.6 434.288 421.737 433.635 422.009C432.982 422.28 432.392 422.679 431.902 423.182C431.413 423.685 431.033 424.28 430.787 424.932C430.541 425.584 430.434 426.278 430.472 426.972L431.87 458.615C431.951 460.051 432.585 461.403 433.643 462.399C434.702 463.395 436.106 463.961 437.574 463.983Z" fill="#006BFF"/>
<path d="M388.267 463.983H420.588C421.298 463.987 422.001 463.85 422.654 463.579C423.307 463.307 423.897 462.908 424.387 462.405C424.876 461.903 425.256 461.307 425.502 460.655C425.748 460.003 425.855 459.309 425.817 458.615L424.419 426.972C424.337 425.532 423.7 424.176 422.635 423.179C421.571 422.183 420.16 421.62 418.687 421.605H386.379C385.669 421.598 384.964 421.734 384.309 422.004C383.654 422.275 383.063 422.674 382.572 423.177C382.081 423.68 381.7 424.276 381.453 424.929C381.206 425.582 381.098 426.277 381.137 426.972L382.535 458.615C382.613 460.056 383.25 461.414 384.315 462.411C385.38 463.409 386.793 463.971 388.267 463.983Z" fill="#006BFF"/>
<path d="M338.945 463.983H371.253C371.962 463.987 372.665 463.85 373.318 463.579C373.972 463.307 374.561 462.908 375.051 462.405C375.541 461.903 375.92 461.307 376.166 460.655C376.412 460.003 376.52 459.309 376.481 458.615L375.083 426.972C375.002 425.532 374.364 424.176 373.3 423.179C372.236 422.183 370.824 421.62 369.352 421.604H336.918C336.208 421.6 335.504 421.737 334.85 422.008C334.197 422.28 333.606 422.679 333.115 423.181C332.624 423.684 332.243 424.279 331.996 424.931C331.748 425.583 331.639 426.277 331.675 426.972L333.143 458.615C333.226 460.067 333.873 461.433 334.952 462.431C336.032 463.43 337.46 463.985 338.945 463.983Z" fill="#006BFF"/>
<path d="M289.61 463.983H321.918C322.628 463.987 323.331 463.85 323.985 463.579C324.639 463.308 325.23 462.909 325.72 462.406C326.211 461.903 326.592 461.308 326.84 460.656C327.087 460.004 327.196 459.31 327.16 458.615L325.762 426.972C325.684 425.533 325.049 424.177 323.987 423.18C322.925 422.183 321.515 421.62 320.044 421.605H287.723C287.013 421.6 286.31 421.737 285.657 422.009C285.004 422.28 284.414 422.679 283.924 423.182C283.435 423.685 283.055 424.28 282.809 424.932C282.563 425.584 282.456 426.278 282.494 426.972L283.892 458.615C283.973 460.053 284.609 461.407 285.67 462.403C286.732 463.4 288.14 463.964 289.61 463.983Z" fill="#006BFF"/>
<path d="M240.274 463.983H272.61C273.319 463.987 274.022 463.85 274.675 463.579C275.329 463.307 275.918 462.908 276.408 462.405C276.898 461.903 277.277 461.307 277.523 460.655C277.769 460.003 277.876 459.309 277.838 458.615L276.44 426.972C276.356 425.533 275.717 424.179 274.653 423.183C273.59 422.187 272.18 421.623 270.709 421.605H238.387C237.677 421.6 236.974 421.737 236.321 422.009C235.668 422.28 235.078 422.679 234.589 423.182C234.099 423.685 233.719 424.28 233.473 424.932C233.227 425.584 233.12 426.278 233.158 426.972L234.556 458.615C234.641 460.052 235.277 461.404 236.338 462.4C237.399 463.395 238.805 463.961 240.274 463.983Z" fill="#006BFF"/>
<path d="M190.939 463.983H223.26C223.97 463.987 224.673 463.85 225.326 463.579C225.979 463.307 226.569 462.908 227.059 462.405C227.548 461.903 227.928 461.307 228.174 460.655C228.42 460.003 228.527 459.309 228.489 458.615L227.091 426.972C227.009 425.532 226.372 424.176 225.307 423.179C224.243 422.183 222.832 421.62 221.359 421.604H189.051C188.341 421.6 187.638 421.737 186.984 422.008C186.33 422.28 185.739 422.679 185.249 423.181C184.758 423.684 184.377 424.279 184.129 424.931C183.882 425.583 183.773 426.277 183.809 426.972L185.277 458.615C185.354 460.045 185.981 461.393 187.031 462.388C188.081 463.384 189.477 463.954 190.939 463.983Z" fill="#006BFF"/>
<g opacity="0.8">
<path d="M437.574 463.983H469.924C470.633 463.987 471.336 463.85 471.989 463.579C472.643 463.307 473.232 462.908 473.722 462.405C474.212 461.903 474.591 461.307 474.837 460.655C475.083 460.003 475.19 459.309 475.152 458.615L473.754 426.972C473.669 425.533 473.031 424.179 471.967 423.183C470.904 422.187 469.494 421.623 468.022 421.604H435.701C434.991 421.6 434.288 421.737 433.635 422.009C432.982 422.28 432.392 422.679 431.902 423.182C431.413 423.685 431.033 424.28 430.787 424.932C430.541 425.584 430.434 426.278 430.472 426.972L431.87 458.615C431.951 460.051 432.585 461.403 433.643 462.399C434.702 463.395 436.106 463.961 437.574 463.983Z" fill="#FAFAFA"/>
<path d="M388.266 463.983H420.588C421.298 463.987 422.001 463.85 422.654 463.579C423.307 463.307 423.897 462.908 424.386 462.405C424.876 461.903 425.256 461.307 425.502 460.655C425.748 460.003 425.855 459.309 425.817 458.615L424.419 426.972C424.337 425.532 423.7 424.176 422.635 423.179C421.571 422.183 420.159 421.62 418.687 421.604H386.379C385.668 421.598 384.964 421.734 384.309 422.004C383.654 422.275 383.063 422.674 382.572 423.177C382.08 423.68 381.7 424.276 381.453 424.929C381.206 425.582 381.098 426.277 381.137 426.972L382.535 458.615C382.613 460.056 383.249 461.414 384.314 462.411C385.38 463.409 386.793 463.971 388.266 463.983Z" fill="#FAFAFA"/>
<path d="M338.945 463.983H371.253C371.962 463.987 372.665 463.85 373.318 463.579C373.972 463.307 374.561 462.908 375.051 462.405C375.541 461.902 375.92 461.307 376.166 460.655C376.412 460.003 376.52 459.309 376.481 458.615L375.083 426.972C375.002 425.532 374.364 424.176 373.3 423.179C372.236 422.183 370.824 421.62 369.352 421.604H336.918C336.208 421.6 335.504 421.737 334.85 422.008C334.197 422.28 333.606 422.679 333.115 423.181C332.624 423.684 332.243 424.279 331.996 424.931C331.748 425.583 331.639 426.277 331.675 426.972L333.143 458.615C333.226 460.067 333.873 461.433 334.952 462.431C336.032 463.43 337.46 463.985 338.945 463.983Z" fill="#FAFAFA"/>
<path d="M289.61 463.983H321.918C322.628 463.987 323.331 463.85 323.985 463.579C324.639 463.308 325.23 462.908 325.72 462.406C326.211 461.903 326.592 461.308 326.84 460.656C327.087 460.004 327.196 459.31 327.16 458.615L325.762 426.972C325.684 425.533 325.049 424.177 323.987 423.18C322.925 422.183 321.515 421.62 320.044 421.604H287.723C287.013 421.6 286.31 421.737 285.657 422.009C285.004 422.28 284.414 422.679 283.924 423.182C283.435 423.685 283.055 424.28 282.809 424.932C282.563 425.584 282.456 426.278 282.494 426.972L283.892 458.615C283.973 460.053 284.609 461.407 285.67 462.403C286.732 463.399 288.14 463.964 289.61 463.983Z" fill="#FAFAFA"/>
<path d="M240.274 463.983H272.61C273.319 463.987 274.022 463.85 274.675 463.579C275.329 463.307 275.918 462.908 276.408 462.405C276.898 461.903 277.277 461.307 277.523 460.655C277.769 460.003 277.876 459.309 277.838 458.615L276.44 426.972C276.356 425.533 275.717 424.179 274.653 423.183C273.59 422.187 272.18 421.623 270.709 421.604H238.387C237.677 421.6 236.974 421.737 236.321 422.009C235.668 422.28 235.078 422.679 234.589 423.182C234.099 423.685 233.719 424.28 233.473 424.932C233.227 425.584 233.12 426.278 233.158 426.972L234.556 458.615C234.641 460.052 235.277 461.404 236.338 462.4C237.399 463.395 238.805 463.961 240.274 463.983Z" fill="#FAFAFA"/>
<path d="M190.939 463.983H223.26C223.97 463.987 224.673 463.85 225.326 463.579C225.979 463.307 226.569 462.908 227.059 462.405C227.548 461.902 227.928 461.307 228.174 460.655C228.42 460.003 228.527 459.309 228.489 458.615L227.091 426.972C227.009 425.532 226.372 424.176 225.307 423.179C224.243 422.183 222.832 421.62 221.359 421.604H189.051C188.341 421.6 187.638 421.737 186.984 422.008C186.33 422.28 185.739 422.679 185.249 423.181C184.758 423.684 184.377 424.279 184.129 424.931C183.882 425.583 183.773 426.277 183.809 426.972L185.277 458.615C185.354 460.045 185.981 461.393 187.031 462.388C188.081 463.384 189.477 463.953 190.939 463.983Z" fill="#FAFAFA"/>
</g>
<path d="M446.731 297.729C458.642 297.729 467.981 284.16 467.981 266.839C467.981 249.518 458.642 235.962 446.731 235.962C434.82 235.962 425.468 249.531 425.468 266.839C425.522 267.65 425.889 268.412 426.496 268.968C427.102 269.524 427.901 269.833 428.732 269.833C429.562 269.833 430.362 269.524 430.968 268.968C431.574 268.412 431.942 267.65 431.996 266.839C431.996 253.571 438.735 242.343 446.731 242.343C454.728 242.343 461.466 253.571 461.466 266.839C461.466 280.107 454.714 291.334 446.731 291.334C446.284 291.306 445.837 291.367 445.415 291.515C444.994 291.663 444.608 291.894 444.281 292.193C443.954 292.493 443.694 292.855 443.516 293.257C443.338 293.66 443.246 294.093 443.246 294.532C443.246 294.97 443.338 295.404 443.516 295.806C443.694 296.208 443.954 296.57 444.281 296.87C444.608 297.17 444.994 297.401 445.415 297.548C445.837 297.696 446.284 297.758 446.731 297.729Z" fill="#006BFF"/>
<path d="M397.396 297.729C409.306 297.729 418.645 284.16 418.645 266.839C418.645 249.518 409.306 235.962 397.396 235.962C385.485 235.962 376.062 249.531 376.062 266.839C376.116 267.65 376.484 268.412 377.09 268.968C377.696 269.524 378.496 269.833 379.326 269.833C380.157 269.833 380.956 269.524 381.563 268.968C382.169 268.412 382.536 267.65 382.591 266.839C382.591 253.571 389.329 242.343 397.326 242.343C405.322 242.343 412.061 253.571 412.061 266.839C412.061 280.107 405.308 291.334 397.326 291.334C396.497 291.388 395.72 291.748 395.152 292.341C394.584 292.935 394.268 293.718 394.268 294.532C394.268 295.345 394.584 296.128 395.152 296.722C395.72 297.316 396.497 297.676 397.326 297.729H397.396Z" fill="#006BFF"/>
<path d="M348.102 297.729C360.027 297.729 369.366 284.16 369.366 266.839C369.366 249.518 360.027 235.962 348.102 235.962C336.177 235.962 326.852 249.531 326.852 266.839C326.852 267.685 327.196 268.496 327.806 269.095C328.417 269.693 329.246 270.029 330.11 270.029C330.974 270.029 331.802 269.693 332.413 269.095C333.024 268.496 333.367 267.685 333.367 266.839C333.367 253.571 340.119 242.343 348.102 242.343C356.085 242.343 362.837 253.571 362.837 266.839C362.837 280.107 356.085 291.334 348.102 291.334C347.273 291.388 346.496 291.748 345.928 292.341C345.36 292.935 345.044 293.718 345.044 294.532C345.044 295.345 345.36 296.128 345.928 296.722C346.496 297.316 347.273 297.676 348.102 297.729Z" fill="#006BFF"/>
<path d="M298.725 297.729C310.65 297.729 319.988 284.16 319.988 266.839C319.988 249.518 310.65 235.962 298.725 235.962C286.8 235.962 277.475 249.531 277.475 266.839C277.475 267.685 277.818 268.496 278.429 269.095C279.04 269.693 279.869 270.029 280.732 270.029C281.596 270.029 282.425 269.693 283.036 269.095C283.647 268.496 283.99 267.685 283.99 266.839C283.99 253.571 290.742 242.343 298.725 242.343C306.707 242.343 313.46 253.571 313.46 266.839C313.46 280.107 306.721 291.334 298.725 291.334C297.896 291.388 297.119 291.748 296.551 292.341C295.983 292.935 295.667 293.718 295.667 294.532C295.667 295.345 295.983 296.128 296.551 296.722C297.119 297.316 297.896 297.676 298.725 297.729Z" fill="#006BFF"/>
<path d="M249.403 297.729C261.314 297.729 270.653 284.16 270.653 266.839C270.653 249.518 261.314 235.962 249.403 235.962C237.492 235.962 228.14 249.531 228.14 266.839C228.194 267.65 228.561 268.412 229.168 268.968C229.774 269.524 230.573 269.833 231.404 269.833C232.235 269.833 233.034 269.524 233.64 268.968C234.247 268.412 234.614 267.65 234.668 266.839C234.668 253.571 241.407 242.343 249.403 242.343C257.4 242.343 264.138 253.571 264.138 266.839C264.138 280.107 257.386 291.334 249.403 291.334C248.957 291.306 248.509 291.367 248.087 291.515C247.666 291.663 247.28 291.894 246.953 292.193C246.626 292.493 246.366 292.855 246.188 293.257C246.01 293.66 245.918 294.093 245.918 294.532C245.918 294.97 246.01 295.404 246.188 295.806C246.366 296.208 246.626 296.57 246.953 296.87C247.28 297.17 247.666 297.401 248.087 297.548C248.509 297.696 248.957 297.758 249.403 297.729Z" fill="#006BFF"/>
<path d="M200.068 297.729C211.979 297.729 221.317 284.16 221.317 266.839C221.317 249.518 211.979 235.962 200.068 235.962C188.157 235.962 178.804 249.531 178.804 266.839C178.858 267.65 179.226 268.412 179.832 268.968C180.438 269.524 181.238 269.833 182.068 269.833C182.899 269.833 183.699 269.524 184.305 268.968C184.911 268.412 185.278 267.65 185.333 266.839C185.333 253.571 192.085 242.343 200.068 242.343C208.05 242.343 214.803 253.571 214.803 266.839C214.803 280.107 208.05 291.334 200.068 291.334C199.239 291.388 198.462 291.748 197.894 292.341C197.326 292.935 197.01 293.718 197.01 294.532C197.01 295.345 197.326 296.128 197.894 296.722C198.462 297.316 199.239 297.676 200.068 297.729Z" fill="#006BFF"/>
<g opacity="0.3">
<path d="M446.731 297.729C458.642 297.729 467.981 284.16 467.981 266.839C467.981 249.518 458.642 235.962 446.731 235.962C434.82 235.962 425.468 249.531 425.468 266.839C425.522 267.65 425.889 268.412 426.496 268.968C427.102 269.524 427.901 269.833 428.732 269.833C429.562 269.833 430.362 269.524 430.968 268.968C431.574 268.412 431.942 267.65 431.996 266.839C431.996 253.571 438.735 242.343 446.731 242.343C454.728 242.343 461.466 253.571 461.466 266.839C461.466 280.107 454.714 291.334 446.731 291.334C446.284 291.306 445.837 291.367 445.415 291.515C444.994 291.663 444.608 291.894 444.281 292.193C443.954 292.493 443.694 292.855 443.516 293.257C443.338 293.66 443.246 294.093 443.246 294.532C443.246 294.97 443.338 295.404 443.516 295.806C443.694 296.208 443.954 296.57 444.281 296.87C444.608 297.17 444.994 297.401 445.415 297.548C445.837 297.696 446.284 297.758 446.731 297.729Z" fill="black"/>
<path d="M397.396 297.729C409.306 297.729 418.645 284.16 418.645 266.839C418.645 249.518 409.306 235.962 397.396 235.962C385.485 235.962 376.062 249.531 376.062 266.839C376.116 267.65 376.484 268.412 377.09 268.968C377.696 269.524 378.496 269.833 379.326 269.833C380.157 269.833 380.956 269.524 381.563 268.968C382.169 268.412 382.536 267.65 382.591 266.839C382.591 253.571 389.329 242.343 397.326 242.343C405.322 242.343 412.061 253.571 412.061 266.839C412.061 280.107 405.308 291.334 397.326 291.334C396.497 291.388 395.72 291.748 395.152 292.341C394.584 292.935 394.268 293.718 394.268 294.532C394.268 295.345 394.584 296.128 395.152 296.722C395.72 297.316 396.497 297.676 397.326 297.729H397.396Z" fill="black"/>
<path d="M348.102 297.729C360.027 297.729 369.366 284.16 369.366 266.839C369.366 249.518 360.027 235.962 348.102 235.962C336.177 235.962 326.852 249.531 326.852 266.839C326.852 267.685 327.196 268.496 327.806 269.095C328.417 269.693 329.246 270.029 330.11 270.029C330.974 270.029 331.802 269.693 332.413 269.095C333.024 268.496 333.367 267.685 333.367 266.839C333.367 253.571 340.119 242.343 348.102 242.343C356.085 242.343 362.837 253.571 362.837 266.839C362.837 280.107 356.085 291.334 348.102 291.334C347.273 291.388 346.496 291.748 345.928 292.341C345.36 292.935 345.044 293.718 345.044 294.532C345.044 295.345 345.36 296.128 345.928 296.722C346.496 297.316 347.273 297.676 348.102 297.729Z" fill="black"/>
<path d="M298.725 297.729C310.65 297.729 319.988 284.16 319.988 266.839C319.988 249.518 310.65 235.962 298.725 235.962C286.8 235.962 277.475 249.531 277.475 266.839C277.475 267.685 277.818 268.496 278.429 269.095C279.04 269.693 279.869 270.029 280.732 270.029C281.596 270.029 282.425 269.693 283.036 269.095C283.647 268.496 283.99 267.685 283.99 266.839C283.99 253.571 290.742 242.343 298.725 242.343C306.707 242.343 313.46 253.571 313.46 266.839C313.46 280.107 306.721 291.334 298.725 291.334C297.896 291.388 297.119 291.748 296.551 292.341C295.983 292.935 295.667 293.718 295.667 294.532C295.667 295.345 295.983 296.128 296.551 296.722C297.119 297.316 297.896 297.676 298.725 297.729Z" fill="black"/>
<path d="M249.403 297.729C261.314 297.729 270.653 284.16 270.653 266.839C270.653 249.518 261.314 235.962 249.403 235.962C237.492 235.962 228.14 249.531 228.14 266.839C228.194 267.65 228.561 268.412 229.168 268.968C229.774 269.524 230.573 269.833 231.404 269.833C232.235 269.833 233.034 269.524 233.64 268.968C234.247 268.412 234.614 267.65 234.668 266.839C234.668 253.571 241.407 242.343 249.403 242.343C257.4 242.343 264.138 253.571 264.138 266.839C264.138 280.107 257.386 291.334 249.403 291.334C248.957 291.306 248.509 291.367 248.087 291.515C247.666 291.663 247.28 291.894 246.953 292.193C246.626 292.493 246.366 292.855 246.188 293.257C246.01 293.66 245.918 294.093 245.918 294.532C245.918 294.97 246.01 295.404 246.188 295.806C246.366 296.208 246.626 296.57 246.953 296.87C247.28 297.17 247.666 297.401 248.087 297.548C248.509 297.696 248.957 297.758 249.403 297.729Z" fill="black"/>
<path d="M200.068 297.729C211.979 297.729 221.317 284.16 221.317 266.839C221.317 249.518 211.979 235.962 200.068 235.962C188.157 235.962 178.804 249.531 178.804 266.839C178.858 267.65 179.226 268.412 179.832 268.968C180.438 269.524 181.238 269.833 182.068 269.833C182.899 269.833 183.699 269.524 184.305 268.968C184.911 268.412 185.278 267.65 185.333 266.839C185.333 253.571 192.085 242.343 200.068 242.343C208.05 242.343 214.803 253.571 214.803 266.839C214.803 280.107 208.05 291.334 200.068 291.334C199.239 291.388 198.462 291.748 197.894 292.341C197.326 292.935 197.01 293.718 197.01 294.532C197.01 295.345 197.326 296.128 197.894 296.722C198.462 297.316 199.239 297.676 200.068 297.729Z" fill="black"/>
</g>
<path d="M295.425 367.533C306.833 365.315 319.639 367.903 324.21 379.678C327.887 389.153 323.176 399.423 313.026 401.928C304.079 404.133 288.645 401.436 285.458 391.33C281.809 379.774 296.642 376.022 304.96 375.338C307.462 375.132 307.448 378.966 304.96 379.172C301.171 379.487 296.837 379.692 293.482 381.732C286.492 386.018 289.372 392.891 295.327 396.178C301.283 399.464 310.412 400.285 316.297 396.643C322.728 392.631 322.938 383.813 319.093 378.062C314.047 370.463 304.834 369.614 296.53 371.216C294.069 371.695 293.021 367.999 295.495 367.519L295.425 367.533Z" fill="#006BFF"/>
<path opacity="0.1" d="M295.425 367.533C306.833 365.315 319.639 367.903 324.21 379.678C327.887 389.153 323.176 399.423 313.026 401.928C304.079 404.133 288.645 401.436 285.458 391.33C281.809 379.774 296.642 376.022 304.96 375.338C307.462 375.132 307.448 378.966 304.96 379.172C301.171 379.487 296.837 379.692 293.482 381.732C286.492 386.018 289.372 392.891 295.327 396.178C301.283 399.464 310.412 400.285 316.297 396.643C322.728 392.631 322.938 383.813 319.093 378.062C314.047 370.463 304.834 369.614 296.53 371.216C294.069 371.695 293.021 367.999 295.495 367.519L295.425 367.533Z" fill="#FAFAFA"/>
<path d="M421.287 323.43C410.378 337.595 398.215 350.791 384.939 362.864C383.094 364.548 380.312 361.837 382.143 360.125C395.191 348.291 407.153 335.356 417.89 321.472C419.386 319.527 422.783 321.472 421.259 323.402L421.287 323.43Z" fill="#006BFF"/>
<path d="M417.247 361.262C408.999 346.898 394.557 334.644 380.899 325.264C378.858 323.895 380.801 320.527 382.87 321.951C397.074 331.727 412.004 344.352 420.616 359.318C420.852 359.754 420.908 360.262 420.771 360.737C420.634 361.212 420.315 361.617 419.881 361.868C419.447 362.118 418.931 362.195 418.44 362.082C417.949 361.969 417.522 361.676 417.247 361.262Z" fill="#006BFF"/>
<g opacity="0.2">
<path d="M421.287 323.43C410.378 337.595 398.215 350.791 384.939 362.864C383.094 364.548 380.312 361.837 382.143 360.125C395.191 348.291 407.153 335.356 417.89 321.472C419.386 319.527 422.783 321.472 421.259 323.402L421.287 323.43Z" fill="black"/>
<path d="M417.247 361.262C408.999 346.898 394.557 334.644 380.899 325.264C378.858 323.895 380.801 320.527 382.87 321.951C397.074 331.727 412.004 344.352 420.616 359.318C420.852 359.754 420.908 360.262 420.771 360.737C420.634 361.212 420.315 361.617 419.881 361.868C419.447 362.118 418.931 362.195 418.44 362.082C417.949 361.97 417.522 361.676 417.247 361.262Z" fill="black"/>
</g>
<path d="M265.802 335.684H240.288C239.799 335.644 239.344 335.425 239.012 335.071C238.68 334.717 238.496 334.255 238.496 333.774C238.496 333.294 238.68 332.831 239.012 332.477C239.344 332.124 239.799 331.905 240.288 331.864H265.802C266.29 331.905 266.746 332.124 267.078 332.477C267.409 332.831 267.594 333.294 267.594 333.774C267.594 334.255 267.409 334.717 267.078 335.071C266.746 335.425 266.29 335.644 265.802 335.684Z" fill="#006BFF"/>
<path d="M266.095 342.791H251.304C250.785 342.791 250.287 342.589 249.92 342.229C249.553 341.87 249.347 341.382 249.347 340.874C249.347 340.365 249.553 339.878 249.92 339.518C250.287 339.159 250.785 338.957 251.304 338.957H266.095C266.614 338.957 267.112 339.159 267.479 339.518C267.846 339.878 268.052 340.365 268.052 340.874C268.052 341.382 267.846 341.87 267.479 342.229C267.112 342.589 266.614 342.791 266.095 342.791Z" fill="#006BFF"/>
<g opacity="0.1">
<path d="M265.802 335.684H240.288C239.799 335.644 239.344 335.425 239.012 335.071C238.68 334.717 238.496 334.255 238.496 333.774C238.496 333.294 238.68 332.831 239.012 332.477C239.344 332.123 239.799 331.905 240.288 331.864H265.802C266.29 331.905 266.746 332.123 267.078 332.477C267.409 332.831 267.594 333.294 267.594 333.774C267.594 334.255 267.409 334.717 267.078 335.071C266.746 335.425 266.29 335.644 265.802 335.684Z" fill="#FAFAFA"/>
<path d="M266.095 342.791H251.304C250.785 342.791 250.287 342.589 249.92 342.229C249.553 341.87 249.347 341.382 249.347 340.874C249.347 340.365 249.553 339.878 249.92 339.518C250.287 339.159 250.785 338.957 251.304 338.957H266.095C266.614 338.957 267.112 339.159 267.479 339.518C267.846 339.878 268.052 340.365 268.052 340.874C268.052 341.382 267.846 341.87 267.479 342.229C267.112 342.589 266.614 342.791 266.095 342.791Z" fill="#FAFAFA"/>
</g>
<path d="M418.617 433.777H396.738C396.219 433.777 395.721 433.575 395.354 433.216C394.987 432.856 394.781 432.369 394.781 431.86C394.781 431.352 394.987 430.864 395.354 430.505C395.721 430.145 396.219 429.943 396.738 429.943H418.617C419.136 429.943 419.634 430.145 420.001 430.505C420.368 430.864 420.574 431.352 420.574 431.86C420.574 432.369 420.368 432.856 420.001 433.216C419.634 433.575 419.136 433.777 418.617 433.777Z" fill="#006BFF"/>
<path d="M419.4 442.006H391.02C390.501 442.006 390.004 441.804 389.637 441.445C389.269 441.085 389.063 440.598 389.063 440.089C389.063 439.581 389.269 439.093 389.637 438.734C390.004 438.374 390.501 438.172 391.02 438.172H419.4C419.919 438.172 420.417 438.374 420.784 438.734C421.151 439.093 421.357 439.581 421.357 440.089C421.357 440.598 421.151 441.085 420.784 441.445C420.417 441.804 419.919 442.006 419.4 442.006Z" fill="#006BFF"/>
<path d="M419.4 450.482H405.21C404.691 450.482 404.193 450.28 403.826 449.92C403.459 449.561 403.253 449.073 403.253 448.565C403.253 448.057 403.459 447.569 403.826 447.21C404.193 446.85 404.691 446.648 405.21 446.648H419.4C419.919 446.648 420.417 446.85 420.784 447.21C421.151 447.569 421.357 448.057 421.357 448.565C421.357 449.073 421.151 449.561 420.784 449.92C420.417 450.28 419.919 450.482 419.4 450.482Z" fill="#006BFF"/>
<g opacity="0.1">
<path d="M418.617 433.777H396.738C396.219 433.777 395.721 433.575 395.354 433.216C394.987 432.856 394.781 432.369 394.781 431.86C394.781 431.352 394.987 430.864 395.354 430.505C395.721 430.145 396.219 429.943 396.738 429.943H418.617C419.136 429.943 419.634 430.145 420.001 430.505C420.368 430.864 420.574 431.352 420.574 431.86C420.574 432.369 420.368 432.856 420.001 433.216C419.634 433.575 419.136 433.777 418.617 433.777Z" fill="#FAFAFA"/>
<path d="M419.4 442.006H391.02C390.501 442.006 390.004 441.804 389.637 441.445C389.269 441.085 389.063 440.598 389.063 440.089C389.063 439.581 389.269 439.093 389.637 438.734C390.004 438.374 390.501 438.172 391.02 438.172H419.4C419.919 438.172 420.417 438.374 420.784 438.734C421.151 439.093 421.357 439.581 421.357 440.089C421.357 440.598 421.151 441.085 420.784 441.445C420.417 441.804 419.919 442.006 419.4 442.006Z" fill="#FAFAFA"/>
<path d="M419.4 450.482H405.21C404.691 450.482 404.193 450.28 403.826 449.92C403.459 449.561 403.253 449.073 403.253 448.565C403.253 448.057 403.459 447.569 403.826 447.209C404.193 446.85 404.691 446.648 405.21 446.648H419.4C419.919 446.648 420.417 446.85 420.784 447.209C421.151 447.569 421.357 448.057 421.357 448.565C421.357 449.073 421.151 449.561 420.784 449.92C420.417 450.28 419.919 450.482 419.4 450.482Z" fill="#FAFAFA"/>
</g>
<path d="M572.915 218.792L566.302 218.504L569.294 230.828C571.654 229.245 573.804 227.382 575.697 225.282C576.242 224.654 576.513 223.84 576.45 223.017C576.388 222.194 575.996 221.429 575.361 220.887L572.915 218.792Z" fill="#E4897B"/>
<path d="M558.627 225.145L561.591 235.168L569.294 230.8L566.302 218.504L558.627 225.145Z" fill="#E4897B"/>
<path d="M559.93 165.643L573.461 166.87L542.428 495.139L528.897 493.912L559.93 165.643Z" fill="#006BFF"/>
<path opacity="0.3" d="M559.93 165.643L573.461 166.87L542.428 495.139L528.897 493.912L559.93 165.643Z" fill="black"/>
<path d="M532.864 163.182L546.394 164.409L515.361 492.678L501.83 491.451L532.864 163.182Z" fill="#006BFF"/>
<path opacity="0.3" d="M532.864 163.182L546.394 164.409L515.361 492.678L501.83 491.451L532.864 163.182Z" fill="black"/>
<path d="M546.39 164.412L559.921 165.64L528.888 493.909L515.357 492.682L546.39 164.412Z" fill="#006BFF"/>
<path opacity="0.1" d="M546.39 164.412L559.921 165.64L528.888 493.909L515.357 492.682L546.39 164.412Z" fill="black"/>
<path d="M549.246 141.457L561.423 142.566L573.46 166.87L532.862 163.187L549.246 141.457Z" fill="#006BFF"/>
<g opacity="0.8">
<path d="M549.246 141.457L561.423 142.566L573.46 166.87L532.862 163.187L549.246 141.457Z" fill="#FAFAFA"/>
</g>
<path d="M556.264 132.146L561.423 142.566L549.246 141.457L556.264 132.146Z" fill="#263238"/>
<path d="M453.959 150.699C452.561 152.068 451.4 153.369 450.198 154.807C448.996 156.245 447.85 157.545 446.703 158.915C444.396 161.653 442.244 164.542 440.147 167.486C435.824 173.472 432.177 179.899 429.27 186.656C428.921 187.532 428.599 188.449 428.264 189.394L427.76 190.763C427.483 191.583 427.287 192.427 427.173 193.283C426.87 196.008 427.239 198.764 428.25 201.32C429.758 205.093 431.873 208.606 434.513 211.727C439.18 217.322 444.554 222.314 450.506 226.583L455.776 221.106C451.628 216.027 447.836 210.679 444.424 205.099C442.93 202.716 441.782 200.139 441.013 197.445C440.801 196.784 440.777 196.079 440.943 195.405L441.419 194.392C441.74 193.721 442.02 193.023 442.369 192.365C445.329 186.741 448.79 181.385 452.715 176.359C454.672 173.744 456.741 171.197 458.838 168.65C459.886 167.39 460.949 166.131 462.039 164.898L465.227 161.297L453.959 150.699Z" fill="#E4897B"/>
<path d="M464.234 225.282L458.278 236.825L452.449 231.909L457.23 223.707L464.234 225.282Z" fill="#E4897B"/>
<path d="M509.096 157.463C512.721 164.227 516.487 170.914 520.392 177.523C522.307 180.85 524.32 184.123 526.277 187.422L529.283 192.352L530.038 193.584C530.415 194.173 530.835 194.871 531.212 195.337C531.59 195.802 531.967 196.364 532.331 196.788C532.694 197.213 533.086 197.692 533.449 198.089C536.273 201.102 539.28 203.946 542.452 206.606C545.514 209.166 548.575 211.658 551.735 214.027C557.984 218.806 564.401 223.256 571.055 227.5L575.85 221.585L559.284 205.606C556.572 202.868 553.832 200.293 551.246 197.582C548.704 195.031 546.31 192.343 544.074 189.531C543.804 189.202 543.566 188.888 543.361 188.586C543.123 188.258 542.955 187.984 542.788 187.71C542.643 187.49 542.512 187.261 542.396 187.025L541.753 185.752L539.167 180.59C537.391 177.18 535.658 173.744 533.854 170.362C530.285 163.543 526.557 156.802 522.67 150.138L509.096 157.463Z" fill="#E4897B"/>
<path d="M469.854 111.21C470.036 112.004 469.742 112.757 469.225 112.894C468.708 113.031 468.134 112.484 467.953 111.689C467.771 110.895 468.078 110.142 468.596 110.005C469.113 109.868 469.728 110.416 469.854 111.21Z" fill="#263238"/>
<path d="M469.826 112.744C469.388 115.414 468.589 118.016 467.449 120.48C468.093 120.729 468.784 120.838 469.475 120.798C470.165 120.757 470.839 120.57 471.448 120.247L469.826 112.744Z" fill="#DE5753"/>
<path d="M467.715 106.39C467.814 106.391 467.912 106.362 467.994 106.308C468.511 105.999 469.096 105.818 469.7 105.78C470.304 105.741 470.909 105.848 471.462 106.089C471.582 106.135 471.717 106.134 471.836 106.086C471.956 106.037 472.052 105.945 472.105 105.829C472.152 105.711 472.15 105.579 472.101 105.462C472.051 105.345 471.958 105.25 471.839 105.199C471.132 104.902 470.363 104.777 469.596 104.834C468.829 104.891 468.088 105.129 467.435 105.528C467.382 105.562 467.337 105.607 467.301 105.659C467.266 105.711 467.242 105.769 467.23 105.83C467.219 105.892 467.219 105.955 467.233 106.016C467.247 106.077 467.273 106.134 467.309 106.185C467.355 106.249 467.416 106.301 467.486 106.337C467.557 106.373 467.635 106.391 467.715 106.39Z" fill="#263238"/>
<path d="M498.135 114.236C496.374 121.603 494.375 135.076 499.435 139.992C499.435 139.992 497.087 147.454 483.121 147.454C467.743 147.454 476.131 139.992 476.131 139.992C484.589 138.034 484.617 131.941 483.386 126.231L498.135 114.236Z" fill="#E4897B"/>
<path d="M501.337 142.552C502.539 140.197 503.853 137.486 501.337 136.637C498.625 135.706 483.568 134.761 478.298 136.5C476.894 136.868 475.691 137.757 474.945 138.979C474.198 140.201 473.967 141.659 474.3 143.045L501.337 142.552Z" fill="#006BFF"/>
<path opacity="0.6" d="M501.337 142.552C502.539 140.197 503.853 137.486 501.337 136.637C498.625 135.706 483.568 134.761 478.298 136.5C476.894 136.868 475.691 137.757 474.945 138.979C474.198 140.201 473.967 141.659 474.3 143.045L501.337 142.552Z" fill="#FAFAFA"/>
<path d="M521.454 486.082C522.357 486.078 523.256 485.981 524.138 485.795C524.184 485.787 524.225 485.766 524.258 485.734C524.291 485.702 524.312 485.661 524.32 485.617C524.329 485.571 524.325 485.523 524.308 485.48C524.291 485.436 524.261 485.398 524.222 485.37C524.11 485.288 521.426 483.399 519.861 483.727C519.691 483.756 519.531 483.822 519.391 483.919C519.25 484.016 519.134 484.142 519.05 484.289C518.924 484.452 518.856 484.652 518.856 484.857C518.856 485.062 518.924 485.261 519.05 485.425C519.385 485.959 520.406 486.082 521.454 486.082ZM523.453 485.452C521.916 485.699 519.819 485.699 519.399 485.138C519.399 485.138 519.231 484.918 519.469 484.521C519.52 484.434 519.591 484.359 519.676 484.302C519.76 484.246 519.857 484.208 519.958 484.193C521.228 484.273 522.444 484.721 523.453 485.48V485.452Z" fill="#FAFAFA"/>
<path d="M524.082 485.836H524.208C524.245 485.815 524.274 485.785 524.294 485.749C524.314 485.713 524.323 485.672 524.32 485.631C524.32 485.507 524.194 482.604 523.034 481.646C522.895 481.524 522.73 481.432 522.552 481.378C522.373 481.324 522.185 481.308 521.999 481.331C521.811 481.331 521.628 481.395 521.483 481.513C521.337 481.63 521.238 481.793 521.202 481.975C520.979 483.097 522.936 485.288 523.998 485.85L524.082 485.836ZM522.167 481.728C522.368 481.73 522.562 481.803 522.712 481.934C523.398 482.854 523.779 483.958 523.803 485.096C522.796 484.316 521.552 482.659 521.678 482.002C521.678 481.934 521.678 481.769 522.055 481.728H522.167Z" fill="#FAFAFA"/>
<path d="M459.775 486.082C460.834 486.082 461.892 485.986 462.934 485.795C462.983 485.787 463.028 485.764 463.063 485.73C463.098 485.695 463.122 485.651 463.13 485.603C463.138 485.556 463.131 485.507 463.111 485.464C463.091 485.42 463.059 485.383 463.018 485.357C462.501 485.069 457.943 482.509 456.839 484.275C456.728 484.429 456.669 484.613 456.669 484.802C456.669 484.991 456.728 485.175 456.839 485.329C457.146 485.932 458.46 486.082 459.775 486.082ZM462.165 485.439C460.236 485.713 457.636 485.672 457.188 485.055C457.188 485.055 457.048 484.864 457.258 484.521C457.873 483.549 460.641 484.713 462.165 485.466V485.439Z" fill="#FAFAFA"/>
<path d="M462.892 485.836C462.938 485.848 462.986 485.848 463.032 485.836C463.067 485.812 463.094 485.778 463.112 485.74C463.129 485.701 463.135 485.659 463.13 485.617C463.13 485.507 462.962 482.796 461.732 481.742C461.545 481.575 461.323 481.451 461.081 481.38C460.838 481.309 460.583 481.292 460.334 481.331C459.649 481.4 459.453 481.742 459.411 482.016C459.215 483.18 461.55 485.302 462.78 485.85L462.892 485.836ZM460.543 481.728C460.854 481.724 461.154 481.837 461.382 482.043C462.117 482.925 462.543 484.014 462.598 485.151C461.368 484.412 459.802 482.728 459.9 482.029C459.9 481.961 459.9 481.783 460.403 481.728H460.543Z" fill="#FAFAFA"/>
<path d="M474.188 485.589H463.912L463.814 462.299H474.076L474.188 485.589Z" fill="#E4897B"/>
<path d="M535.853 485.589H525.578L521.328 462.299H531.603L535.853 485.589Z" fill="#E4897B"/>
<path d="M524.893 484.426H536.426C536.63 484.423 536.829 484.492 536.985 484.62C537.141 484.748 537.246 484.927 537.279 485.124L538.957 494.065C538.991 494.287 538.976 494.513 538.912 494.729C538.849 494.944 538.738 495.144 538.587 495.313C538.437 495.482 538.251 495.618 538.042 495.709C537.833 495.801 537.606 495.848 537.377 495.845C533.351 495.777 531.408 495.544 526.333 495.544C523.215 495.544 516.771 495.872 512.451 495.872C508.131 495.872 507.753 491.765 509.529 491.313C517.512 489.615 520.587 487.274 523.201 485.055C523.668 484.651 524.27 484.427 524.893 484.426Z" fill="#263238"/>
<path d="M464.024 484.426H475.208C475.412 484.423 475.61 484.492 475.767 484.62C475.923 484.748 476.028 484.927 476.061 485.124L477.739 494.065C477.778 494.285 477.767 494.511 477.706 494.727C477.646 494.942 477.538 495.142 477.39 495.312C477.242 495.482 477.057 495.618 476.849 495.71C476.641 495.802 476.415 495.848 476.187 495.845C472.147 495.777 466.317 495.544 461.228 495.544C455.273 495.544 450.128 495.872 443.152 495.872C438.958 495.872 437.937 491.765 439.713 491.313C447.821 489.588 454.392 489.41 461.494 485.22C462.245 484.729 463.122 484.454 464.024 484.426Z" fill="#263238"/>
<path d="M519.022 142.265C528.57 144.428 538.594 170.129 538.594 170.129L518.756 183.109C514.202 176.346 510.209 169.235 506.817 161.845C501.575 150.083 509.278 140.06 519.022 142.265Z" fill="#006BFF"/>
<path opacity="0.7" d="M519.022 142.265C528.57 144.428 538.594 170.129 538.594 170.129L518.756 183.109C514.202 176.346 510.209 169.235 506.817 161.845C501.575 150.083 509.278 140.06 519.022 142.265Z" fill="black"/>
<path d="M511.486 158.655L519.693 182.493L518.756 183.109C518.756 183.109 515.009 177.632 511.025 170.334L511.486 158.655Z" fill="#006BFF"/>
<path opacity="0.8" d="M511.486 158.655L519.693 182.493L518.756 183.109C518.756 183.109 515.009 177.632 511.025 170.334L511.486 158.655Z" fill="black"/>
<path d="M454.951 187.203C455.035 198.431 455.72 212.397 457.426 229.732H512.367C513.08 221.517 509.361 181.179 519.021 142.265C512.979 141.117 506.866 140.358 500.722 139.992C492.946 139.553 485.151 139.553 477.375 139.992C472.013 140.502 466.698 141.418 461.48 142.73C461.48 142.73 456.783 147.714 455.357 171.087C455.077 175.756 454.923 181.069 454.951 187.203Z" fill="#006BFF"/>
<path opacity="0.7" d="M454.951 187.203C455.035 198.431 455.72 212.397 457.426 229.732H512.367C513.08 221.517 509.361 181.179 519.021 142.265C512.979 141.117 506.866 140.358 500.722 139.992C492.946 139.553 485.151 139.553 477.375 139.992C472.013 140.502 466.698 141.418 461.48 142.73C461.48 142.73 456.783 147.714 455.357 171.087C455.077 175.756 454.923 181.069 454.951 187.203Z" fill="black"/>
<path d="M454.951 187.203C458.278 181.261 464.318 169.335 463.465 162.557L455.357 171.156C455.077 175.756 454.923 181.069 454.951 187.203Z" fill="#006BFF"/>
<path opacity="0.8" d="M454.951 187.203C458.278 181.261 464.318 169.335 463.465 162.557L455.357 171.156C455.077 175.756 454.923 181.069 454.951 187.203Z" fill="black"/>
<path d="M472.245 151.877C473.111 161.462 450.925 184.52 450.925 184.52L433.143 170.334C437.8 162.636 443.38 155.511 449.765 149.111C460.166 139.266 471.266 141.142 472.245 151.877Z" fill="#006BFF"/>
<path opacity="0.7" d="M472.245 151.877C473.111 161.462 450.925 184.52 450.925 184.52L433.143 170.334C437.8 162.636 443.38 155.511 449.765 149.111C460.166 139.266 471.266 141.142 472.245 151.877Z" fill="black"/>
<path d="M463.814 462.312L463.87 474.307H474.132L474.09 462.312H463.814Z" fill="#CE6F64"/>
<path d="M531.603 462.312H521.328L523.523 474.307H533.798L531.603 462.312Z" fill="#CE6F64"/>
<path d="M496.29 102.899C497.786 112.812 499.17 118.508 495.284 124.807C494.048 126.847 492.266 128.516 490.131 129.635C487.996 130.754 485.589 131.279 483.171 131.153C480.753 131.028 478.416 130.256 476.414 128.923C474.411 127.589 472.819 125.744 471.811 123.588C467.799 115.373 466.009 100.53 474.831 94.2589C476.692 92.8512 478.899 91.9484 481.23 91.6412C483.561 91.3341 485.933 91.6334 488.108 92.5091C490.283 93.3849 492.184 94.8061 493.621 96.63C495.057 98.4538 495.978 100.616 496.29 102.899Z" fill="#E4897B"/>
<path d="M465.884 98.2023C468.909 99.8208 472.238 100.822 475.67 101.146C478.228 112.607 485.036 125.793 496.053 122C500.247 120.631 504.441 110.676 504.874 101.845C505.601 102.707 506.09 103.83 506.468 104.295C507.096 100.371 506.643 96.3524 505.153 92.6569C502.106 84.1949 500.079 89.8088 496.765 84.6742C494.627 81.2784 490.824 79.5258 484.183 79.3067C486.043 80.2515 486.392 81.7714 483.638 81.5523C480.884 81.3332 469.127 80.7034 462.277 85.2356C466.904 86.2625 464.08 93.451 457.901 89.6172C460.152 93.1909 462.948 96.5866 465.884 98.2023Z" fill="#263238"/>
<path d="M483.582 109.033C483.543 111.554 482.681 113.996 481.122 116.003C479.039 118.632 476.648 117.372 476.075 114.414C475.572 111.785 476.075 107.239 478.675 105.651C481.276 104.063 483.596 106.021 483.582 109.033Z" fill="#E4897B"/>
<path d="M496.108 85.7422C497.504 85.6556 498.856 85.2359 500.047 84.52C501.239 83.804 502.234 82.8133 502.945 81.6345C502.945 81.6345 503.126 89.6583 496.108 85.7422Z" fill="#1E2A4C"/>
<path d="M476.928 229.732C476.928 229.732 485.539 306.602 490.81 335.397C496.57 366.89 518.77 471.993 518.77 471.993H537.643C537.643 471.993 524.25 369.477 521.454 338.204C518.448 304.315 512.311 229.677 512.311 229.677L476.928 229.732Z" fill="#006BFF"/>
<path opacity="0.6" d="M476.928 229.732C476.928 229.732 485.539 306.602 490.81 335.397C496.57 366.89 518.77 471.993 518.77 471.993H537.643C537.643 471.993 524.25 369.477 521.454 338.204C518.448 304.315 512.311 229.677 512.311 229.677L476.928 229.732Z" fill="#FAFAFA"/>
<path d="M516.1 465.201C516.016 465.201 517.763 472.28 517.763 472.28H538.915L538.775 465.968L516.1 465.201Z" fill="#006BFF"/>
<path opacity="0.1" d="M516.1 465.201C516.016 465.201 517.763 472.28 517.763 472.28H538.915L538.775 465.968L516.1 465.201Z" fill="#FAFAFA"/>
<path d="M483.205 257.117C496.584 259.705 493.215 308.929 490.6 334.247C487.413 316.351 483.079 281.914 480.157 257.473C481.103 257.021 482.177 256.896 483.205 257.117Z" fill="#006BFF"/>
<path opacity="0.4" d="M483.205 257.117C496.584 259.705 493.215 308.929 490.6 334.247C487.413 316.351 483.079 281.914 480.157 257.473C481.103 257.021 482.177 256.896 483.205 257.117Z" fill="#FAFAFA"/>
<path d="M457.44 229.732C457.44 229.732 453.05 304.931 452.966 335.616C452.868 367.519 460.124 471.993 460.124 471.993H477.529C477.529 471.993 482.212 369.382 484.225 338.053C486.406 303.891 493.55 229.732 493.55 229.732H457.44Z" fill="#006BFF"/>
<path opacity="0.6" d="M457.44 229.732C457.44 229.732 453.05 304.931 452.966 335.616C452.868 367.519 460.124 471.993 460.124 471.993H477.529C477.529 471.993 482.212 369.382 484.225 338.053C486.406 303.891 493.55 229.732 493.55 229.732H457.44Z" fill="#FAFAFA"/>
<path d="M453.232 220.065L458.111 220.449C458.508 220.481 458.893 220.6 459.238 220.797C459.582 220.994 459.878 221.263 460.103 221.586C460.328 221.908 460.477 222.276 460.538 222.662C460.6 223.048 460.573 223.443 460.459 223.817L458.446 230.458C458.276 230.997 457.976 231.489 457.57 231.89C457.165 232.292 456.666 232.591 456.117 232.763C455.568 232.935 454.985 232.975 454.416 232.879C453.848 232.782 453.312 232.553 452.854 232.21C450.334 229.913 448.527 226.966 447.64 223.707L453.232 220.065Z" fill="#E4897B"/>
<path d="M464.248 459.752C464.295 459.745 464.338 459.722 464.369 459.687C464.399 459.652 464.416 459.607 464.416 459.56C462.486 430.655 458.013 360.7 458.097 335.616C458.097 309.943 461.284 252.516 462.291 235.524C462.293 235.501 462.29 235.478 462.282 235.457C462.275 235.435 462.263 235.416 462.247 235.399C462.231 235.382 462.212 235.369 462.191 235.36C462.169 235.351 462.146 235.346 462.123 235.346C462.077 235.346 462.033 235.363 461.999 235.393C461.965 235.424 461.945 235.466 461.941 235.51C460.991 252.503 457.873 309.929 457.747 335.616C457.663 360.714 462.137 430.669 464.066 459.587C464.066 459.61 464.071 459.633 464.08 459.654C464.089 459.675 464.103 459.693 464.12 459.709C464.137 459.724 464.157 459.736 464.179 459.743C464.201 459.751 464.225 459.754 464.248 459.752Z" fill="#006BFF"/>
<path opacity="0.3" d="M464.248 459.752C464.295 459.745 464.338 459.722 464.369 459.687C464.399 459.652 464.416 459.607 464.416 459.56C462.486 430.655 458.013 360.7 458.097 335.616C458.097 309.943 461.284 252.516 462.291 235.524C462.293 235.501 462.29 235.478 462.282 235.457C462.275 235.435 462.263 235.416 462.247 235.399C462.231 235.382 462.212 235.369 462.191 235.36C462.169 235.351 462.146 235.346 462.123 235.346C462.077 235.346 462.033 235.363 461.999 235.393C461.965 235.424 461.945 235.466 461.941 235.51C460.991 252.503 457.873 309.929 457.747 335.616C457.663 360.714 462.137 430.669 464.066 459.587C464.066 459.61 464.071 459.633 464.08 459.654C464.089 459.675 464.103 459.693 464.12 459.709C464.137 459.724 464.157 459.736 464.179 459.743C464.201 459.751 464.225 459.754 464.248 459.752Z" fill="#FAFAFA"/>
<path d="M457.048 465.201C456.964 465.201 457.747 472.28 457.747 472.28H478.913L479.738 465.968L457.048 465.201Z" fill="#006BFF"/>
<path opacity="0.1" d="M457.048 465.201C456.964 465.201 457.747 472.28 457.747 472.28H478.913L479.738 465.968L457.048 465.201Z" fill="#FAFAFA"/>
</svg>
